G75*
G70*
%OFA0B0*%
%FSLAX24Y24*%
%IPPOS*%
%LPD*%
%AMOC8*
5,1,8,0,0,1.08239X$1,22.5*
%
%ADD10R,0.0880X0.0340*%
%ADD11R,0.0789X0.0710*%
%ADD12R,0.0592X0.0297*%
%ADD13R,0.0474X0.0513*%
%ADD14R,0.0513X0.0474*%
%ADD15R,0.0434X0.0316*%
%ADD16C,0.1380*%
%ADD17C,0.0820*%
D10*
X002860Y012022D03*
X002860Y012522D03*
X002860Y013022D03*
X002860Y013522D03*
X002860Y014022D03*
X002860Y014522D03*
X002860Y015022D03*
X002860Y015522D03*
X005280Y015522D03*
X005280Y015022D03*
X005280Y014522D03*
X005280Y014022D03*
X005280Y013522D03*
X005280Y013022D03*
X005280Y012522D03*
X005280Y012022D03*
X014720Y007830D03*
X014720Y007330D03*
X014720Y006830D03*
X014720Y006330D03*
X014720Y005830D03*
X014720Y005330D03*
X014720Y004830D03*
X014720Y004330D03*
X017140Y004330D03*
X017140Y004830D03*
X017140Y005330D03*
X017140Y005830D03*
X017140Y006330D03*
X017140Y006830D03*
X017140Y007330D03*
X017140Y007830D03*
D11*
X012630Y010479D03*
X012630Y011581D03*
X011548Y011580D03*
X010513Y011580D03*
X010513Y010478D03*
X011548Y010478D03*
X009530Y009381D03*
X008580Y009381D03*
X007654Y009368D03*
X007654Y008266D03*
X008580Y008279D03*
X009530Y008279D03*
X009330Y007031D03*
X008435Y007056D03*
X008435Y005954D03*
X009330Y005929D03*
X009330Y004481D03*
X008397Y004456D03*
X008397Y003354D03*
X009330Y003379D03*
X009422Y002144D03*
X010480Y002131D03*
X010480Y001029D03*
X009422Y001042D03*
X008387Y001042D03*
X008387Y002144D03*
X010529Y012990D03*
X010529Y014093D03*
X011930Y014031D03*
X011930Y012929D03*
X011330Y015479D03*
X011330Y016581D03*
X011280Y017679D03*
X010280Y017679D03*
X010280Y018781D03*
X011280Y018781D03*
X010157Y016555D03*
X010157Y015452D03*
X007907Y017758D03*
X007907Y018861D03*
D12*
X006844Y018810D03*
X006844Y017810D03*
X006839Y016450D03*
X006839Y015450D03*
X007411Y014041D03*
X007411Y013041D03*
X007346Y011629D03*
X007346Y010629D03*
X006691Y009267D03*
X006691Y008267D03*
X007522Y006855D03*
X007522Y005855D03*
X007537Y004405D03*
X007537Y003405D03*
X007475Y001893D03*
X007475Y000893D03*
X005270Y000893D03*
X005270Y001893D03*
X005332Y003405D03*
X005332Y004405D03*
X005317Y005855D03*
X005317Y006855D03*
X004486Y008267D03*
X004486Y009267D03*
X009551Y010629D03*
X009551Y011629D03*
X009616Y013041D03*
X009616Y014041D03*
X009044Y015450D03*
X009044Y016450D03*
X012328Y016330D03*
X012328Y015330D03*
X012928Y013930D03*
X012928Y012930D03*
X013578Y011580D03*
X013578Y010580D03*
X012583Y009380D03*
X012583Y008380D03*
X012433Y006980D03*
X012433Y005980D03*
X012433Y004380D03*
X012433Y003380D03*
X011578Y001980D03*
X011578Y000980D03*
X013783Y000980D03*
X013783Y001980D03*
X010228Y003380D03*
X010228Y004380D03*
X010228Y005980D03*
X010228Y006980D03*
X010378Y008380D03*
X010378Y009380D03*
X015133Y012930D03*
X015133Y013930D03*
X014533Y015330D03*
X014533Y016330D03*
X014433Y017730D03*
X014433Y018730D03*
X012228Y018730D03*
X012228Y017730D03*
X015783Y011580D03*
X015783Y010580D03*
X004639Y017810D03*
X004639Y018810D03*
D13*
X003880Y018615D03*
X003880Y017945D03*
X006740Y013878D03*
X006740Y013208D03*
X006680Y011465D03*
X006680Y010796D03*
X003765Y009103D03*
X003765Y008434D03*
X004587Y006694D03*
X004587Y006025D03*
X004523Y004244D03*
X004523Y003575D03*
X004446Y001695D03*
X004446Y001026D03*
X013130Y003545D03*
X013130Y004215D03*
X013130Y006095D03*
X013130Y006765D03*
X013280Y008545D03*
X013280Y009215D03*
X016480Y010745D03*
X016480Y011415D03*
X015830Y013095D03*
X015830Y013765D03*
X015430Y015445D03*
X015430Y016115D03*
X015180Y017895D03*
X015180Y018565D03*
X014480Y001815D03*
X014480Y001145D03*
D14*
X015595Y008780D03*
X016265Y008780D03*
X006039Y016409D03*
X005370Y016409D03*
X004365Y011180D03*
X003695Y011180D03*
X003215Y004020D03*
X002545Y004020D03*
X001892Y004034D03*
X001223Y004034D03*
D15*
X002419Y004689D03*
X002419Y005063D03*
X002419Y005437D03*
X003324Y005437D03*
X003324Y005063D03*
X003324Y004689D03*
D16*
X001361Y001361D03*
X001361Y018684D03*
X018684Y018684D03*
X018684Y001361D03*
D17*
X018684Y005550D03*
X018684Y006550D03*
X018684Y007550D03*
X018684Y008550D03*
X018684Y009550D03*
X018684Y010550D03*
X018684Y011550D03*
X018684Y012550D03*
X018684Y013550D03*
X018684Y014550D03*
X001361Y014495D03*
X001361Y013495D03*
X001361Y012495D03*
X001361Y011495D03*
X001361Y010495D03*
X001361Y009495D03*
X001361Y008495D03*
X001361Y007495D03*
X001361Y006495D03*
X001361Y005495D03*
M02*
