G75*
G70*
%OFA0B0*%
%FSLAX24Y24*%
%IPPOS*%
%LPD*%
%AMOC8*
5,1,8,0,0,1.08239X$1,22.5*
%
%ADD10C,0.0000*%
%ADD11C,0.0160*%
%ADD12C,0.0060*%
%ADD13C,0.0020*%
%ADD14C,0.0040*%
%ADD15C,0.0030*%
%ADD16C,0.0050*%
%ADD17R,0.0300X0.0180*%
%ADD18R,0.0180X0.0300*%
%ADD19C,0.0079*%
%ADD20C,0.0080*%
%ADD21C,0.0220*%
D10*
X000180Y000180D02*
X000180Y019865D01*
X019865Y019865D01*
X019865Y000180D01*
X000180Y000180D01*
X000711Y001361D02*
X000713Y001411D01*
X000719Y001461D01*
X000729Y001511D01*
X000742Y001559D01*
X000759Y001607D01*
X000780Y001653D01*
X000804Y001697D01*
X000832Y001739D01*
X000863Y001779D01*
X000897Y001816D01*
X000934Y001851D01*
X000973Y001882D01*
X001014Y001911D01*
X001058Y001936D01*
X001104Y001958D01*
X001151Y001976D01*
X001199Y001990D01*
X001248Y002001D01*
X001298Y002008D01*
X001348Y002011D01*
X001399Y002010D01*
X001449Y002005D01*
X001499Y001996D01*
X001547Y001984D01*
X001595Y001967D01*
X001641Y001947D01*
X001686Y001924D01*
X001729Y001897D01*
X001769Y001867D01*
X001807Y001834D01*
X001842Y001798D01*
X001875Y001759D01*
X001904Y001718D01*
X001930Y001675D01*
X001953Y001630D01*
X001972Y001583D01*
X001987Y001535D01*
X001999Y001486D01*
X002007Y001436D01*
X002011Y001386D01*
X002011Y001336D01*
X002007Y001286D01*
X001999Y001236D01*
X001987Y001187D01*
X001972Y001139D01*
X001953Y001092D01*
X001930Y001047D01*
X001904Y001004D01*
X001875Y000963D01*
X001842Y000924D01*
X001807Y000888D01*
X001769Y000855D01*
X001729Y000825D01*
X001686Y000798D01*
X001641Y000775D01*
X001595Y000755D01*
X001547Y000738D01*
X001499Y000726D01*
X001449Y000717D01*
X001399Y000712D01*
X001348Y000711D01*
X001298Y000714D01*
X001248Y000721D01*
X001199Y000732D01*
X001151Y000746D01*
X001104Y000764D01*
X001058Y000786D01*
X001014Y000811D01*
X000973Y000840D01*
X000934Y000871D01*
X000897Y000906D01*
X000863Y000943D01*
X000832Y000983D01*
X000804Y001025D01*
X000780Y001069D01*
X000759Y001115D01*
X000742Y001163D01*
X000729Y001211D01*
X000719Y001261D01*
X000713Y001311D01*
X000711Y001361D01*
X000711Y018684D02*
X000713Y018734D01*
X000719Y018784D01*
X000729Y018834D01*
X000742Y018882D01*
X000759Y018930D01*
X000780Y018976D01*
X000804Y019020D01*
X000832Y019062D01*
X000863Y019102D01*
X000897Y019139D01*
X000934Y019174D01*
X000973Y019205D01*
X001014Y019234D01*
X001058Y019259D01*
X001104Y019281D01*
X001151Y019299D01*
X001199Y019313D01*
X001248Y019324D01*
X001298Y019331D01*
X001348Y019334D01*
X001399Y019333D01*
X001449Y019328D01*
X001499Y019319D01*
X001547Y019307D01*
X001595Y019290D01*
X001641Y019270D01*
X001686Y019247D01*
X001729Y019220D01*
X001769Y019190D01*
X001807Y019157D01*
X001842Y019121D01*
X001875Y019082D01*
X001904Y019041D01*
X001930Y018998D01*
X001953Y018953D01*
X001972Y018906D01*
X001987Y018858D01*
X001999Y018809D01*
X002007Y018759D01*
X002011Y018709D01*
X002011Y018659D01*
X002007Y018609D01*
X001999Y018559D01*
X001987Y018510D01*
X001972Y018462D01*
X001953Y018415D01*
X001930Y018370D01*
X001904Y018327D01*
X001875Y018286D01*
X001842Y018247D01*
X001807Y018211D01*
X001769Y018178D01*
X001729Y018148D01*
X001686Y018121D01*
X001641Y018098D01*
X001595Y018078D01*
X001547Y018061D01*
X001499Y018049D01*
X001449Y018040D01*
X001399Y018035D01*
X001348Y018034D01*
X001298Y018037D01*
X001248Y018044D01*
X001199Y018055D01*
X001151Y018069D01*
X001104Y018087D01*
X001058Y018109D01*
X001014Y018134D01*
X000973Y018163D01*
X000934Y018194D01*
X000897Y018229D01*
X000863Y018266D01*
X000832Y018306D01*
X000804Y018348D01*
X000780Y018392D01*
X000759Y018438D01*
X000742Y018486D01*
X000729Y018534D01*
X000719Y018584D01*
X000713Y018634D01*
X000711Y018684D01*
X018034Y018684D02*
X018036Y018734D01*
X018042Y018784D01*
X018052Y018834D01*
X018065Y018882D01*
X018082Y018930D01*
X018103Y018976D01*
X018127Y019020D01*
X018155Y019062D01*
X018186Y019102D01*
X018220Y019139D01*
X018257Y019174D01*
X018296Y019205D01*
X018337Y019234D01*
X018381Y019259D01*
X018427Y019281D01*
X018474Y019299D01*
X018522Y019313D01*
X018571Y019324D01*
X018621Y019331D01*
X018671Y019334D01*
X018722Y019333D01*
X018772Y019328D01*
X018822Y019319D01*
X018870Y019307D01*
X018918Y019290D01*
X018964Y019270D01*
X019009Y019247D01*
X019052Y019220D01*
X019092Y019190D01*
X019130Y019157D01*
X019165Y019121D01*
X019198Y019082D01*
X019227Y019041D01*
X019253Y018998D01*
X019276Y018953D01*
X019295Y018906D01*
X019310Y018858D01*
X019322Y018809D01*
X019330Y018759D01*
X019334Y018709D01*
X019334Y018659D01*
X019330Y018609D01*
X019322Y018559D01*
X019310Y018510D01*
X019295Y018462D01*
X019276Y018415D01*
X019253Y018370D01*
X019227Y018327D01*
X019198Y018286D01*
X019165Y018247D01*
X019130Y018211D01*
X019092Y018178D01*
X019052Y018148D01*
X019009Y018121D01*
X018964Y018098D01*
X018918Y018078D01*
X018870Y018061D01*
X018822Y018049D01*
X018772Y018040D01*
X018722Y018035D01*
X018671Y018034D01*
X018621Y018037D01*
X018571Y018044D01*
X018522Y018055D01*
X018474Y018069D01*
X018427Y018087D01*
X018381Y018109D01*
X018337Y018134D01*
X018296Y018163D01*
X018257Y018194D01*
X018220Y018229D01*
X018186Y018266D01*
X018155Y018306D01*
X018127Y018348D01*
X018103Y018392D01*
X018082Y018438D01*
X018065Y018486D01*
X018052Y018534D01*
X018042Y018584D01*
X018036Y018634D01*
X018034Y018684D01*
X018034Y001361D02*
X018036Y001411D01*
X018042Y001461D01*
X018052Y001511D01*
X018065Y001559D01*
X018082Y001607D01*
X018103Y001653D01*
X018127Y001697D01*
X018155Y001739D01*
X018186Y001779D01*
X018220Y001816D01*
X018257Y001851D01*
X018296Y001882D01*
X018337Y001911D01*
X018381Y001936D01*
X018427Y001958D01*
X018474Y001976D01*
X018522Y001990D01*
X018571Y002001D01*
X018621Y002008D01*
X018671Y002011D01*
X018722Y002010D01*
X018772Y002005D01*
X018822Y001996D01*
X018870Y001984D01*
X018918Y001967D01*
X018964Y001947D01*
X019009Y001924D01*
X019052Y001897D01*
X019092Y001867D01*
X019130Y001834D01*
X019165Y001798D01*
X019198Y001759D01*
X019227Y001718D01*
X019253Y001675D01*
X019276Y001630D01*
X019295Y001583D01*
X019310Y001535D01*
X019322Y001486D01*
X019330Y001436D01*
X019334Y001386D01*
X019334Y001336D01*
X019330Y001286D01*
X019322Y001236D01*
X019310Y001187D01*
X019295Y001139D01*
X019276Y001092D01*
X019253Y001047D01*
X019227Y001004D01*
X019198Y000963D01*
X019165Y000924D01*
X019130Y000888D01*
X019092Y000855D01*
X019052Y000825D01*
X019009Y000798D01*
X018964Y000775D01*
X018918Y000755D01*
X018870Y000738D01*
X018822Y000726D01*
X018772Y000717D01*
X018722Y000712D01*
X018671Y000711D01*
X018621Y000714D01*
X018571Y000721D01*
X018522Y000732D01*
X018474Y000746D01*
X018427Y000764D01*
X018381Y000786D01*
X018337Y000811D01*
X018296Y000840D01*
X018257Y000871D01*
X018220Y000906D01*
X018186Y000943D01*
X018155Y000983D01*
X018127Y001025D01*
X018103Y001069D01*
X018082Y001115D01*
X018065Y001163D01*
X018052Y001211D01*
X018042Y001261D01*
X018036Y001311D01*
X018034Y001361D01*
D11*
X016912Y000180D02*
X016912Y003133D01*
X019865Y003133D01*
X019865Y016912D02*
X016912Y016912D01*
X016912Y019865D01*
X003133Y019865D02*
X003133Y016912D01*
X000180Y016912D01*
X000180Y003133D02*
X003133Y003133D01*
X003133Y000180D01*
D12*
X003179Y004503D02*
X002564Y004503D01*
X002564Y005623D02*
X003179Y005623D01*
X003450Y011772D02*
X003870Y011772D01*
X004270Y011772D01*
X004690Y011772D01*
X004713Y011774D01*
X004736Y011779D01*
X004758Y011788D01*
X004778Y011801D01*
X004796Y011816D01*
X004811Y011834D01*
X004824Y011854D01*
X004833Y011876D01*
X004838Y011899D01*
X004840Y011922D01*
X004840Y015622D01*
X004838Y015645D01*
X004833Y015668D01*
X004824Y015690D01*
X004811Y015710D01*
X004796Y015728D01*
X004778Y015743D01*
X004758Y015756D01*
X004736Y015765D01*
X004713Y015770D01*
X004690Y015772D01*
X003450Y015772D01*
X003427Y015770D01*
X003404Y015765D01*
X003382Y015756D01*
X003362Y015743D01*
X003344Y015728D01*
X003329Y015710D01*
X003316Y015690D01*
X003307Y015668D01*
X003302Y015645D01*
X003300Y015622D01*
X003300Y011922D01*
X003302Y011899D01*
X003307Y011876D01*
X003316Y011854D01*
X003329Y011834D01*
X003344Y011816D01*
X003362Y011801D01*
X003382Y011788D01*
X003404Y011779D01*
X003427Y011774D01*
X003450Y011772D01*
X003870Y011772D02*
X003872Y011799D01*
X003877Y011826D01*
X003887Y011852D01*
X003899Y011876D01*
X003915Y011898D01*
X003933Y011918D01*
X003955Y011935D01*
X003978Y011950D01*
X004003Y011960D01*
X004029Y011968D01*
X004056Y011972D01*
X004084Y011972D01*
X004111Y011968D01*
X004137Y011960D01*
X004162Y011950D01*
X004185Y011935D01*
X004207Y011918D01*
X004225Y011898D01*
X004241Y011876D01*
X004253Y011852D01*
X004263Y011826D01*
X004268Y011799D01*
X004270Y011772D01*
X015160Y007930D02*
X015160Y004230D01*
X015162Y004207D01*
X015167Y004184D01*
X015176Y004162D01*
X015189Y004142D01*
X015204Y004124D01*
X015222Y004109D01*
X015242Y004096D01*
X015264Y004087D01*
X015287Y004082D01*
X015310Y004080D01*
X016550Y004080D01*
X016573Y004082D01*
X016596Y004087D01*
X016618Y004096D01*
X016638Y004109D01*
X016656Y004124D01*
X016671Y004142D01*
X016684Y004162D01*
X016693Y004184D01*
X016698Y004207D01*
X016700Y004230D01*
X016700Y007930D01*
X016698Y007953D01*
X016693Y007976D01*
X016684Y007998D01*
X016671Y008018D01*
X016656Y008036D01*
X016638Y008051D01*
X016618Y008064D01*
X016596Y008073D01*
X016573Y008078D01*
X016550Y008080D01*
X016130Y008080D01*
X015730Y008080D01*
X015310Y008080D01*
X015287Y008078D01*
X015264Y008073D01*
X015242Y008064D01*
X015222Y008051D01*
X015204Y008036D01*
X015189Y008018D01*
X015176Y007998D01*
X015167Y007976D01*
X015162Y007953D01*
X015160Y007930D01*
X015730Y008080D02*
X015732Y008053D01*
X015737Y008026D01*
X015747Y008000D01*
X015759Y007976D01*
X015775Y007954D01*
X015793Y007934D01*
X015815Y007917D01*
X015838Y007902D01*
X015863Y007892D01*
X015889Y007884D01*
X015916Y007880D01*
X015944Y007880D01*
X015971Y007884D01*
X015997Y007892D01*
X016022Y007902D01*
X016045Y007917D01*
X016067Y007934D01*
X016085Y007954D01*
X016101Y007976D01*
X016113Y008000D01*
X016123Y008026D01*
X016128Y008053D01*
X016130Y008080D01*
D13*
X015300Y008080D02*
X015300Y004080D01*
X004700Y011772D02*
X004700Y015772D01*
D14*
X004698Y015958D02*
X004458Y015958D01*
X004578Y015958D02*
X004578Y016318D01*
X004458Y016198D01*
X004330Y016318D02*
X004330Y016018D01*
X004270Y015958D01*
X004150Y015958D01*
X004090Y016018D01*
X004090Y016318D01*
X001541Y016322D02*
X001541Y016082D01*
X001541Y016202D02*
X001181Y016202D01*
X001301Y016082D01*
X001361Y015953D02*
X001421Y015893D01*
X001421Y015713D01*
X001541Y015713D02*
X001181Y015713D01*
X001181Y015893D01*
X001241Y015953D01*
X001361Y015953D01*
X001181Y015585D02*
X001181Y015465D01*
X001181Y015525D02*
X001481Y015525D01*
X001541Y015465D01*
X001541Y015405D01*
X001481Y015345D01*
X002853Y006139D02*
X002853Y005838D01*
X002913Y005778D01*
X003033Y005778D01*
X003093Y005838D01*
X003093Y006139D01*
X003221Y006139D02*
X003221Y005959D01*
X003341Y006019D01*
X003401Y006019D01*
X003461Y005959D01*
X003461Y005838D01*
X003401Y005778D01*
X003281Y005778D01*
X003221Y005838D01*
X003221Y006139D02*
X003461Y006139D01*
X015450Y003810D02*
X015450Y003510D01*
X015510Y003450D01*
X015630Y003450D01*
X015690Y003510D01*
X015690Y003810D01*
X015818Y003630D02*
X016059Y003630D01*
X015998Y003450D02*
X015998Y003810D01*
X015818Y003630D01*
X018464Y003675D02*
X018464Y003795D01*
X018464Y003735D02*
X018764Y003735D01*
X018824Y003675D01*
X018824Y003615D01*
X018764Y003555D01*
X018824Y003923D02*
X018464Y003923D01*
X018464Y004104D01*
X018524Y004164D01*
X018644Y004164D01*
X018704Y004104D01*
X018704Y003923D01*
X018824Y004292D02*
X018584Y004532D01*
X018524Y004532D01*
X018464Y004472D01*
X018464Y004352D01*
X018524Y004292D01*
X018824Y004292D02*
X018824Y004532D01*
D15*
X015245Y001822D02*
X015245Y001698D01*
X015183Y001637D01*
X015183Y001515D02*
X015122Y001515D01*
X015060Y001454D01*
X015060Y001268D01*
X015183Y001268D01*
X015245Y001330D01*
X015245Y001454D01*
X015183Y001515D01*
X015060Y001637D02*
X014998Y001760D01*
X014998Y001822D01*
X015060Y001884D01*
X015183Y001884D01*
X015245Y001822D01*
X015060Y001637D02*
X014875Y001637D01*
X014875Y001884D01*
X014875Y001515D02*
X014936Y001392D01*
X015060Y001268D01*
X015060Y001147D02*
X014936Y001147D01*
X014875Y001085D01*
X014875Y000900D01*
X015245Y000900D01*
X015122Y000900D02*
X015122Y001085D01*
X015060Y001147D01*
X015122Y001023D02*
X015245Y001147D01*
X013369Y002477D02*
X013307Y002415D01*
X013183Y002415D01*
X013122Y002477D01*
X013122Y002600D02*
X013245Y002662D01*
X013307Y002662D01*
X013369Y002600D01*
X013369Y002477D01*
X013122Y002600D02*
X013122Y002785D01*
X013369Y002785D01*
X013000Y002724D02*
X012938Y002785D01*
X012815Y002785D01*
X012753Y002724D01*
X012632Y002724D02*
X012570Y002785D01*
X012447Y002785D01*
X012385Y002724D01*
X012385Y002662D01*
X012447Y002600D01*
X012570Y002600D01*
X012632Y002538D01*
X012632Y002477D01*
X012570Y002415D01*
X012447Y002415D01*
X012385Y002477D01*
X012753Y002415D02*
X013000Y002662D01*
X013000Y002724D01*
X013000Y002415D02*
X012753Y002415D01*
X013525Y003340D02*
X013525Y003525D01*
X013586Y003587D01*
X013710Y003587D01*
X013772Y003525D01*
X013772Y003340D01*
X013895Y003340D02*
X013525Y003340D01*
X013772Y003463D02*
X013895Y003587D01*
X013833Y003708D02*
X013710Y003708D01*
X013710Y003894D01*
X013772Y003955D01*
X013833Y003955D01*
X013895Y003894D01*
X013895Y003770D01*
X013833Y003708D01*
X013710Y003708D02*
X013586Y003832D01*
X013525Y003955D01*
X013710Y004077D02*
X013586Y004200D01*
X013525Y004324D01*
X013710Y004262D02*
X013710Y004077D01*
X013833Y004077D01*
X013895Y004138D01*
X013895Y004262D01*
X013833Y004324D01*
X013772Y004324D01*
X013710Y004262D01*
X013732Y005890D02*
X013732Y006075D01*
X013670Y006137D01*
X013546Y006137D01*
X013485Y006075D01*
X013485Y005890D01*
X013855Y005890D01*
X013732Y006013D02*
X013855Y006137D01*
X013793Y006258D02*
X013855Y006320D01*
X013855Y006444D01*
X013793Y006505D01*
X013732Y006505D01*
X013670Y006444D01*
X013670Y006258D01*
X013793Y006258D01*
X013670Y006258D02*
X013546Y006382D01*
X013485Y006505D01*
X013485Y006627D02*
X013485Y006874D01*
X013546Y006874D01*
X013793Y006627D01*
X013855Y006627D01*
X013842Y008465D02*
X013842Y008650D01*
X013780Y008712D01*
X013656Y008712D01*
X013595Y008650D01*
X013595Y008465D01*
X013965Y008465D01*
X013842Y008588D02*
X013965Y008712D01*
X013903Y008833D02*
X013780Y008833D01*
X013780Y009018D01*
X013842Y009080D01*
X013903Y009080D01*
X013965Y009018D01*
X013965Y008895D01*
X013903Y008833D01*
X013780Y008833D02*
X013656Y008957D01*
X013595Y009080D01*
X013656Y009202D02*
X013595Y009263D01*
X013595Y009387D01*
X013656Y009449D01*
X013718Y009449D01*
X013780Y009387D01*
X013780Y009263D01*
X013718Y009202D01*
X013656Y009202D01*
X013780Y009263D02*
X013842Y009202D01*
X013903Y009202D01*
X013965Y009263D01*
X013965Y009387D01*
X013903Y009449D01*
X013842Y009449D01*
X013780Y009387D01*
X013369Y009717D02*
X013307Y009655D01*
X013183Y009655D01*
X013122Y009717D01*
X013122Y009778D01*
X013183Y009840D01*
X013307Y009840D01*
X013369Y009778D01*
X013369Y009717D01*
X013307Y009840D02*
X013369Y009902D01*
X013369Y009964D01*
X013307Y010025D01*
X013183Y010025D01*
X013122Y009964D01*
X013122Y009902D01*
X013183Y009840D01*
X013000Y009902D02*
X013000Y009964D01*
X012938Y010025D01*
X012815Y010025D01*
X012753Y009964D01*
X012632Y009964D02*
X012570Y010025D01*
X012447Y010025D01*
X012385Y009964D01*
X012385Y009902D01*
X012447Y009840D01*
X012570Y009840D01*
X012632Y009778D01*
X012632Y009717D01*
X012570Y009655D01*
X012447Y009655D01*
X012385Y009717D01*
X012753Y009655D02*
X013000Y009902D01*
X013000Y009655D02*
X012753Y009655D01*
X012199Y007865D02*
X011952Y007865D01*
X011830Y007804D02*
X011768Y007865D01*
X011645Y007865D01*
X011583Y007804D01*
X011462Y007804D02*
X011400Y007865D01*
X011277Y007865D01*
X011215Y007804D01*
X011215Y007742D01*
X011277Y007680D01*
X011400Y007680D01*
X011462Y007618D01*
X011462Y007557D01*
X011400Y007495D01*
X011277Y007495D01*
X011215Y007557D01*
X011583Y007495D02*
X011830Y007742D01*
X011830Y007804D01*
X011952Y007557D02*
X011952Y007495D01*
X011952Y007557D02*
X012199Y007804D01*
X012199Y007865D01*
X011830Y007495D02*
X011583Y007495D01*
X009899Y007744D02*
X009652Y007497D01*
X009652Y007435D01*
X009530Y007435D02*
X009283Y007435D01*
X009530Y007682D01*
X009530Y007744D01*
X009468Y007805D01*
X009345Y007805D01*
X009283Y007744D01*
X009162Y007744D02*
X009162Y007620D01*
X009100Y007558D01*
X008915Y007558D01*
X008915Y007435D02*
X008915Y007805D01*
X009100Y007805D01*
X009162Y007744D01*
X009038Y007558D02*
X009162Y007435D01*
X009652Y007805D02*
X009899Y007805D01*
X009899Y007744D01*
X009893Y009755D02*
X010140Y010002D01*
X010140Y010064D01*
X010078Y010125D01*
X009955Y010125D01*
X009893Y010064D01*
X009772Y010064D02*
X009772Y009940D01*
X009710Y009878D01*
X009525Y009878D01*
X009525Y009755D02*
X009525Y010125D01*
X009710Y010125D01*
X009772Y010064D01*
X009648Y009878D02*
X009772Y009755D01*
X009893Y009755D02*
X010140Y009755D01*
X010262Y009817D02*
X010262Y009878D01*
X010323Y009940D01*
X010447Y009940D01*
X010509Y009878D01*
X010509Y009817D01*
X010447Y009755D01*
X010323Y009755D01*
X010262Y009817D01*
X010323Y009940D02*
X010262Y010002D01*
X010262Y010064D01*
X010323Y010125D01*
X010447Y010125D01*
X010509Y010064D01*
X010509Y010002D01*
X010447Y009940D01*
X010048Y010824D02*
X009678Y010824D01*
X009678Y011009D01*
X009740Y011071D01*
X009863Y011071D01*
X009925Y011009D01*
X009925Y010824D01*
X009925Y010948D02*
X010048Y011071D01*
X009863Y011193D02*
X009863Y011439D01*
X009678Y011378D02*
X009863Y011193D01*
X010048Y011378D02*
X009678Y011378D01*
X010824Y012077D02*
X010824Y012448D01*
X011009Y012448D01*
X011071Y012386D01*
X011071Y012262D01*
X011009Y012201D01*
X010824Y012201D01*
X010948Y012201D02*
X011071Y012077D01*
X011193Y012262D02*
X011439Y012262D01*
X011561Y012139D02*
X011561Y012386D01*
X011623Y012448D01*
X011746Y012448D01*
X011808Y012386D01*
X011561Y012139D01*
X011623Y012077D01*
X011746Y012077D01*
X011808Y012139D01*
X011808Y012386D01*
X011378Y012448D02*
X011378Y012077D01*
X011193Y012262D02*
X011378Y012448D01*
X012245Y012465D02*
X012245Y012095D01*
X012245Y012218D02*
X012430Y012218D01*
X012492Y012280D01*
X012492Y012404D01*
X012430Y012465D01*
X012245Y012465D01*
X012613Y012404D02*
X012675Y012465D01*
X012798Y012465D01*
X012860Y012404D01*
X012860Y012342D01*
X012613Y012095D01*
X012860Y012095D01*
X012982Y012157D02*
X013043Y012095D01*
X013167Y012095D01*
X013229Y012157D01*
X013229Y012404D01*
X013167Y012465D01*
X013043Y012465D01*
X012982Y012404D01*
X012982Y012342D01*
X013043Y012280D01*
X013229Y012280D01*
X012492Y012095D02*
X012368Y012218D01*
X014225Y012157D02*
X014287Y012095D01*
X014410Y012095D01*
X014472Y012157D01*
X014472Y012218D01*
X014410Y012280D01*
X014287Y012280D01*
X014225Y012342D01*
X014225Y012404D01*
X014287Y012465D01*
X014410Y012465D01*
X014472Y012404D01*
X014593Y012404D02*
X014655Y012465D01*
X014778Y012465D01*
X014840Y012404D01*
X014840Y012342D01*
X014593Y012095D01*
X014840Y012095D01*
X014962Y012157D02*
X015023Y012095D01*
X015147Y012095D01*
X015209Y012157D01*
X015209Y012404D01*
X015147Y012465D01*
X015023Y012465D01*
X014962Y012404D01*
X014962Y012342D01*
X015023Y012280D01*
X015209Y012280D01*
X016185Y012975D02*
X016185Y013160D01*
X016246Y013222D01*
X016370Y013222D01*
X016432Y013160D01*
X016432Y012975D01*
X016555Y012975D02*
X016185Y012975D01*
X016432Y013098D02*
X016555Y013222D01*
X016555Y013343D02*
X016493Y013343D01*
X016246Y013590D01*
X016185Y013590D01*
X016185Y013343D01*
X016246Y013712D02*
X016185Y013773D01*
X016185Y013897D01*
X016246Y013959D01*
X016493Y013712D01*
X016555Y013773D01*
X016555Y013897D01*
X016493Y013959D01*
X016246Y013959D01*
X016246Y013712D02*
X016493Y013712D01*
X016195Y015365D02*
X015825Y015365D01*
X015825Y015550D01*
X015886Y015612D01*
X016010Y015612D01*
X016072Y015550D01*
X016072Y015365D01*
X016072Y015488D02*
X016195Y015612D01*
X016195Y015733D02*
X016133Y015733D01*
X015886Y015980D01*
X015825Y015980D01*
X015825Y015733D01*
X015948Y016102D02*
X015825Y016225D01*
X016195Y016225D01*
X016195Y016102D02*
X016195Y016349D01*
X015905Y017735D02*
X015535Y017735D01*
X015535Y017920D01*
X015596Y017982D01*
X015720Y017982D01*
X015782Y017920D01*
X015782Y017735D01*
X015782Y017858D02*
X015905Y017982D01*
X015905Y018103D02*
X015843Y018103D01*
X015596Y018350D01*
X015535Y018350D01*
X015535Y018103D01*
X015596Y018472D02*
X015535Y018533D01*
X015535Y018657D01*
X015596Y018719D01*
X015658Y018719D01*
X015905Y018472D01*
X015905Y018719D01*
X015279Y018945D02*
X015032Y018945D01*
X015279Y019192D01*
X015279Y019254D01*
X015217Y019315D01*
X015093Y019315D01*
X015032Y019254D01*
X014910Y019254D02*
X014910Y019192D01*
X014848Y019130D01*
X014910Y019068D01*
X014910Y019007D01*
X014848Y018945D01*
X014725Y018945D01*
X014663Y019007D01*
X014542Y019007D02*
X014542Y019068D01*
X014480Y019130D01*
X014357Y019130D01*
X014295Y019192D01*
X014295Y019254D01*
X014357Y019315D01*
X014480Y019315D01*
X014542Y019254D01*
X014663Y019254D02*
X014725Y019315D01*
X014848Y019315D01*
X014910Y019254D01*
X014848Y019130D02*
X014787Y019130D01*
X014542Y019007D02*
X014480Y018945D01*
X014357Y018945D01*
X014295Y019007D01*
X013735Y017195D02*
X013612Y017072D01*
X013490Y017072D02*
X013428Y017010D01*
X013490Y016948D01*
X013490Y016887D01*
X013428Y016825D01*
X013305Y016825D01*
X013243Y016887D01*
X013122Y016887D02*
X013060Y016825D01*
X012937Y016825D01*
X012875Y016887D01*
X012937Y017010D02*
X013060Y017010D01*
X013122Y016948D01*
X013122Y016887D01*
X012937Y017010D02*
X012875Y017072D01*
X012875Y017134D01*
X012937Y017195D01*
X013060Y017195D01*
X013122Y017134D01*
X013243Y017134D02*
X013305Y017195D01*
X013428Y017195D01*
X013490Y017134D01*
X013490Y017072D01*
X013428Y017010D02*
X013367Y017010D01*
X013612Y016825D02*
X013859Y016825D01*
X013735Y016825D02*
X013735Y017195D01*
X012469Y016915D02*
X012222Y016915D01*
X012345Y016915D02*
X012345Y017285D01*
X012222Y017162D01*
X012100Y017162D02*
X012038Y017100D01*
X012100Y017038D01*
X012100Y016977D01*
X012038Y016915D01*
X011915Y016915D01*
X011853Y016977D01*
X011732Y016915D02*
X011608Y017038D01*
X011670Y017038D02*
X011485Y017038D01*
X011485Y016915D02*
X011485Y017285D01*
X011670Y017285D01*
X011732Y017224D01*
X011732Y017100D01*
X011670Y017038D01*
X011853Y017224D02*
X011915Y017285D01*
X012038Y017285D01*
X012100Y017224D01*
X012100Y017162D01*
X012038Y017100D02*
X011977Y017100D01*
X011789Y019145D02*
X011542Y019145D01*
X011789Y019392D01*
X011789Y019454D01*
X011727Y019515D01*
X011603Y019515D01*
X011542Y019454D01*
X011420Y019454D02*
X011420Y019392D01*
X011358Y019330D01*
X011420Y019268D01*
X011420Y019207D01*
X011358Y019145D01*
X011235Y019145D01*
X011173Y019207D01*
X011052Y019145D02*
X010928Y019268D01*
X010990Y019268D02*
X010805Y019268D01*
X010805Y019145D02*
X010805Y019515D01*
X010990Y019515D01*
X011052Y019454D01*
X011052Y019330D01*
X010990Y019268D01*
X011173Y019454D02*
X011235Y019515D01*
X011358Y019515D01*
X011420Y019454D01*
X011358Y019330D02*
X011297Y019330D01*
X009815Y018895D02*
X009815Y018772D01*
X009753Y018710D01*
X009506Y018957D01*
X009753Y018957D01*
X009815Y018895D01*
X009753Y018710D02*
X009506Y018710D01*
X009445Y018772D01*
X009445Y018895D01*
X009506Y018957D01*
X009506Y018589D02*
X009445Y018527D01*
X009445Y018403D01*
X009506Y018342D01*
X009506Y018220D02*
X009568Y018220D01*
X009630Y018158D01*
X009692Y018220D01*
X009753Y018220D01*
X009815Y018158D01*
X009815Y018035D01*
X009753Y017973D01*
X009815Y017852D02*
X009692Y017728D01*
X009692Y017790D02*
X009692Y017605D01*
X009815Y017605D02*
X009445Y017605D01*
X009445Y017790D01*
X009506Y017852D01*
X009630Y017852D01*
X009692Y017790D01*
X009506Y017973D02*
X009445Y018035D01*
X009445Y018158D01*
X009506Y018220D01*
X009630Y018158D02*
X009630Y018097D01*
X009815Y018342D02*
X009568Y018589D01*
X009506Y018589D01*
X009815Y018589D02*
X009815Y018342D01*
X007822Y017274D02*
X007822Y017212D01*
X007575Y016965D01*
X007822Y016965D01*
X007822Y017274D02*
X007760Y017336D01*
X007636Y017336D01*
X007575Y017274D01*
X007453Y017274D02*
X007392Y017336D01*
X007268Y017336D01*
X007206Y017274D01*
X007206Y017212D01*
X007268Y017151D01*
X007392Y017151D01*
X007453Y017089D01*
X007453Y017027D01*
X007392Y016965D01*
X007268Y016965D01*
X007206Y017027D01*
X006233Y017032D02*
X006172Y017094D01*
X006048Y017094D01*
X005986Y017032D01*
X005865Y016909D02*
X005618Y016909D01*
X005803Y017094D01*
X005803Y016724D01*
X005986Y016724D02*
X006233Y016971D01*
X006233Y017032D01*
X006233Y016724D02*
X005986Y016724D01*
X005497Y016724D02*
X005373Y016847D01*
X005435Y016847D02*
X005250Y016847D01*
X005250Y016724D02*
X005250Y017094D01*
X005435Y017094D01*
X005497Y017032D01*
X005497Y016909D01*
X005435Y016847D01*
X007031Y018025D02*
X007031Y018210D01*
X007093Y018271D01*
X007217Y018271D01*
X007278Y018210D01*
X007278Y018025D01*
X007278Y018148D02*
X007402Y018271D01*
X007402Y018393D02*
X007402Y018640D01*
X007402Y018516D02*
X007031Y018516D01*
X007155Y018393D01*
X007031Y018025D02*
X007402Y018025D01*
X007302Y019005D02*
X007055Y019005D01*
X007178Y019005D02*
X007178Y019375D01*
X007055Y019251D01*
X006933Y019313D02*
X006872Y019375D01*
X006748Y019375D01*
X006686Y019313D01*
X006686Y019251D01*
X006748Y019190D01*
X006872Y019190D01*
X006933Y019128D01*
X006933Y019066D01*
X006872Y019005D01*
X006748Y019005D01*
X006686Y019066D01*
X004369Y019075D02*
X004122Y019075D01*
X004245Y019075D02*
X004245Y019445D01*
X004122Y019322D01*
X004000Y019260D02*
X003753Y019260D01*
X003938Y019445D01*
X003938Y019075D01*
X003632Y019075D02*
X003508Y019198D01*
X003570Y019198D02*
X003385Y019198D01*
X003385Y019075D02*
X003385Y019445D01*
X003570Y019445D01*
X003632Y019384D01*
X003632Y019260D01*
X003570Y019198D01*
X007840Y014927D02*
X007778Y014865D01*
X007778Y014803D01*
X007840Y014742D01*
X007964Y014742D01*
X008025Y014680D01*
X008025Y014618D01*
X007964Y014556D01*
X007840Y014556D01*
X007778Y014618D01*
X007840Y014927D02*
X007964Y014927D01*
X008025Y014865D01*
X008147Y014865D02*
X008208Y014927D01*
X008332Y014927D01*
X008394Y014865D01*
X008394Y014803D01*
X008332Y014742D01*
X008394Y014680D01*
X008394Y014618D01*
X008332Y014556D01*
X008208Y014556D01*
X008147Y014618D01*
X008270Y014742D02*
X008332Y014742D01*
X009321Y015639D02*
X009321Y015824D01*
X009383Y015885D01*
X009507Y015885D01*
X009568Y015824D01*
X009568Y015639D01*
X009568Y015762D02*
X009692Y015885D01*
X009692Y016007D02*
X009445Y016254D01*
X009383Y016254D01*
X009321Y016192D01*
X009321Y016069D01*
X009383Y016007D01*
X009321Y015639D02*
X009692Y015639D01*
X009692Y016007D02*
X009692Y016254D01*
X011595Y014805D02*
X011595Y014435D01*
X011595Y014558D02*
X011780Y014558D01*
X011842Y014620D01*
X011842Y014744D01*
X011780Y014805D01*
X011595Y014805D01*
X011718Y014558D02*
X011842Y014435D01*
X011963Y014497D02*
X012025Y014435D01*
X012148Y014435D01*
X012210Y014497D01*
X012210Y014558D01*
X012148Y014620D01*
X012087Y014620D01*
X012148Y014620D02*
X012210Y014682D01*
X012210Y014744D01*
X012148Y014805D01*
X012025Y014805D01*
X011963Y014744D01*
X012332Y014744D02*
X012332Y014497D01*
X012579Y014744D01*
X012579Y014497D01*
X012517Y014435D01*
X012393Y014435D01*
X012332Y014497D01*
X012332Y014744D02*
X012393Y014805D01*
X012517Y014805D01*
X012579Y014744D01*
X013515Y014734D02*
X013515Y014672D01*
X013577Y014610D01*
X013700Y014610D01*
X013762Y014548D01*
X013762Y014487D01*
X013700Y014425D01*
X013577Y014425D01*
X013515Y014487D01*
X013515Y014734D02*
X013577Y014795D01*
X013700Y014795D01*
X013762Y014734D01*
X013883Y014734D02*
X013945Y014795D01*
X014068Y014795D01*
X014130Y014734D01*
X014130Y014672D01*
X014068Y014610D01*
X014130Y014548D01*
X014130Y014487D01*
X014068Y014425D01*
X013945Y014425D01*
X013883Y014487D01*
X014007Y014610D02*
X014068Y014610D01*
X014252Y014487D02*
X014313Y014425D01*
X014437Y014425D01*
X014499Y014487D01*
X014499Y014734D01*
X014252Y014487D01*
X014252Y014734D01*
X014313Y014795D01*
X014437Y014795D01*
X014499Y014734D01*
X016896Y011564D02*
X016835Y011502D01*
X016835Y011378D01*
X016896Y011317D01*
X016958Y011317D01*
X017020Y011378D01*
X017020Y011564D01*
X017143Y011564D02*
X016896Y011564D01*
X017143Y011564D02*
X017205Y011502D01*
X017205Y011378D01*
X017143Y011317D01*
X017143Y011195D02*
X017082Y011195D01*
X017020Y011134D01*
X017020Y010948D01*
X017143Y010948D01*
X017205Y011010D01*
X017205Y011134D01*
X017143Y011195D01*
X016896Y011072D02*
X017020Y010948D01*
X017020Y010827D02*
X017082Y010765D01*
X017082Y010580D01*
X017205Y010580D02*
X016835Y010580D01*
X016835Y010765D01*
X016896Y010827D01*
X017020Y010827D01*
X017082Y010703D02*
X017205Y010827D01*
X016896Y011072D02*
X016835Y011195D01*
X016608Y009465D02*
X016423Y009280D01*
X016670Y009280D01*
X016608Y009095D02*
X016608Y009465D01*
X016302Y009404D02*
X016240Y009465D01*
X016117Y009465D01*
X016055Y009404D01*
X016055Y009157D01*
X016117Y009095D01*
X016240Y009095D01*
X016302Y009157D01*
X011999Y005305D02*
X011875Y005244D01*
X011752Y005120D01*
X011937Y005120D01*
X011999Y005058D01*
X011999Y004997D01*
X011937Y004935D01*
X011813Y004935D01*
X011752Y004997D01*
X011752Y005120D01*
X011630Y005182D02*
X011630Y005244D01*
X011568Y005305D01*
X011445Y005305D01*
X011383Y005244D01*
X011262Y005244D02*
X011200Y005305D01*
X011077Y005305D01*
X011015Y005244D01*
X011015Y005182D01*
X011077Y005120D01*
X011200Y005120D01*
X011262Y005058D01*
X011262Y004997D01*
X011200Y004935D01*
X011077Y004935D01*
X011015Y004997D01*
X011383Y004935D02*
X011630Y005182D01*
X011630Y004935D02*
X011383Y004935D01*
X010049Y004937D02*
X010049Y004998D01*
X009987Y005060D01*
X009802Y005060D01*
X009802Y004937D01*
X009863Y004875D01*
X009987Y004875D01*
X010049Y004937D01*
X009802Y005060D02*
X009925Y005184D01*
X010049Y005245D01*
X009680Y005184D02*
X009618Y005245D01*
X009495Y005245D01*
X009433Y005184D01*
X009312Y005184D02*
X009250Y005245D01*
X009065Y005245D01*
X009065Y004875D01*
X009065Y004998D02*
X009250Y004998D01*
X009312Y005060D01*
X009312Y005184D01*
X009188Y004998D02*
X009312Y004875D01*
X009433Y004875D02*
X009680Y005122D01*
X009680Y005184D01*
X009680Y004875D02*
X009433Y004875D01*
X007932Y003949D02*
X007870Y003949D01*
X007623Y004195D01*
X007562Y004195D01*
X007562Y003949D01*
X007623Y003827D02*
X007562Y003765D01*
X007562Y003580D01*
X007932Y003580D01*
X007808Y003580D02*
X007808Y003765D01*
X007747Y003827D01*
X007623Y003827D01*
X007808Y003704D02*
X007932Y003827D01*
X008988Y002894D02*
X009173Y002894D01*
X009235Y002832D01*
X009235Y002708D01*
X009173Y002647D01*
X008988Y002647D01*
X009111Y002647D02*
X009235Y002523D01*
X009356Y002585D02*
X009356Y002647D01*
X009418Y002708D01*
X009541Y002708D01*
X009603Y002647D01*
X009603Y002585D01*
X009541Y002523D01*
X009418Y002523D01*
X009356Y002585D01*
X009418Y002708D02*
X009356Y002770D01*
X009356Y002832D01*
X009418Y002894D01*
X009541Y002894D01*
X009603Y002832D01*
X009603Y002770D01*
X009541Y002708D01*
X009725Y002585D02*
X009971Y002832D01*
X009971Y002585D01*
X009910Y002523D01*
X009786Y002523D01*
X009725Y002585D01*
X009725Y002832D01*
X009786Y002894D01*
X009910Y002894D01*
X009971Y002832D01*
X010495Y002875D02*
X010495Y002505D01*
X010495Y002628D02*
X010680Y002628D01*
X010742Y002690D01*
X010742Y002814D01*
X010680Y002875D01*
X010495Y002875D01*
X010618Y002628D02*
X010742Y002505D01*
X010863Y002505D02*
X011110Y002752D01*
X011110Y002814D01*
X011048Y002875D01*
X010925Y002875D01*
X010863Y002814D01*
X010863Y002505D02*
X011110Y002505D01*
X011232Y002567D02*
X011293Y002505D01*
X011417Y002505D01*
X011479Y002567D01*
X011479Y002690D01*
X011417Y002752D01*
X011355Y002752D01*
X011232Y002690D01*
X011232Y002875D01*
X011479Y002875D01*
X008988Y002894D02*
X008988Y002523D01*
X007882Y002578D02*
X007821Y002516D01*
X007759Y002516D01*
X007697Y002578D01*
X007697Y002701D01*
X007759Y002763D01*
X007821Y002763D01*
X007882Y002701D01*
X007882Y002578D01*
X007882Y002395D02*
X007759Y002271D01*
X007759Y002333D02*
X007759Y002148D01*
X007882Y002148D02*
X007512Y002148D01*
X007512Y002333D01*
X007574Y002395D01*
X007697Y002395D01*
X007759Y002333D01*
X007636Y002516D02*
X007574Y002516D01*
X007512Y002578D01*
X007512Y002701D01*
X007574Y002763D01*
X007636Y002763D01*
X007697Y002701D01*
X007697Y002578D02*
X007636Y002516D01*
X006252Y002531D02*
X006252Y002470D01*
X006191Y002408D01*
X006067Y002408D01*
X006005Y002470D01*
X006005Y002531D01*
X006067Y002593D01*
X006191Y002593D01*
X006252Y002531D01*
X006191Y002593D02*
X006252Y002655D01*
X006252Y002717D01*
X006191Y002778D01*
X006067Y002778D01*
X006005Y002717D01*
X006005Y002655D01*
X006067Y002593D01*
X005884Y002531D02*
X005884Y002470D01*
X005822Y002408D01*
X005699Y002408D01*
X005637Y002470D01*
X005699Y002593D02*
X005822Y002593D01*
X005884Y002531D01*
X005884Y002717D02*
X005822Y002778D01*
X005699Y002778D01*
X005637Y002717D01*
X005637Y002655D01*
X005699Y002593D01*
X004119Y001786D02*
X004119Y001663D01*
X004057Y001601D01*
X003995Y001601D01*
X003934Y001663D01*
X003934Y001786D01*
X003995Y001848D01*
X004057Y001848D01*
X004119Y001786D01*
X003934Y001786D02*
X003872Y001848D01*
X003810Y001848D01*
X003749Y001786D01*
X003749Y001663D01*
X003810Y001601D01*
X003872Y001601D01*
X003934Y001663D01*
X003934Y001480D02*
X003934Y001233D01*
X003749Y001418D01*
X004119Y001418D01*
X004119Y001112D02*
X003995Y000988D01*
X003995Y001050D02*
X003995Y000865D01*
X004119Y000865D02*
X003749Y000865D01*
X003749Y001050D01*
X003810Y001112D01*
X003934Y001112D01*
X003995Y001050D01*
X002782Y003335D02*
X002658Y003335D01*
X002597Y003397D01*
X002475Y003397D02*
X002414Y003335D01*
X002290Y003335D01*
X002228Y003397D01*
X002228Y003644D01*
X002290Y003705D01*
X002414Y003705D01*
X002475Y003644D01*
X002597Y003705D02*
X002597Y003520D01*
X002720Y003582D01*
X002782Y003582D01*
X002844Y003520D01*
X002844Y003397D01*
X002782Y003335D01*
X002844Y003705D02*
X002597Y003705D01*
X001944Y004349D02*
X001821Y004349D01*
X001759Y004410D01*
X001882Y004534D02*
X001944Y004534D01*
X002006Y004472D01*
X002006Y004410D01*
X001944Y004349D01*
X001944Y004534D02*
X002006Y004596D01*
X002006Y004657D01*
X001944Y004719D01*
X001821Y004719D01*
X001759Y004657D01*
X001637Y004657D02*
X001391Y004410D01*
X001391Y004349D01*
X001269Y004349D02*
X001146Y004472D01*
X001207Y004472D02*
X001022Y004472D01*
X001022Y004349D02*
X001022Y004719D01*
X001207Y004719D01*
X001269Y004657D01*
X001269Y004534D01*
X001207Y004472D01*
X001391Y004719D02*
X001637Y004719D01*
X001637Y004657D01*
X003798Y004478D02*
X003798Y004231D01*
X003798Y004048D02*
X003983Y003863D01*
X003983Y004110D01*
X004106Y004231D02*
X004168Y004231D01*
X004106Y004231D02*
X003859Y004478D01*
X003798Y004478D01*
X003798Y004048D02*
X004168Y004048D01*
X004168Y003741D02*
X004044Y003618D01*
X004044Y003680D02*
X004044Y003495D01*
X004168Y003495D02*
X003798Y003495D01*
X003798Y003680D01*
X003859Y003741D01*
X003983Y003741D01*
X004044Y003680D01*
X005700Y004982D02*
X005761Y004920D01*
X005885Y004920D01*
X005947Y004982D01*
X005947Y005044D01*
X005885Y005105D01*
X005761Y005105D01*
X005700Y005167D01*
X005700Y005229D01*
X005761Y005291D01*
X005885Y005291D01*
X005947Y005229D01*
X006068Y005291D02*
X006315Y005291D01*
X006315Y005229D01*
X006068Y004982D01*
X006068Y004920D01*
X007600Y006020D02*
X007600Y006205D01*
X007662Y006267D01*
X007785Y006267D01*
X007847Y006205D01*
X007847Y006020D01*
X007970Y006020D02*
X007600Y006020D01*
X007785Y006388D02*
X007785Y006573D01*
X007847Y006635D01*
X007908Y006635D01*
X007970Y006573D01*
X007970Y006450D01*
X007908Y006388D01*
X007785Y006388D01*
X007662Y006512D01*
X007600Y006635D01*
X007970Y006267D02*
X007847Y006143D01*
X006300Y007432D02*
X006238Y007370D01*
X006115Y007370D01*
X006053Y007432D01*
X006053Y007555D01*
X006238Y007555D01*
X006300Y007493D01*
X006300Y007432D01*
X006177Y007678D02*
X006053Y007555D01*
X005932Y007493D02*
X005932Y007432D01*
X005870Y007370D01*
X005746Y007370D01*
X005685Y007432D01*
X005746Y007555D02*
X005870Y007555D01*
X005932Y007493D01*
X005932Y007678D02*
X005870Y007740D01*
X005746Y007740D01*
X005685Y007678D01*
X005685Y007617D01*
X005746Y007555D01*
X006177Y007678D02*
X006300Y007740D01*
X006819Y008452D02*
X006819Y008637D01*
X006880Y008699D01*
X007004Y008699D01*
X007066Y008637D01*
X007066Y008452D01*
X007189Y008452D02*
X006819Y008452D01*
X007066Y008575D02*
X007189Y008699D01*
X007127Y008820D02*
X007189Y008882D01*
X007189Y009005D01*
X007127Y009067D01*
X007004Y009067D01*
X006942Y009005D01*
X006942Y008944D01*
X007004Y008820D01*
X006819Y008820D01*
X006819Y009067D01*
X007965Y009765D02*
X007965Y010135D01*
X008150Y010135D01*
X008212Y010074D01*
X008212Y009950D01*
X008150Y009888D01*
X007965Y009888D01*
X008088Y009888D02*
X008212Y009765D01*
X008333Y009765D02*
X008580Y010012D01*
X008580Y010074D01*
X008518Y010135D01*
X008395Y010135D01*
X008333Y010074D01*
X008333Y009765D02*
X008580Y009765D01*
X008702Y009827D02*
X008702Y009888D01*
X008763Y009950D01*
X008887Y009950D01*
X008949Y009888D01*
X008949Y009827D01*
X008887Y009765D01*
X008763Y009765D01*
X008702Y009827D01*
X008763Y009950D02*
X008702Y010012D01*
X008702Y010074D01*
X008763Y010135D01*
X008887Y010135D01*
X008949Y010074D01*
X008949Y010012D01*
X008887Y009950D01*
X009070Y009827D02*
X009132Y009765D01*
X009255Y009765D01*
X009317Y009827D01*
X009317Y010074D01*
X009070Y009827D01*
X009070Y010074D01*
X009132Y010135D01*
X009255Y010135D01*
X009317Y010074D01*
X008267Y012144D02*
X008267Y012515D01*
X008081Y012329D01*
X008328Y012329D01*
X007960Y012268D02*
X007960Y012206D01*
X007898Y012144D01*
X007775Y012144D01*
X007713Y012206D01*
X007775Y012329D02*
X007898Y012329D01*
X007960Y012268D01*
X007960Y012453D02*
X007898Y012515D01*
X007775Y012515D01*
X007713Y012453D01*
X007713Y012391D01*
X007775Y012329D01*
X006425Y013082D02*
X006055Y013082D01*
X006055Y013267D01*
X006117Y013329D01*
X006240Y013329D01*
X006302Y013267D01*
X006302Y013082D01*
X006302Y013205D02*
X006425Y013329D01*
X006240Y013450D02*
X006240Y013697D01*
X006363Y013819D02*
X006425Y013880D01*
X006425Y014004D01*
X006363Y014066D01*
X006302Y014066D01*
X006240Y014004D01*
X006240Y013942D01*
X006240Y014004D02*
X006178Y014066D01*
X006117Y014066D01*
X006055Y014004D01*
X006055Y013880D01*
X006117Y013819D01*
X006055Y013635D02*
X006240Y013450D01*
X006425Y013635D02*
X006055Y013635D01*
X006179Y011638D02*
X006179Y011391D01*
X005994Y011576D01*
X006365Y011576D01*
X006179Y011269D02*
X006179Y011023D01*
X005994Y011208D01*
X006365Y011208D01*
X006365Y010901D02*
X006241Y010778D01*
X006241Y010839D02*
X006241Y010654D01*
X006365Y010654D02*
X005994Y010654D01*
X005994Y010839D01*
X006056Y010901D01*
X006179Y010901D01*
X006241Y010839D01*
X005469Y010152D02*
X005222Y010152D01*
X005222Y009967D01*
X005345Y010029D01*
X005407Y010029D01*
X005469Y009967D01*
X005469Y009844D01*
X005407Y009782D01*
X005284Y009782D01*
X005222Y009844D01*
X005101Y009844D02*
X005039Y009782D01*
X004915Y009782D01*
X004854Y009844D01*
X004915Y009967D02*
X005039Y009967D01*
X005101Y009905D01*
X005101Y009844D01*
X004915Y009967D02*
X004854Y010029D01*
X004854Y010091D01*
X004915Y010152D01*
X005039Y010152D01*
X005101Y010091D01*
X004430Y010455D02*
X004183Y010455D01*
X004307Y010455D02*
X004307Y010825D01*
X004183Y010702D01*
X004062Y010764D02*
X004000Y010825D01*
X003877Y010825D01*
X003815Y010764D01*
X003815Y010517D01*
X003877Y010455D01*
X004000Y010455D01*
X004062Y010517D01*
X003378Y009320D02*
X003440Y009258D01*
X003440Y009135D01*
X003378Y009073D01*
X003255Y009073D02*
X003193Y009196D01*
X003193Y009258D01*
X003255Y009320D01*
X003378Y009320D01*
X003255Y009073D02*
X003070Y009073D01*
X003070Y009320D01*
X003255Y008952D02*
X003255Y008705D01*
X003070Y008890D01*
X003440Y008890D01*
X003440Y008583D02*
X003317Y008460D01*
X003317Y008522D02*
X003317Y008336D01*
X003440Y008336D02*
X003070Y008336D01*
X003070Y008522D01*
X003131Y008583D01*
X003255Y008583D01*
X003317Y008522D01*
X003888Y006889D02*
X003949Y006766D01*
X004073Y006642D01*
X004073Y006827D01*
X004134Y006889D01*
X004196Y006889D01*
X004258Y006827D01*
X004258Y006704D01*
X004196Y006642D01*
X004073Y006642D01*
X004073Y006521D02*
X004073Y006274D01*
X003888Y006459D01*
X004258Y006459D01*
X004258Y006152D02*
X004134Y006029D01*
X004134Y006091D02*
X004134Y005905D01*
X004258Y005905D02*
X003888Y005905D01*
X003888Y006091D01*
X003949Y006152D01*
X004073Y006152D01*
X004134Y006091D01*
X009694Y013256D02*
X009694Y013442D01*
X009755Y013503D01*
X009879Y013503D01*
X009940Y013442D01*
X009940Y013256D01*
X010064Y013256D02*
X009694Y013256D01*
X009940Y013380D02*
X010064Y013503D01*
X010002Y013625D02*
X010064Y013686D01*
X010064Y013810D01*
X010002Y013872D01*
X009940Y013872D01*
X009879Y013810D01*
X009879Y013748D01*
X009879Y013810D02*
X009817Y013872D01*
X009755Y013872D01*
X009694Y013810D01*
X009694Y013686D01*
X009755Y013625D01*
D16*
X009263Y014391D02*
X009263Y012691D01*
X007763Y012691D01*
X007763Y014391D01*
X007913Y014391D01*
X007913Y012741D01*
X007848Y011979D02*
X007698Y011979D01*
X007698Y010279D01*
X009198Y010279D01*
X009198Y011979D01*
X007848Y011979D01*
X007848Y010329D01*
X007798Y011729D02*
X007800Y011753D01*
X007806Y011777D01*
X007815Y011799D01*
X007828Y011819D01*
X007844Y011837D01*
X007863Y011852D01*
X007884Y011865D01*
X007906Y011873D01*
X007930Y011878D01*
X007954Y011879D01*
X007978Y011876D01*
X008001Y011869D01*
X008023Y011859D01*
X008043Y011845D01*
X008060Y011828D01*
X008075Y011809D01*
X008086Y011788D01*
X008094Y011765D01*
X008098Y011741D01*
X008098Y011717D01*
X008094Y011693D01*
X008086Y011670D01*
X008075Y011649D01*
X008060Y011630D01*
X008043Y011613D01*
X008023Y011599D01*
X008001Y011589D01*
X007978Y011582D01*
X007954Y011579D01*
X007930Y011580D01*
X007906Y011585D01*
X007884Y011593D01*
X007863Y011606D01*
X007844Y011621D01*
X007828Y011639D01*
X007815Y011659D01*
X007806Y011681D01*
X007800Y011705D01*
X007798Y011729D01*
X006339Y009617D02*
X004989Y009617D01*
X004989Y007967D01*
X004839Y007917D02*
X006339Y007917D01*
X006339Y009617D01*
X004939Y009367D02*
X004941Y009391D01*
X004947Y009415D01*
X004956Y009437D01*
X004969Y009457D01*
X004985Y009475D01*
X005004Y009490D01*
X005025Y009503D01*
X005047Y009511D01*
X005071Y009516D01*
X005095Y009517D01*
X005119Y009514D01*
X005142Y009507D01*
X005164Y009497D01*
X005184Y009483D01*
X005201Y009466D01*
X005216Y009447D01*
X005227Y009426D01*
X005235Y009403D01*
X005239Y009379D01*
X005239Y009355D01*
X005235Y009331D01*
X005227Y009308D01*
X005216Y009287D01*
X005201Y009268D01*
X005184Y009251D01*
X005164Y009237D01*
X005142Y009227D01*
X005119Y009220D01*
X005095Y009217D01*
X005071Y009218D01*
X005047Y009223D01*
X005025Y009231D01*
X005004Y009244D01*
X004985Y009259D01*
X004969Y009277D01*
X004956Y009297D01*
X004947Y009319D01*
X004941Y009343D01*
X004939Y009367D01*
X004989Y009617D02*
X004839Y009617D01*
X004839Y007917D01*
X005670Y007205D02*
X005820Y007205D01*
X005820Y005555D01*
X005670Y005505D02*
X007170Y005505D01*
X007170Y007205D01*
X005820Y007205D01*
X005670Y007205D02*
X005670Y005505D01*
X005685Y004755D02*
X005835Y004755D01*
X005835Y003105D01*
X005685Y003055D02*
X007185Y003055D01*
X007185Y004755D01*
X005835Y004755D01*
X005685Y004755D02*
X005685Y003055D01*
X005622Y002243D02*
X005772Y002243D01*
X005772Y000593D01*
X005622Y000543D02*
X007122Y000543D01*
X007122Y002243D01*
X005772Y002243D01*
X005622Y002243D02*
X005622Y000543D01*
X005722Y001993D02*
X005724Y002017D01*
X005730Y002041D01*
X005739Y002063D01*
X005752Y002083D01*
X005768Y002101D01*
X005787Y002116D01*
X005808Y002129D01*
X005830Y002137D01*
X005854Y002142D01*
X005878Y002143D01*
X005902Y002140D01*
X005925Y002133D01*
X005947Y002123D01*
X005967Y002109D01*
X005984Y002092D01*
X005999Y002073D01*
X006010Y002052D01*
X006018Y002029D01*
X006022Y002005D01*
X006022Y001981D01*
X006018Y001957D01*
X006010Y001934D01*
X005999Y001913D01*
X005984Y001894D01*
X005967Y001877D01*
X005947Y001863D01*
X005925Y001853D01*
X005902Y001846D01*
X005878Y001843D01*
X005854Y001844D01*
X005830Y001849D01*
X005808Y001857D01*
X005787Y001870D01*
X005768Y001885D01*
X005752Y001903D01*
X005739Y001923D01*
X005730Y001945D01*
X005724Y001969D01*
X005722Y001993D01*
X005785Y004505D02*
X005787Y004529D01*
X005793Y004553D01*
X005802Y004575D01*
X005815Y004595D01*
X005831Y004613D01*
X005850Y004628D01*
X005871Y004641D01*
X005893Y004649D01*
X005917Y004654D01*
X005941Y004655D01*
X005965Y004652D01*
X005988Y004645D01*
X006010Y004635D01*
X006030Y004621D01*
X006047Y004604D01*
X006062Y004585D01*
X006073Y004564D01*
X006081Y004541D01*
X006085Y004517D01*
X006085Y004493D01*
X006081Y004469D01*
X006073Y004446D01*
X006062Y004425D01*
X006047Y004406D01*
X006030Y004389D01*
X006010Y004375D01*
X005988Y004365D01*
X005965Y004358D01*
X005941Y004355D01*
X005917Y004356D01*
X005893Y004361D01*
X005871Y004369D01*
X005850Y004382D01*
X005831Y004397D01*
X005815Y004415D01*
X005802Y004435D01*
X005793Y004457D01*
X005787Y004481D01*
X005785Y004505D01*
X005770Y006955D02*
X005772Y006979D01*
X005778Y007003D01*
X005787Y007025D01*
X005800Y007045D01*
X005816Y007063D01*
X005835Y007078D01*
X005856Y007091D01*
X005878Y007099D01*
X005902Y007104D01*
X005926Y007105D01*
X005950Y007102D01*
X005973Y007095D01*
X005995Y007085D01*
X006015Y007071D01*
X006032Y007054D01*
X006047Y007035D01*
X006058Y007014D01*
X006066Y006991D01*
X006070Y006967D01*
X006070Y006943D01*
X006066Y006919D01*
X006058Y006896D01*
X006047Y006875D01*
X006032Y006856D01*
X006015Y006839D01*
X005995Y006825D01*
X005973Y006815D01*
X005950Y006808D01*
X005926Y006805D01*
X005902Y006806D01*
X005878Y006811D01*
X005856Y006819D01*
X005835Y006832D01*
X005816Y006847D01*
X005800Y006865D01*
X005787Y006885D01*
X005778Y006907D01*
X005772Y006931D01*
X005770Y006955D01*
X010580Y007330D02*
X010580Y005630D01*
X011930Y005630D01*
X011930Y007280D01*
X012080Y007330D02*
X010580Y007330D01*
X010730Y008030D02*
X012080Y008030D01*
X012080Y009680D01*
X012230Y009730D02*
X010730Y009730D01*
X010730Y008030D01*
X011830Y008280D02*
X011832Y008304D01*
X011838Y008328D01*
X011847Y008350D01*
X011860Y008370D01*
X011876Y008388D01*
X011895Y008403D01*
X011916Y008416D01*
X011938Y008424D01*
X011962Y008429D01*
X011986Y008430D01*
X012010Y008427D01*
X012033Y008420D01*
X012055Y008410D01*
X012075Y008396D01*
X012092Y008379D01*
X012107Y008360D01*
X012118Y008339D01*
X012126Y008316D01*
X012130Y008292D01*
X012130Y008268D01*
X012126Y008244D01*
X012118Y008221D01*
X012107Y008200D01*
X012092Y008181D01*
X012075Y008164D01*
X012055Y008150D01*
X012033Y008140D01*
X012010Y008133D01*
X011986Y008130D01*
X011962Y008131D01*
X011938Y008136D01*
X011916Y008144D01*
X011895Y008157D01*
X011876Y008172D01*
X011860Y008190D01*
X011847Y008210D01*
X011838Y008232D01*
X011832Y008256D01*
X011830Y008280D01*
X012080Y008030D02*
X012230Y008030D01*
X012230Y009730D01*
X013930Y010230D02*
X015280Y010230D01*
X015280Y011880D01*
X015430Y011930D02*
X013930Y011930D01*
X013930Y010230D01*
X015030Y010480D02*
X015032Y010504D01*
X015038Y010528D01*
X015047Y010550D01*
X015060Y010570D01*
X015076Y010588D01*
X015095Y010603D01*
X015116Y010616D01*
X015138Y010624D01*
X015162Y010629D01*
X015186Y010630D01*
X015210Y010627D01*
X015233Y010620D01*
X015255Y010610D01*
X015275Y010596D01*
X015292Y010579D01*
X015307Y010560D01*
X015318Y010539D01*
X015326Y010516D01*
X015330Y010492D01*
X015330Y010468D01*
X015326Y010444D01*
X015318Y010421D01*
X015307Y010400D01*
X015292Y010381D01*
X015275Y010364D01*
X015255Y010350D01*
X015233Y010340D01*
X015210Y010333D01*
X015186Y010330D01*
X015162Y010331D01*
X015138Y010336D01*
X015116Y010344D01*
X015095Y010357D01*
X015076Y010372D01*
X015060Y010390D01*
X015047Y010410D01*
X015038Y010432D01*
X015032Y010456D01*
X015030Y010480D01*
X015280Y010230D02*
X015430Y010230D01*
X015430Y011930D01*
X014780Y012580D02*
X014630Y012580D01*
X014630Y014230D01*
X014780Y014280D02*
X013280Y014280D01*
X013280Y012580D01*
X014630Y012580D01*
X014780Y012580D02*
X014780Y014280D01*
X014180Y014980D02*
X014030Y014980D01*
X014030Y016630D01*
X014180Y016680D02*
X012680Y016680D01*
X012680Y014980D01*
X014030Y014980D01*
X014180Y014980D02*
X014180Y016680D01*
X014080Y017380D02*
X013930Y017380D01*
X013930Y019030D01*
X014080Y019080D02*
X012580Y019080D01*
X012580Y017380D01*
X013930Y017380D01*
X014080Y017380D02*
X014080Y019080D01*
X013680Y017630D02*
X013682Y017654D01*
X013688Y017678D01*
X013697Y017700D01*
X013710Y017720D01*
X013726Y017738D01*
X013745Y017753D01*
X013766Y017766D01*
X013788Y017774D01*
X013812Y017779D01*
X013836Y017780D01*
X013860Y017777D01*
X013883Y017770D01*
X013905Y017760D01*
X013925Y017746D01*
X013942Y017729D01*
X013957Y017710D01*
X013968Y017689D01*
X013976Y017666D01*
X013980Y017642D01*
X013980Y017618D01*
X013976Y017594D01*
X013968Y017571D01*
X013957Y017550D01*
X013942Y017531D01*
X013925Y017514D01*
X013905Y017500D01*
X013883Y017490D01*
X013860Y017483D01*
X013836Y017480D01*
X013812Y017481D01*
X013788Y017486D01*
X013766Y017494D01*
X013745Y017507D01*
X013726Y017522D01*
X013710Y017540D01*
X013697Y017560D01*
X013688Y017582D01*
X013682Y017606D01*
X013680Y017630D01*
X013780Y015230D02*
X013782Y015254D01*
X013788Y015278D01*
X013797Y015300D01*
X013810Y015320D01*
X013826Y015338D01*
X013845Y015353D01*
X013866Y015366D01*
X013888Y015374D01*
X013912Y015379D01*
X013936Y015380D01*
X013960Y015377D01*
X013983Y015370D01*
X014005Y015360D01*
X014025Y015346D01*
X014042Y015329D01*
X014057Y015310D01*
X014068Y015289D01*
X014076Y015266D01*
X014080Y015242D01*
X014080Y015218D01*
X014076Y015194D01*
X014068Y015171D01*
X014057Y015150D01*
X014042Y015131D01*
X014025Y015114D01*
X014005Y015100D01*
X013983Y015090D01*
X013960Y015083D01*
X013936Y015080D01*
X013912Y015081D01*
X013888Y015086D01*
X013866Y015094D01*
X013845Y015107D01*
X013826Y015122D01*
X013810Y015140D01*
X013797Y015160D01*
X013788Y015182D01*
X013782Y015206D01*
X013780Y015230D01*
X014380Y012830D02*
X014382Y012854D01*
X014388Y012878D01*
X014397Y012900D01*
X014410Y012920D01*
X014426Y012938D01*
X014445Y012953D01*
X014466Y012966D01*
X014488Y012974D01*
X014512Y012979D01*
X014536Y012980D01*
X014560Y012977D01*
X014583Y012970D01*
X014605Y012960D01*
X014625Y012946D01*
X014642Y012929D01*
X014657Y012910D01*
X014668Y012889D01*
X014676Y012866D01*
X014680Y012842D01*
X014680Y012818D01*
X014676Y012794D01*
X014668Y012771D01*
X014657Y012750D01*
X014642Y012731D01*
X014625Y012714D01*
X014605Y012700D01*
X014583Y012690D01*
X014560Y012683D01*
X014536Y012680D01*
X014512Y012681D01*
X014488Y012686D01*
X014466Y012694D01*
X014445Y012707D01*
X014426Y012722D01*
X014410Y012740D01*
X014397Y012760D01*
X014388Y012782D01*
X014382Y012806D01*
X014380Y012830D01*
X009263Y014391D02*
X007913Y014391D01*
X007863Y014141D02*
X007865Y014165D01*
X007871Y014189D01*
X007880Y014211D01*
X007893Y014231D01*
X007909Y014249D01*
X007928Y014264D01*
X007949Y014277D01*
X007971Y014285D01*
X007995Y014290D01*
X008019Y014291D01*
X008043Y014288D01*
X008066Y014281D01*
X008088Y014271D01*
X008108Y014257D01*
X008125Y014240D01*
X008140Y014221D01*
X008151Y014200D01*
X008159Y014177D01*
X008163Y014153D01*
X008163Y014129D01*
X008159Y014105D01*
X008151Y014082D01*
X008140Y014061D01*
X008125Y014042D01*
X008108Y014025D01*
X008088Y014011D01*
X008066Y014001D01*
X008043Y013994D01*
X008019Y013991D01*
X007995Y013992D01*
X007971Y013997D01*
X007949Y014005D01*
X007928Y014018D01*
X007909Y014033D01*
X007893Y014051D01*
X007880Y014071D01*
X007871Y014093D01*
X007865Y014117D01*
X007863Y014141D01*
X007341Y015150D02*
X007341Y016800D01*
X007191Y016800D01*
X007191Y015100D01*
X008691Y015100D01*
X008691Y016800D01*
X007341Y016800D01*
X007291Y016550D02*
X007293Y016574D01*
X007299Y016598D01*
X007308Y016620D01*
X007321Y016640D01*
X007337Y016658D01*
X007356Y016673D01*
X007377Y016686D01*
X007399Y016694D01*
X007423Y016699D01*
X007447Y016700D01*
X007471Y016697D01*
X007494Y016690D01*
X007516Y016680D01*
X007536Y016666D01*
X007553Y016649D01*
X007568Y016630D01*
X007579Y016609D01*
X007587Y016586D01*
X007591Y016562D01*
X007591Y016538D01*
X007587Y016514D01*
X007579Y016491D01*
X007568Y016470D01*
X007553Y016451D01*
X007536Y016434D01*
X007516Y016420D01*
X007494Y016410D01*
X007471Y016403D01*
X007447Y016400D01*
X007423Y016401D01*
X007399Y016406D01*
X007377Y016414D01*
X007356Y016427D01*
X007337Y016442D01*
X007321Y016460D01*
X007308Y016480D01*
X007299Y016502D01*
X007293Y016526D01*
X007291Y016550D01*
X006491Y017460D02*
X006491Y019160D01*
X005141Y019160D01*
X005141Y017510D01*
X004991Y017460D02*
X006491Y017460D01*
X005091Y018910D02*
X005093Y018934D01*
X005099Y018958D01*
X005108Y018980D01*
X005121Y019000D01*
X005137Y019018D01*
X005156Y019033D01*
X005177Y019046D01*
X005199Y019054D01*
X005223Y019059D01*
X005247Y019060D01*
X005271Y019057D01*
X005294Y019050D01*
X005316Y019040D01*
X005336Y019026D01*
X005353Y019009D01*
X005368Y018990D01*
X005379Y018969D01*
X005387Y018946D01*
X005391Y018922D01*
X005391Y018898D01*
X005387Y018874D01*
X005379Y018851D01*
X005368Y018830D01*
X005353Y018811D01*
X005336Y018794D01*
X005316Y018780D01*
X005294Y018770D01*
X005271Y018763D01*
X005247Y018760D01*
X005223Y018761D01*
X005199Y018766D01*
X005177Y018774D01*
X005156Y018787D01*
X005137Y018802D01*
X005121Y018820D01*
X005108Y018840D01*
X005099Y018862D01*
X005093Y018886D01*
X005091Y018910D01*
X005141Y019160D02*
X004991Y019160D01*
X004991Y017460D01*
X012080Y007330D02*
X012080Y005630D01*
X011930Y005630D01*
X011680Y005880D02*
X011682Y005904D01*
X011688Y005928D01*
X011697Y005950D01*
X011710Y005970D01*
X011726Y005988D01*
X011745Y006003D01*
X011766Y006016D01*
X011788Y006024D01*
X011812Y006029D01*
X011836Y006030D01*
X011860Y006027D01*
X011883Y006020D01*
X011905Y006010D01*
X011925Y005996D01*
X011942Y005979D01*
X011957Y005960D01*
X011968Y005939D01*
X011976Y005916D01*
X011980Y005892D01*
X011980Y005868D01*
X011976Y005844D01*
X011968Y005821D01*
X011957Y005800D01*
X011942Y005781D01*
X011925Y005764D01*
X011905Y005750D01*
X011883Y005740D01*
X011860Y005733D01*
X011836Y005730D01*
X011812Y005731D01*
X011788Y005736D01*
X011766Y005744D01*
X011745Y005757D01*
X011726Y005772D01*
X011710Y005790D01*
X011697Y005810D01*
X011688Y005832D01*
X011682Y005856D01*
X011680Y005880D01*
X012080Y004730D02*
X010580Y004730D01*
X010580Y003030D01*
X011930Y003030D01*
X011930Y004680D01*
X012080Y004730D02*
X012080Y003030D01*
X011930Y003030D01*
X011680Y003280D02*
X011682Y003304D01*
X011688Y003328D01*
X011697Y003350D01*
X011710Y003370D01*
X011726Y003388D01*
X011745Y003403D01*
X011766Y003416D01*
X011788Y003424D01*
X011812Y003429D01*
X011836Y003430D01*
X011860Y003427D01*
X011883Y003420D01*
X011905Y003410D01*
X011925Y003396D01*
X011942Y003379D01*
X011957Y003360D01*
X011968Y003339D01*
X011976Y003316D01*
X011980Y003292D01*
X011980Y003268D01*
X011976Y003244D01*
X011968Y003221D01*
X011957Y003200D01*
X011942Y003181D01*
X011925Y003164D01*
X011905Y003150D01*
X011883Y003140D01*
X011860Y003133D01*
X011836Y003130D01*
X011812Y003131D01*
X011788Y003136D01*
X011766Y003144D01*
X011745Y003157D01*
X011726Y003172D01*
X011710Y003190D01*
X011697Y003210D01*
X011688Y003232D01*
X011682Y003256D01*
X011680Y003280D01*
X011930Y002330D02*
X011930Y000630D01*
X013280Y000630D01*
X013280Y002280D01*
X013430Y002330D02*
X011930Y002330D01*
X013430Y002330D02*
X013430Y000630D01*
X013280Y000630D01*
X013030Y000880D02*
X013032Y000904D01*
X013038Y000928D01*
X013047Y000950D01*
X013060Y000970D01*
X013076Y000988D01*
X013095Y001003D01*
X013116Y001016D01*
X013138Y001024D01*
X013162Y001029D01*
X013186Y001030D01*
X013210Y001027D01*
X013233Y001020D01*
X013255Y001010D01*
X013275Y000996D01*
X013292Y000979D01*
X013307Y000960D01*
X013318Y000939D01*
X013326Y000916D01*
X013330Y000892D01*
X013330Y000868D01*
X013326Y000844D01*
X013318Y000821D01*
X013307Y000800D01*
X013292Y000781D01*
X013275Y000764D01*
X013255Y000750D01*
X013233Y000740D01*
X013210Y000733D01*
X013186Y000730D01*
X013162Y000731D01*
X013138Y000736D01*
X013116Y000744D01*
X013095Y000757D01*
X013076Y000772D01*
X013060Y000790D01*
X013047Y000810D01*
X013038Y000832D01*
X013032Y000856D01*
X013030Y000880D01*
D17*
X014480Y001480D03*
X013130Y003880D03*
X013130Y006430D03*
X013280Y008880D03*
X016480Y011080D03*
X015830Y013430D03*
X015430Y015780D03*
X015180Y018230D03*
X006740Y013543D03*
X006680Y011131D03*
X003765Y008769D03*
X004587Y006360D03*
X004523Y003910D03*
X004446Y001360D03*
X003880Y018280D03*
D18*
X005705Y016409D03*
X001557Y004034D03*
D19*
X003069Y004610D03*
D20*
X001861Y005245D02*
X001861Y005745D01*
X001611Y005995D01*
X001861Y006245D01*
X001861Y006745D01*
X001611Y006995D01*
X001861Y007245D01*
X001861Y007745D01*
X001611Y007995D01*
X001861Y008245D01*
X001861Y008745D01*
X001611Y008995D01*
X001861Y009245D01*
X001861Y009745D01*
X001611Y009995D01*
X001861Y010245D01*
X001861Y010745D01*
X001611Y010995D01*
X001861Y011245D01*
X001861Y011745D01*
X001611Y011995D01*
X001861Y012245D01*
X001861Y012745D01*
X001611Y012995D01*
X001861Y013245D01*
X001861Y013745D01*
X001611Y013995D01*
X001861Y014245D01*
X001861Y014745D01*
X001611Y014995D01*
X001111Y014995D01*
X000861Y014745D01*
X000861Y014245D01*
X001111Y013995D01*
X000861Y013745D01*
X000861Y013245D01*
X001111Y012995D01*
X000861Y012745D01*
X000861Y012245D01*
X001111Y011995D01*
X000861Y011745D01*
X000861Y011245D01*
X001111Y010995D01*
X000861Y010745D01*
X000861Y010245D01*
X001111Y009995D01*
X000861Y009745D01*
X000861Y009245D01*
X001111Y008995D01*
X000861Y008745D01*
X000861Y008245D01*
X001111Y007995D01*
X000861Y007745D01*
X000861Y007245D01*
X001111Y006995D01*
X000861Y006745D01*
X000861Y006245D01*
X001111Y005995D01*
X000861Y005745D01*
X000861Y005245D01*
X001111Y004995D01*
X001611Y004995D01*
X001861Y005245D01*
X018184Y005300D02*
X018184Y005800D01*
X018434Y006050D01*
X018184Y006300D01*
X018184Y006800D01*
X018434Y007050D01*
X018184Y007300D01*
X018184Y007800D01*
X018434Y008050D01*
X018184Y008300D01*
X018184Y008800D01*
X018434Y009050D01*
X018184Y009300D01*
X018184Y009800D01*
X018434Y010050D01*
X018184Y010300D01*
X018184Y010800D01*
X018434Y011050D01*
X018184Y011300D01*
X018184Y011800D01*
X018434Y012050D01*
X018184Y012300D01*
X018184Y012800D01*
X018434Y013050D01*
X018184Y013300D01*
X018184Y013800D01*
X018434Y014050D01*
X018184Y014300D01*
X018184Y014800D01*
X018434Y015050D01*
X018934Y015050D01*
X019184Y014800D01*
X019184Y014300D01*
X018934Y014050D01*
X019184Y013800D01*
X019184Y013300D01*
X018934Y013050D01*
X019184Y012800D01*
X019184Y012300D01*
X018934Y012050D01*
X019184Y011800D01*
X019184Y011300D01*
X018934Y011050D01*
X019184Y010800D01*
X019184Y010300D01*
X018934Y010050D01*
X019184Y009800D01*
X019184Y009300D01*
X018934Y009050D01*
X019184Y008800D01*
X019184Y008300D01*
X018934Y008050D01*
X019184Y007800D01*
X019184Y007300D01*
X018934Y007050D01*
X019184Y006800D01*
X019184Y006300D01*
X018934Y006050D01*
X019184Y005800D01*
X019184Y005300D01*
X018934Y005050D01*
X018434Y005050D01*
X018184Y005300D01*
D21*
X015930Y008768D02*
X015930Y008792D01*
X004030Y011168D02*
X004030Y011192D01*
X002880Y004032D02*
X002880Y004008D01*
M02*
