G75*
G70*
%OFA0B0*%
%FSLAX24Y24*%
%IPPOS*%
%LPD*%
%AMOC8*
5,1,8,0,0,1.08239X$1,22.5*
%
%ADD10C,0.0080*%
%ADD11R,0.0800X0.0260*%
%ADD12R,0.0709X0.0630*%
%ADD13R,0.0512X0.0217*%
%ADD14R,0.0394X0.0433*%
%ADD15R,0.0433X0.0394*%
%ADD16C,0.0740*%
%ADD17C,0.0436*%
%ADD18C,0.0120*%
%ADD19C,0.0200*%
D10*
X002429Y002457D02*
X004020Y002457D01*
X004020Y002535D02*
X002350Y002535D01*
X002270Y002614D02*
X004020Y002614D01*
X004020Y002692D02*
X002191Y002692D01*
X002111Y002771D02*
X004020Y002771D01*
X004020Y002849D02*
X002032Y002849D01*
X001952Y002928D02*
X004020Y002928D01*
X004020Y003006D02*
X001873Y003006D01*
X001793Y003085D02*
X004020Y003085D01*
X004020Y003163D02*
X001714Y003163D01*
X001635Y003242D02*
X004020Y003242D01*
X004020Y003320D02*
X001555Y003320D01*
X001476Y003399D02*
X004020Y003399D01*
X004020Y003477D02*
X001396Y003477D01*
X001317Y003556D02*
X004020Y003556D01*
X004020Y003634D02*
X001237Y003634D01*
X001158Y003713D02*
X004020Y003713D01*
X004020Y003791D02*
X001078Y003791D01*
X000999Y003870D02*
X004020Y003870D01*
X004020Y003948D02*
X000920Y003948D01*
X000860Y004007D02*
X000860Y009399D01*
X000864Y009376D01*
X000888Y009299D01*
X000925Y009228D01*
X000972Y009163D01*
X001029Y009106D01*
X001094Y009059D01*
X001165Y009022D01*
X001242Y008998D01*
X001321Y008985D01*
X001321Y008985D01*
X001321Y009455D01*
X001401Y009455D01*
X001401Y008985D01*
X001401Y008985D01*
X001481Y008998D01*
X001557Y009022D01*
X001628Y009059D01*
X001693Y009106D01*
X001750Y009163D01*
X001797Y009228D01*
X001834Y009299D01*
X001859Y009376D01*
X001871Y009455D01*
X001401Y009455D01*
X001401Y009535D01*
X001871Y009535D01*
X001871Y009535D01*
X001859Y009614D01*
X001834Y009691D01*
X001797Y009762D01*
X001750Y009827D01*
X001747Y009830D01*
X001776Y009830D01*
X002126Y010180D01*
X002220Y010274D01*
X002220Y011714D01*
X002347Y011841D01*
X002415Y011773D01*
X003315Y011773D01*
X003385Y011843D01*
X003385Y012203D01*
X003315Y012273D01*
X003385Y012343D01*
X003385Y012363D01*
X003429Y012363D01*
X003646Y012580D01*
X003740Y012674D01*
X003740Y014481D01*
X003771Y014494D01*
X003866Y014589D01*
X003918Y014713D01*
X003918Y014847D01*
X003866Y014971D01*
X003771Y015066D01*
X003690Y015100D01*
X004126Y015100D01*
X004806Y015780D01*
X004900Y015874D01*
X004900Y017113D01*
X004412Y017601D01*
X004983Y017601D01*
X005053Y017672D01*
X005053Y017988D01*
X004983Y018058D01*
X004857Y018058D01*
X004857Y018207D01*
X004483Y018581D01*
X004663Y018581D01*
X004663Y018816D01*
X004281Y018816D01*
X004281Y018760D01*
X004183Y018760D01*
X004183Y018856D01*
X004113Y018926D01*
X003620Y018926D01*
X003549Y018856D01*
X003549Y018324D01*
X003618Y018255D01*
X003549Y018187D01*
X003549Y017654D01*
X003620Y017584D01*
X003976Y017584D01*
X004580Y016980D01*
X004580Y016626D01*
X004567Y016639D01*
X004535Y016657D01*
X004500Y016667D01*
X004305Y016667D01*
X004305Y016370D01*
X004225Y016370D01*
X004225Y016667D01*
X004030Y016667D01*
X003994Y016657D01*
X003962Y016639D01*
X003936Y016613D01*
X003921Y016587D01*
X003862Y016647D01*
X003329Y016647D01*
X003259Y016577D01*
X003259Y016510D01*
X003175Y016510D01*
X002825Y016160D01*
X002720Y016055D01*
X002720Y015773D01*
X002602Y015773D01*
X002320Y016055D01*
X002215Y016160D01*
X001265Y016160D01*
X000620Y015515D01*
X000620Y017884D01*
X000692Y017812D01*
X000940Y017668D01*
X001218Y017594D01*
X001505Y017594D01*
X001782Y017668D01*
X002030Y017812D01*
X002233Y018015D01*
X002377Y018263D01*
X002451Y018540D01*
X002451Y018827D01*
X002377Y019105D01*
X002233Y019353D01*
X002161Y019425D01*
X003399Y019425D01*
X002540Y018566D01*
X002540Y017639D01*
X002509Y017626D01*
X002414Y017531D01*
X002362Y017407D01*
X002362Y017273D01*
X002414Y017149D01*
X002509Y017054D01*
X002633Y017002D01*
X002767Y017002D01*
X002891Y017054D01*
X002986Y017149D01*
X003038Y017273D01*
X003038Y017407D01*
X002986Y017531D01*
X002891Y017626D01*
X002860Y017639D01*
X002860Y018434D01*
X003686Y019260D01*
X005692Y019260D01*
X005692Y018093D01*
X007057Y016728D01*
X006892Y016728D01*
X006892Y016494D01*
X007273Y016494D01*
X007273Y016512D01*
X008251Y015534D01*
X008251Y011007D01*
X007753Y010509D01*
X007753Y010788D01*
X007683Y010858D01*
X007072Y010858D01*
X007035Y010822D01*
X007035Y011048D01*
X006967Y011116D01*
X007035Y011185D01*
X007035Y011410D01*
X007036Y011409D01*
X007067Y011391D01*
X007103Y011381D01*
X007363Y011381D01*
X007363Y011616D01*
X007392Y011616D01*
X007392Y011644D01*
X007773Y011644D01*
X007773Y011757D01*
X007764Y011793D01*
X007746Y011824D01*
X007719Y011851D01*
X007688Y011869D01*
X007652Y011878D01*
X007392Y011878D01*
X007392Y011644D01*
X007363Y011644D01*
X007363Y011878D01*
X007103Y011878D01*
X007067Y011869D01*
X007036Y011851D01*
X007009Y011824D01*
X006991Y011793D01*
X006984Y011768D01*
X006965Y011787D01*
X006860Y011787D01*
X006860Y012046D01*
X006766Y012140D01*
X006500Y012406D01*
X006500Y012858D01*
X006962Y012858D01*
X007004Y012900D01*
X007073Y012900D01*
X007122Y012851D01*
X007733Y012851D01*
X007803Y012922D01*
X007803Y013238D01*
X007733Y013308D01*
X007122Y013308D01*
X007073Y013260D01*
X007033Y013260D01*
X007033Y013461D01*
X006964Y013529D01*
X007033Y013598D01*
X007033Y013949D01*
X007041Y013917D01*
X007059Y013886D01*
X007086Y013859D01*
X007117Y013841D01*
X007153Y013831D01*
X007413Y013831D01*
X007413Y014066D01*
X007442Y014066D01*
X007442Y014094D01*
X007823Y014094D01*
X007823Y014207D01*
X007814Y014243D01*
X007796Y014274D01*
X007769Y014301D01*
X007738Y014319D01*
X007702Y014328D01*
X007442Y014328D01*
X007442Y014094D01*
X007413Y014094D01*
X007413Y014328D01*
X007153Y014328D01*
X007117Y014319D01*
X007086Y014301D01*
X007059Y014274D01*
X007041Y014243D01*
X007031Y014207D01*
X007031Y014131D01*
X006962Y014200D01*
X006860Y014200D01*
X006860Y014766D01*
X006766Y014860D01*
X006443Y015183D01*
X005805Y015183D01*
X005805Y015203D01*
X005735Y015273D01*
X005805Y015343D01*
X005805Y015703D01*
X005735Y015773D01*
X005445Y015773D01*
X005445Y016087D01*
X005649Y016087D01*
X005717Y016155D01*
X005785Y016087D01*
X005900Y016087D01*
X005900Y016055D01*
X006005Y015950D01*
X006501Y015454D01*
X006501Y015322D01*
X006572Y015251D01*
X007183Y015251D01*
X007253Y015322D01*
X007253Y015638D01*
X007183Y015708D01*
X006756Y015708D01*
X006348Y016117D01*
X006388Y016157D01*
X006388Y016650D01*
X006318Y016720D01*
X005785Y016720D01*
X005717Y016652D01*
X005649Y016720D01*
X005116Y016720D01*
X005046Y016650D01*
X005046Y016157D01*
X005116Y016087D01*
X005125Y016087D01*
X005125Y015773D01*
X004835Y015773D01*
X004765Y015703D01*
X004765Y015343D01*
X004835Y015273D01*
X005735Y015273D01*
X004835Y015273D01*
X004765Y015203D01*
X004765Y014843D01*
X004835Y014773D01*
X004765Y014703D01*
X004765Y014343D01*
X004835Y014273D01*
X004765Y014203D01*
X004765Y013843D01*
X004835Y013773D01*
X004765Y013703D01*
X004765Y013343D01*
X004835Y013273D01*
X004765Y013203D01*
X004765Y012843D01*
X004835Y012773D01*
X004765Y012703D01*
X004765Y012683D01*
X004297Y012683D01*
X003754Y012140D01*
X003660Y012046D01*
X003660Y010726D01*
X002914Y009980D01*
X002820Y009886D01*
X002820Y006154D01*
X004020Y004954D01*
X004020Y001948D01*
X004163Y001805D01*
X004163Y001448D01*
X004232Y001380D01*
X004163Y001312D01*
X004163Y000780D01*
X004126Y000780D01*
X000860Y004007D01*
X000860Y004027D02*
X004020Y004027D01*
X004020Y004105D02*
X000860Y004105D01*
X000860Y004184D02*
X004020Y004184D01*
X004020Y004262D02*
X000860Y004262D01*
X000860Y004341D02*
X004020Y004341D01*
X004020Y004419D02*
X000860Y004419D01*
X000860Y004498D02*
X004020Y004498D01*
X004020Y004576D02*
X000860Y004576D01*
X000860Y004655D02*
X004020Y004655D01*
X004020Y004733D02*
X000860Y004733D01*
X000860Y004812D02*
X004020Y004812D01*
X004020Y004890D02*
X000860Y004890D01*
X000860Y004969D02*
X004005Y004969D01*
X003927Y005047D02*
X001560Y005047D01*
X001639Y005080D02*
X001459Y005005D01*
X001264Y005005D01*
X001084Y005080D01*
X000946Y005217D01*
X000871Y005397D01*
X000871Y005592D01*
X000946Y005773D01*
X001084Y005910D01*
X001084Y005911D02*
X000860Y005911D01*
X000860Y005989D02*
X002985Y005989D01*
X003063Y005911D02*
X001638Y005911D01*
X001639Y005910D02*
X001459Y005985D01*
X001264Y005985D01*
X001084Y005910D01*
X001005Y005832D02*
X000860Y005832D01*
X000860Y005754D02*
X000938Y005754D01*
X000905Y005675D02*
X000860Y005675D01*
X000860Y005597D02*
X000873Y005597D01*
X000871Y005518D02*
X000860Y005518D01*
X000860Y005440D02*
X000871Y005440D01*
X000860Y005361D02*
X000886Y005361D01*
X000860Y005283D02*
X000919Y005283D01*
X000959Y005204D02*
X000860Y005204D01*
X000860Y005126D02*
X001038Y005126D01*
X001162Y005047D02*
X000860Y005047D01*
X001639Y005080D02*
X001777Y005217D01*
X001851Y005397D01*
X001851Y005592D01*
X001777Y005773D01*
X001639Y005910D01*
X001717Y005832D02*
X003142Y005832D01*
X003220Y005754D02*
X001784Y005754D01*
X001817Y005675D02*
X003299Y005675D01*
X003377Y005597D02*
X001849Y005597D01*
X001851Y005518D02*
X003456Y005518D01*
X003534Y005440D02*
X001851Y005440D01*
X001836Y005361D02*
X003613Y005361D01*
X003691Y005283D02*
X001803Y005283D01*
X001763Y005204D02*
X003770Y005204D01*
X003848Y005126D02*
X001685Y005126D01*
X001459Y006005D02*
X001264Y006005D01*
X001084Y006080D01*
X000946Y006217D01*
X000871Y006397D01*
X000871Y006592D01*
X000946Y006773D01*
X001084Y006910D01*
X001264Y006985D01*
X001459Y006985D01*
X001639Y006910D01*
X001777Y006773D01*
X001851Y006592D01*
X001851Y006397D01*
X001777Y006217D01*
X001639Y006080D01*
X001459Y006005D01*
X001610Y006068D02*
X002906Y006068D01*
X002828Y006146D02*
X001705Y006146D01*
X001779Y006225D02*
X002820Y006225D01*
X002820Y006303D02*
X001812Y006303D01*
X001844Y006382D02*
X002820Y006382D01*
X002820Y006460D02*
X001851Y006460D01*
X001851Y006539D02*
X002820Y006539D01*
X002820Y006617D02*
X001841Y006617D01*
X001808Y006696D02*
X002820Y006696D01*
X002820Y006774D02*
X001775Y006774D01*
X001697Y006853D02*
X002820Y006853D01*
X002820Y006931D02*
X001589Y006931D01*
X001470Y007010D02*
X002820Y007010D01*
X002820Y007088D02*
X001647Y007088D01*
X001639Y007080D02*
X001777Y007217D01*
X001851Y007397D01*
X001851Y007592D01*
X001777Y007773D01*
X001639Y007910D01*
X001459Y007985D01*
X001264Y007985D01*
X001084Y007910D01*
X000946Y007773D01*
X000871Y007592D01*
X000871Y007397D01*
X000946Y007217D01*
X001084Y007080D01*
X001264Y007005D01*
X001459Y007005D01*
X001639Y007080D01*
X001726Y007167D02*
X002820Y007167D01*
X002820Y007245D02*
X001788Y007245D01*
X001820Y007324D02*
X002820Y007324D01*
X002820Y007402D02*
X001851Y007402D01*
X001851Y007481D02*
X002820Y007481D01*
X002820Y007559D02*
X001851Y007559D01*
X001832Y007638D02*
X002820Y007638D01*
X002820Y007716D02*
X001800Y007716D01*
X001755Y007795D02*
X002820Y007795D01*
X002820Y007873D02*
X001676Y007873D01*
X001539Y007952D02*
X002820Y007952D01*
X002820Y008030D02*
X001519Y008030D01*
X001459Y008005D02*
X001264Y008005D01*
X001084Y008080D01*
X000946Y008217D01*
X000871Y008397D01*
X000871Y008592D01*
X000946Y008773D01*
X001084Y008910D01*
X001264Y008985D01*
X001459Y008985D01*
X001639Y008910D01*
X001777Y008773D01*
X001851Y008592D01*
X001851Y008397D01*
X001777Y008217D01*
X001639Y008080D01*
X001459Y008005D01*
X001668Y008109D02*
X002820Y008109D01*
X002820Y008187D02*
X001746Y008187D01*
X001796Y008266D02*
X002820Y008266D01*
X002820Y008344D02*
X001829Y008344D01*
X001851Y008423D02*
X002820Y008423D01*
X002820Y008501D02*
X001851Y008501D01*
X001851Y008580D02*
X002820Y008580D01*
X002820Y008658D02*
X001824Y008658D01*
X001791Y008737D02*
X002820Y008737D01*
X002820Y008815D02*
X001734Y008815D01*
X001655Y008894D02*
X002820Y008894D01*
X002820Y008972D02*
X001490Y008972D01*
X001401Y009051D02*
X001321Y009051D01*
X001321Y009129D02*
X001401Y009129D01*
X001401Y009208D02*
X001321Y009208D01*
X001321Y009286D02*
X001401Y009286D01*
X001401Y009365D02*
X001321Y009365D01*
X001321Y009443D02*
X001401Y009443D01*
X001401Y009522D02*
X002820Y009522D01*
X002820Y009600D02*
X001861Y009600D01*
X001838Y009679D02*
X002820Y009679D01*
X002820Y009757D02*
X001800Y009757D01*
X001782Y009836D02*
X002820Y009836D01*
X002848Y009914D02*
X001860Y009914D01*
X001939Y009993D02*
X002926Y009993D01*
X003005Y010071D02*
X002017Y010071D01*
X002096Y010150D02*
X003083Y010150D01*
X003162Y010228D02*
X002174Y010228D01*
X002220Y010307D02*
X003240Y010307D01*
X003319Y010385D02*
X002220Y010385D01*
X002220Y010464D02*
X003397Y010464D01*
X003476Y010542D02*
X002220Y010542D01*
X002220Y010621D02*
X003554Y010621D01*
X003633Y010699D02*
X002220Y010699D01*
X002220Y010778D02*
X003660Y010778D01*
X003660Y010856D02*
X002220Y010856D01*
X002220Y010935D02*
X003660Y010935D01*
X003660Y011013D02*
X002220Y011013D01*
X002220Y011092D02*
X003660Y011092D01*
X003660Y011170D02*
X002220Y011170D01*
X002220Y011249D02*
X003660Y011249D01*
X003660Y011327D02*
X002220Y011327D01*
X002220Y011406D02*
X003660Y011406D01*
X003660Y011484D02*
X002220Y011484D01*
X002220Y011563D02*
X003660Y011563D01*
X003660Y011641D02*
X002220Y011641D01*
X002226Y011720D02*
X003660Y011720D01*
X003660Y011798D02*
X003340Y011798D01*
X003385Y011877D02*
X003660Y011877D01*
X003660Y011955D02*
X003385Y011955D01*
X003385Y012034D02*
X003660Y012034D01*
X003726Y012112D02*
X003385Y012112D01*
X003385Y012191D02*
X003804Y012191D01*
X003883Y012269D02*
X003318Y012269D01*
X003315Y012273D02*
X002415Y012273D01*
X003315Y012273D01*
X003385Y012348D02*
X003961Y012348D01*
X004040Y012426D02*
X003492Y012426D01*
X003571Y012505D02*
X004118Y012505D01*
X004197Y012583D02*
X003649Y012583D01*
X003728Y012662D02*
X004275Y012662D01*
X004363Y012523D02*
X003820Y011980D01*
X003820Y010660D01*
X002980Y009820D01*
X002980Y006220D01*
X004180Y005020D01*
X004180Y002015D01*
X004480Y001715D01*
X004797Y001750D02*
X004849Y001750D01*
X004849Y001752D02*
X004858Y001717D01*
X004877Y001685D01*
X004903Y001659D01*
X004935Y001640D01*
X004970Y001631D01*
X005231Y001631D01*
X005231Y001865D01*
X005259Y001865D01*
X005259Y001631D01*
X005519Y001631D01*
X005555Y001640D01*
X005587Y001659D01*
X005613Y001685D01*
X005631Y001717D01*
X005641Y001752D01*
X005641Y001865D01*
X005259Y001865D01*
X005259Y001893D01*
X005641Y001893D01*
X005641Y002006D01*
X005631Y002042D01*
X005613Y002074D01*
X005587Y002100D01*
X005555Y002118D01*
X005519Y002128D01*
X005259Y002128D01*
X005259Y001893D01*
X005231Y001893D01*
X005231Y001865D01*
X004849Y001865D01*
X004849Y001752D01*
X004849Y001829D02*
X004797Y001829D01*
X004797Y001907D02*
X004849Y001907D01*
X004849Y001893D02*
X005231Y001893D01*
X005231Y002128D01*
X004970Y002128D01*
X004935Y002118D01*
X004903Y002100D01*
X004877Y002074D01*
X004858Y002042D01*
X004849Y002006D01*
X004849Y001893D01*
X004849Y001986D02*
X004792Y001986D01*
X004797Y001981D02*
X004727Y002051D01*
X004370Y002051D01*
X004340Y002081D01*
X004340Y003281D01*
X004382Y003239D01*
X004711Y003239D01*
X004714Y003236D01*
X004993Y003236D01*
X005042Y003188D01*
X005653Y003188D01*
X005724Y003258D01*
X005724Y003574D01*
X005653Y003645D01*
X005042Y003645D01*
X004993Y003596D01*
X004946Y003596D01*
X004946Y003842D01*
X004877Y003910D01*
X004946Y003979D01*
X004946Y004511D01*
X004875Y004581D01*
X004780Y004581D01*
X004780Y004966D01*
X004686Y005060D01*
X003340Y006406D01*
X003340Y007632D01*
X004240Y006732D01*
X004240Y006375D01*
X004309Y006307D01*
X004240Y006238D01*
X004240Y005706D01*
X004311Y005636D01*
X004804Y005636D01*
X004867Y005698D01*
X004943Y005698D01*
X004992Y005650D01*
X005603Y005650D01*
X005674Y005720D01*
X005674Y006037D01*
X005603Y006107D01*
X004992Y006107D01*
X004943Y006058D01*
X004874Y006058D01*
X004874Y006238D01*
X004806Y006307D01*
X004874Y006375D01*
X004874Y006908D01*
X004804Y006978D01*
X004447Y006978D01*
X003540Y007885D01*
X003540Y008107D01*
X004015Y008107D01*
X004019Y008111D01*
X004128Y008111D01*
X004176Y008062D01*
X004788Y008062D01*
X004858Y008132D01*
X004858Y008449D01*
X004788Y008519D01*
X004176Y008519D01*
X004128Y008471D01*
X004085Y008471D01*
X004085Y008710D01*
X004017Y008778D01*
X004085Y008847D01*
X004085Y009379D01*
X004015Y009450D01*
X003940Y009450D01*
X003940Y009474D01*
X004446Y009980D01*
X005526Y009980D01*
X005620Y010074D01*
X006340Y010794D01*
X006340Y012114D01*
X006540Y011914D01*
X006540Y011787D01*
X006472Y011787D01*
X006402Y011717D01*
X006402Y011185D01*
X006470Y011116D01*
X006402Y011048D01*
X006402Y010515D01*
X006472Y010445D01*
X006965Y010445D01*
X006970Y010450D01*
X007023Y010450D01*
X007072Y010401D01*
X007646Y010401D01*
X006763Y009519D01*
X006381Y009519D01*
X006311Y009449D01*
X006311Y009132D01*
X006344Y009100D01*
X006086Y008841D01*
X006086Y000780D01*
X005621Y000780D01*
X005621Y001037D01*
X005551Y001108D01*
X004939Y001108D01*
X004891Y001059D01*
X004797Y001059D01*
X004797Y001312D01*
X004728Y001380D01*
X004797Y001448D01*
X004797Y001981D01*
X004871Y002064D02*
X004357Y002064D01*
X004340Y002143D02*
X006086Y002143D01*
X006086Y002221D02*
X004340Y002221D01*
X004340Y002300D02*
X006086Y002300D01*
X006086Y002378D02*
X004340Y002378D01*
X004340Y002457D02*
X006086Y002457D01*
X006086Y002535D02*
X004340Y002535D01*
X004340Y002614D02*
X006086Y002614D01*
X006086Y002692D02*
X004340Y002692D01*
X004340Y002771D02*
X006086Y002771D01*
X006086Y002849D02*
X004340Y002849D01*
X004340Y002928D02*
X006086Y002928D01*
X006086Y003006D02*
X004340Y003006D01*
X004340Y003085D02*
X006086Y003085D01*
X006086Y003163D02*
X004340Y003163D01*
X004340Y003242D02*
X004380Y003242D01*
X004946Y003634D02*
X005031Y003634D01*
X004946Y003713D02*
X006086Y003713D01*
X006086Y003791D02*
X004946Y003791D01*
X004918Y003870D02*
X006086Y003870D01*
X006086Y003948D02*
X004915Y003948D01*
X004946Y004027D02*
X006086Y004027D01*
X006086Y004105D02*
X004946Y004105D01*
X004946Y004184D02*
X005027Y004184D01*
X005038Y004177D02*
X005073Y004168D01*
X005333Y004168D01*
X005333Y004402D01*
X004952Y004402D01*
X004952Y004289D01*
X004961Y004254D01*
X004980Y004222D01*
X005006Y004196D01*
X005038Y004177D01*
X004959Y004262D02*
X004946Y004262D01*
X004946Y004341D02*
X004952Y004341D01*
X004946Y004419D02*
X005333Y004419D01*
X005333Y004430D02*
X005333Y004402D01*
X005362Y004402D01*
X005362Y004430D01*
X005744Y004430D01*
X005744Y004543D01*
X005734Y004579D01*
X005716Y004611D01*
X005690Y004637D01*
X005658Y004655D01*
X005622Y004665D01*
X005362Y004665D01*
X005362Y004430D01*
X005333Y004430D01*
X004952Y004430D01*
X004952Y004543D01*
X004961Y004579D01*
X004980Y004611D01*
X005006Y004637D01*
X005038Y004655D01*
X005073Y004665D01*
X005333Y004665D01*
X005333Y004430D01*
X005362Y004419D02*
X006086Y004419D01*
X006086Y004341D02*
X005744Y004341D01*
X005744Y004289D02*
X005744Y004402D01*
X005362Y004402D01*
X005362Y004168D01*
X005622Y004168D01*
X005658Y004177D01*
X005690Y004196D01*
X005716Y004222D01*
X005734Y004254D01*
X005744Y004289D01*
X005736Y004262D02*
X006086Y004262D01*
X006086Y004184D02*
X005668Y004184D01*
X005362Y004184D02*
X005333Y004184D01*
X005333Y004262D02*
X005362Y004262D01*
X005362Y004341D02*
X005333Y004341D01*
X005333Y004498D02*
X005362Y004498D01*
X005362Y004576D02*
X005333Y004576D01*
X005333Y004655D02*
X005362Y004655D01*
X005036Y004655D02*
X004780Y004655D01*
X004780Y004733D02*
X006086Y004733D01*
X006086Y004655D02*
X005659Y004655D01*
X005735Y004576D02*
X006086Y004576D01*
X006086Y004498D02*
X005744Y004498D01*
X006086Y004812D02*
X004780Y004812D01*
X004780Y004890D02*
X006086Y004890D01*
X006086Y004969D02*
X004778Y004969D01*
X004699Y005047D02*
X006086Y005047D01*
X006086Y005126D02*
X004621Y005126D01*
X004542Y005204D02*
X006086Y005204D01*
X006086Y005283D02*
X004464Y005283D01*
X004385Y005361D02*
X006086Y005361D01*
X006086Y005440D02*
X004307Y005440D01*
X004228Y005518D02*
X006086Y005518D01*
X006086Y005597D02*
X004150Y005597D01*
X004071Y005675D02*
X004271Y005675D01*
X004240Y005754D02*
X003993Y005754D01*
X003914Y005832D02*
X004240Y005832D01*
X004240Y005911D02*
X003836Y005911D01*
X003757Y005989D02*
X004240Y005989D01*
X004240Y006068D02*
X003679Y006068D01*
X003600Y006146D02*
X004240Y006146D01*
X004240Y006225D02*
X003522Y006225D01*
X003443Y006303D02*
X004305Y006303D01*
X004240Y006382D02*
X003365Y006382D01*
X003340Y006460D02*
X004240Y006460D01*
X004240Y006539D02*
X003340Y006539D01*
X003340Y006617D02*
X004240Y006617D01*
X004240Y006696D02*
X003340Y006696D01*
X003340Y006774D02*
X004198Y006774D01*
X004120Y006853D02*
X003340Y006853D01*
X003340Y006931D02*
X004041Y006931D01*
X003963Y007010D02*
X003340Y007010D01*
X003340Y007088D02*
X003884Y007088D01*
X003806Y007167D02*
X003340Y007167D01*
X003340Y007245D02*
X003727Y007245D01*
X003649Y007324D02*
X003340Y007324D01*
X003340Y007402D02*
X003570Y007402D01*
X003492Y007481D02*
X003340Y007481D01*
X003340Y007559D02*
X003413Y007559D01*
X003630Y007795D02*
X006086Y007795D01*
X006086Y007873D02*
X003552Y007873D01*
X003540Y007952D02*
X006086Y007952D01*
X006086Y008030D02*
X003540Y008030D01*
X003380Y007819D02*
X004557Y006641D01*
X004415Y007010D02*
X004903Y007010D01*
X004902Y007005D02*
X004902Y006893D01*
X005283Y006893D01*
X005283Y007127D01*
X005023Y007127D01*
X004988Y007117D01*
X004956Y007099D01*
X004930Y007073D01*
X004911Y007041D01*
X004902Y007005D01*
X004902Y006931D02*
X004851Y006931D01*
X004874Y006853D02*
X004902Y006853D01*
X004902Y006864D02*
X004902Y006751D01*
X004911Y006716D01*
X004930Y006684D01*
X004956Y006658D01*
X004988Y006639D01*
X005023Y006630D01*
X005283Y006630D01*
X005283Y006864D01*
X004902Y006864D01*
X004902Y006774D02*
X004874Y006774D01*
X004874Y006696D02*
X004923Y006696D01*
X004874Y006617D02*
X006086Y006617D01*
X006086Y006539D02*
X004874Y006539D01*
X004874Y006460D02*
X006086Y006460D01*
X006086Y006382D02*
X004874Y006382D01*
X004809Y006303D02*
X006086Y006303D01*
X006086Y006225D02*
X004874Y006225D01*
X004874Y006146D02*
X006086Y006146D01*
X006086Y006068D02*
X005643Y006068D01*
X005674Y005989D02*
X006086Y005989D01*
X006086Y005911D02*
X005674Y005911D01*
X005674Y005832D02*
X006086Y005832D01*
X006086Y005754D02*
X005674Y005754D01*
X005628Y005675D02*
X006086Y005675D01*
X006086Y006696D02*
X005672Y006696D01*
X005666Y006684D02*
X005684Y006716D01*
X005694Y006751D01*
X005694Y006864D01*
X005312Y006864D01*
X005312Y006893D01*
X005283Y006893D01*
X005283Y006864D01*
X005312Y006864D01*
X005312Y006630D01*
X005572Y006630D01*
X005608Y006639D01*
X005640Y006658D01*
X005666Y006684D01*
X005694Y006774D02*
X006086Y006774D01*
X006086Y006853D02*
X005694Y006853D01*
X005694Y006893D02*
X005694Y007005D01*
X005684Y007041D01*
X005666Y007073D01*
X005640Y007099D01*
X005608Y007117D01*
X005572Y007127D01*
X005312Y007127D01*
X005312Y006893D01*
X005694Y006893D01*
X005694Y006931D02*
X006086Y006931D01*
X006086Y007010D02*
X005692Y007010D01*
X005650Y007088D02*
X006086Y007088D01*
X006086Y007167D02*
X004258Y007167D01*
X004180Y007245D02*
X006086Y007245D01*
X006086Y007324D02*
X004101Y007324D01*
X004023Y007402D02*
X006086Y007402D01*
X006086Y007481D02*
X003944Y007481D01*
X003866Y007559D02*
X006086Y007559D01*
X006086Y007638D02*
X003787Y007638D01*
X003709Y007716D02*
X006086Y007716D01*
X006086Y008109D02*
X004834Y008109D01*
X004858Y008187D02*
X006086Y008187D01*
X006086Y008266D02*
X004858Y008266D01*
X004858Y008344D02*
X006086Y008344D01*
X006086Y008423D02*
X004858Y008423D01*
X004806Y008501D02*
X006086Y008501D01*
X006086Y008580D02*
X004085Y008580D01*
X004085Y008658D02*
X006086Y008658D01*
X006086Y008737D02*
X004059Y008737D01*
X004054Y008815D02*
X006086Y008815D01*
X006138Y008894D02*
X004085Y008894D01*
X004085Y008972D02*
X006216Y008972D01*
X006295Y009051D02*
X004788Y009051D01*
X004792Y009052D02*
X004824Y009070D01*
X004850Y009096D01*
X004868Y009128D01*
X004878Y009164D01*
X004878Y009276D01*
X004496Y009276D01*
X004496Y009042D01*
X004756Y009042D01*
X004792Y009052D01*
X004869Y009129D02*
X006314Y009129D01*
X006311Y009208D02*
X004878Y009208D01*
X004878Y009305D02*
X004878Y009418D01*
X004868Y009453D01*
X004850Y009485D01*
X004824Y009511D01*
X004792Y009530D01*
X004756Y009539D01*
X004496Y009539D01*
X004496Y009305D01*
X004468Y009305D01*
X004468Y009539D01*
X004207Y009539D01*
X004172Y009530D01*
X004140Y009511D01*
X004114Y009485D01*
X004095Y009453D01*
X004086Y009418D01*
X004086Y009305D01*
X004468Y009305D01*
X004468Y009276D01*
X004496Y009276D01*
X004496Y009305D01*
X004878Y009305D01*
X004878Y009365D02*
X006311Y009365D01*
X006311Y009443D02*
X004871Y009443D01*
X004806Y009522D02*
X006766Y009522D01*
X006844Y009600D02*
X004066Y009600D01*
X003988Y009522D02*
X004158Y009522D01*
X004093Y009443D02*
X004022Y009443D01*
X004085Y009365D02*
X004086Y009365D01*
X004085Y009286D02*
X004468Y009286D01*
X004468Y009276D02*
X004086Y009276D01*
X004086Y009164D01*
X004095Y009128D01*
X004114Y009096D01*
X004140Y009070D01*
X004172Y009052D01*
X004207Y009042D01*
X004468Y009042D01*
X004468Y009276D01*
X004496Y009286D02*
X006311Y009286D01*
X006923Y009679D02*
X004145Y009679D01*
X004223Y009757D02*
X007001Y009757D01*
X007080Y009836D02*
X004302Y009836D01*
X004380Y009914D02*
X007158Y009914D01*
X007237Y009993D02*
X005539Y009993D01*
X005617Y010071D02*
X007315Y010071D01*
X007394Y010150D02*
X005696Y010150D01*
X005774Y010228D02*
X007472Y010228D01*
X007551Y010307D02*
X005853Y010307D01*
X005931Y010385D02*
X007629Y010385D01*
X007753Y010542D02*
X007786Y010542D01*
X007753Y010621D02*
X007865Y010621D01*
X007943Y010699D02*
X007753Y010699D01*
X007753Y010778D02*
X008022Y010778D01*
X008100Y010856D02*
X007686Y010856D01*
X008179Y010935D02*
X007035Y010935D01*
X007035Y011013D02*
X008251Y011013D01*
X008251Y011092D02*
X006992Y011092D01*
X007021Y011170D02*
X008251Y011170D01*
X008251Y011249D02*
X007035Y011249D01*
X007035Y011327D02*
X008251Y011327D01*
X008251Y011406D02*
X007713Y011406D01*
X007719Y011409D02*
X007746Y011436D01*
X007764Y011467D01*
X007773Y011503D01*
X007773Y011616D01*
X007392Y011616D01*
X007392Y011381D01*
X007652Y011381D01*
X007688Y011391D01*
X007719Y011409D01*
X007768Y011484D02*
X008251Y011484D01*
X008251Y011563D02*
X007773Y011563D01*
X007773Y011720D02*
X008251Y011720D01*
X008251Y011798D02*
X007761Y011798D01*
X007659Y011877D02*
X008251Y011877D01*
X008251Y011955D02*
X006860Y011955D01*
X006860Y011877D02*
X007096Y011877D01*
X006994Y011798D02*
X006860Y011798D01*
X006700Y011980D02*
X006700Y011469D01*
X006719Y011451D01*
X006540Y011798D02*
X006340Y011798D01*
X006340Y011720D02*
X006404Y011720D01*
X006402Y011641D02*
X006340Y011641D01*
X006340Y011563D02*
X006402Y011563D01*
X006402Y011484D02*
X006340Y011484D01*
X006340Y011406D02*
X006402Y011406D01*
X006402Y011327D02*
X006340Y011327D01*
X006340Y011249D02*
X006402Y011249D01*
X006416Y011170D02*
X006340Y011170D01*
X006340Y011092D02*
X006445Y011092D01*
X006402Y011013D02*
X006340Y011013D01*
X006340Y010935D02*
X006402Y010935D01*
X006402Y010856D02*
X006340Y010856D01*
X006324Y010778D02*
X006402Y010778D01*
X006402Y010699D02*
X006245Y010699D01*
X006167Y010621D02*
X006402Y010621D01*
X006402Y010542D02*
X006088Y010542D01*
X006010Y010464D02*
X006454Y010464D01*
X006180Y010860D02*
X005460Y010140D01*
X004380Y010140D01*
X003780Y009540D01*
X003780Y009124D01*
X003769Y009113D01*
X004085Y009129D02*
X004095Y009129D01*
X004085Y009051D02*
X004176Y009051D01*
X004086Y009208D02*
X004085Y009208D01*
X004468Y009208D02*
X004496Y009208D01*
X004496Y009129D02*
X004468Y009129D01*
X004468Y009051D02*
X004496Y009051D01*
X004496Y009365D02*
X004468Y009365D01*
X004468Y009443D02*
X004496Y009443D01*
X004496Y009522D02*
X004468Y009522D01*
X004100Y010340D02*
X003380Y009620D01*
X003380Y007819D01*
X004016Y008109D02*
X004130Y008109D01*
X004158Y008501D02*
X004085Y008501D01*
X002820Y009051D02*
X001612Y009051D01*
X001716Y009129D02*
X002820Y009129D01*
X002820Y009208D02*
X001783Y009208D01*
X001827Y009286D02*
X002820Y009286D01*
X002820Y009365D02*
X001855Y009365D01*
X001869Y009443D02*
X002820Y009443D01*
X003180Y009700D02*
X003180Y006340D01*
X004620Y004900D01*
X004620Y004254D01*
X004629Y004245D01*
X004946Y004498D02*
X004952Y004498D01*
X004960Y004576D02*
X004881Y004576D01*
X005664Y003634D02*
X006086Y003634D01*
X006086Y003556D02*
X005724Y003556D01*
X005724Y003477D02*
X006086Y003477D01*
X006086Y003399D02*
X005724Y003399D01*
X005724Y003320D02*
X006086Y003320D01*
X006086Y003242D02*
X005707Y003242D01*
X005618Y002064D02*
X006086Y002064D01*
X006086Y001986D02*
X005641Y001986D01*
X005641Y001907D02*
X006086Y001907D01*
X006086Y001829D02*
X005641Y001829D01*
X005640Y001750D02*
X006086Y001750D01*
X006086Y001672D02*
X005600Y001672D01*
X005259Y001672D02*
X005231Y001672D01*
X005231Y001750D02*
X005259Y001750D01*
X005259Y001829D02*
X005231Y001829D01*
X005231Y001907D02*
X005259Y001907D01*
X005259Y001986D02*
X005231Y001986D01*
X005231Y002064D02*
X005259Y002064D01*
X004890Y001672D02*
X004797Y001672D01*
X004797Y001593D02*
X006086Y001593D01*
X006086Y001515D02*
X004797Y001515D01*
X004784Y001436D02*
X006086Y001436D01*
X006086Y001358D02*
X004751Y001358D01*
X004797Y001279D02*
X006086Y001279D01*
X006086Y001201D02*
X004797Y001201D01*
X004797Y001122D02*
X006086Y001122D01*
X006086Y001044D02*
X005615Y001044D01*
X005621Y000965D02*
X006086Y000965D01*
X006086Y000887D02*
X005621Y000887D01*
X005621Y000808D02*
X006086Y000808D01*
X007180Y000620D02*
X004060Y000620D01*
X000700Y003940D01*
X000700Y009700D01*
X000990Y009990D01*
X001710Y009990D01*
X002060Y010340D01*
X002060Y011780D01*
X002300Y012020D01*
X002862Y012020D01*
X002865Y012023D01*
X002415Y012273D02*
X002345Y012203D01*
X002345Y012180D01*
X002272Y012180D01*
X002390Y012298D01*
X002415Y012273D01*
X002411Y012269D02*
X002361Y012269D01*
X002345Y012191D02*
X002283Y012191D01*
X002389Y012523D02*
X001361Y011495D01*
X002304Y011798D02*
X002390Y011798D01*
X002389Y012523D02*
X002865Y012523D01*
X003363Y012523D01*
X003580Y012740D01*
X003580Y014780D01*
X003740Y014467D02*
X004765Y014467D01*
X004765Y014389D02*
X003740Y014389D01*
X003740Y014310D02*
X004798Y014310D01*
X004835Y014273D02*
X005735Y014273D01*
X004835Y014273D01*
X004794Y014232D02*
X003740Y014232D01*
X003740Y014153D02*
X004765Y014153D01*
X004765Y014075D02*
X003740Y014075D01*
X003740Y013996D02*
X004765Y013996D01*
X004765Y013918D02*
X003740Y013918D01*
X003740Y013839D02*
X004769Y013839D01*
X004835Y013773D02*
X005735Y013773D01*
X005805Y013703D01*
X005805Y013683D01*
X005943Y013683D01*
X006020Y013606D01*
X006020Y013794D01*
X005951Y013863D01*
X005805Y013863D01*
X005805Y013843D01*
X005735Y013773D01*
X004835Y013773D01*
X004823Y013761D02*
X003740Y013761D01*
X003740Y013682D02*
X004765Y013682D01*
X004765Y013604D02*
X003740Y013604D01*
X003740Y013525D02*
X004765Y013525D01*
X004765Y013447D02*
X003740Y013447D01*
X003740Y013368D02*
X004765Y013368D01*
X004819Y013290D02*
X003740Y013290D01*
X003740Y013211D02*
X004773Y013211D01*
X004765Y013133D02*
X003740Y013133D01*
X003740Y013054D02*
X004765Y013054D01*
X004765Y012976D02*
X003740Y012976D01*
X003740Y012897D02*
X004765Y012897D01*
X004790Y012819D02*
X003740Y012819D01*
X003740Y012740D02*
X004802Y012740D01*
X004835Y012773D02*
X005700Y012773D01*
X005700Y012773D01*
X004835Y012773D01*
X004765Y012363D02*
X004429Y012363D01*
X003980Y011914D01*
X003980Y010700D01*
X005314Y010700D01*
X005700Y011086D01*
X005700Y011753D01*
X005310Y011753D01*
X005310Y011998D01*
X005260Y011998D01*
X005260Y011753D01*
X004866Y011753D01*
X004831Y011762D01*
X004799Y011781D01*
X004773Y011807D01*
X004754Y011839D01*
X004745Y011874D01*
X004745Y011998D01*
X005260Y011998D01*
X005260Y012048D01*
X004745Y012048D01*
X004745Y012171D01*
X004754Y012207D01*
X004773Y012239D01*
X004799Y012265D01*
X004827Y012281D01*
X004765Y012343D01*
X004765Y012363D01*
X004765Y012348D02*
X004414Y012348D01*
X004335Y012269D02*
X004806Y012269D01*
X004750Y012191D02*
X004257Y012191D01*
X004178Y012112D02*
X004745Y012112D01*
X004745Y011955D02*
X004021Y011955D01*
X003980Y011877D02*
X004745Y011877D01*
X004782Y011798D02*
X003980Y011798D01*
X003980Y011720D02*
X005700Y011720D01*
X005700Y011641D02*
X003980Y011641D01*
X003980Y011563D02*
X005700Y011563D01*
X005700Y011484D02*
X003980Y011484D01*
X003980Y011406D02*
X005700Y011406D01*
X005700Y011327D02*
X003980Y011327D01*
X003980Y011249D02*
X005700Y011249D01*
X005700Y011170D02*
X003980Y011170D01*
X003980Y011092D02*
X005700Y011092D01*
X005627Y011013D02*
X003980Y011013D01*
X003980Y010935D02*
X005548Y010935D01*
X005470Y010856D02*
X003980Y010856D01*
X003980Y010778D02*
X005391Y010778D01*
X005380Y010540D02*
X004020Y010540D01*
X003180Y009700D01*
X004100Y010340D02*
X005420Y010340D01*
X006020Y010940D01*
X006020Y013380D01*
X005877Y013523D01*
X005285Y013523D01*
X005285Y014023D02*
X006017Y014023D01*
X006180Y013860D01*
X006180Y010860D01*
X005860Y011020D02*
X005380Y010540D01*
X005860Y011020D02*
X005860Y012940D01*
X005777Y013023D01*
X005285Y013023D01*
X005285Y012523D02*
X004363Y012523D01*
X004100Y012034D02*
X005260Y012034D01*
X005260Y011955D02*
X005310Y011955D01*
X005310Y011877D02*
X005260Y011877D01*
X005260Y011798D02*
X005310Y011798D01*
X006340Y011877D02*
X006540Y011877D01*
X006499Y011955D02*
X006340Y011955D01*
X006340Y012034D02*
X006420Y012034D01*
X006342Y012112D02*
X006340Y012112D01*
X006340Y012340D02*
X006700Y011980D01*
X006794Y012112D02*
X008251Y012112D01*
X008251Y012034D02*
X006860Y012034D01*
X006716Y012191D02*
X008251Y012191D01*
X008251Y012269D02*
X006637Y012269D01*
X006559Y012348D02*
X008251Y012348D01*
X008251Y012426D02*
X006500Y012426D01*
X006500Y012505D02*
X008251Y012505D01*
X008251Y012583D02*
X006500Y012583D01*
X006500Y012662D02*
X008251Y012662D01*
X008251Y012740D02*
X006500Y012740D01*
X006500Y012819D02*
X008251Y012819D01*
X008251Y012897D02*
X007779Y012897D01*
X007803Y012976D02*
X008251Y012976D01*
X008251Y013054D02*
X007803Y013054D01*
X007803Y013133D02*
X008251Y013133D01*
X008251Y013211D02*
X007803Y013211D01*
X007752Y013290D02*
X008251Y013290D01*
X008251Y013368D02*
X007033Y013368D01*
X007033Y013290D02*
X007103Y013290D01*
X007033Y013447D02*
X008251Y013447D01*
X008251Y013525D02*
X006968Y013525D01*
X007033Y013604D02*
X008251Y013604D01*
X008251Y013682D02*
X007033Y013682D01*
X007033Y013761D02*
X008251Y013761D01*
X008251Y013839D02*
X007730Y013839D01*
X007738Y013841D02*
X007769Y013859D01*
X007796Y013886D01*
X007814Y013917D01*
X007823Y013953D01*
X007823Y014066D01*
X007442Y014066D01*
X007442Y013831D01*
X007702Y013831D01*
X007738Y013841D01*
X007814Y013918D02*
X008251Y013918D01*
X008251Y013996D02*
X007823Y013996D01*
X007823Y014153D02*
X008251Y014153D01*
X008251Y014075D02*
X007442Y014075D01*
X007442Y014153D02*
X007413Y014153D01*
X007413Y014232D02*
X007442Y014232D01*
X007442Y014310D02*
X007413Y014310D01*
X007102Y014310D02*
X006860Y014310D01*
X006860Y014232D02*
X007038Y014232D01*
X007031Y014153D02*
X007010Y014153D01*
X007033Y013918D02*
X007041Y013918D01*
X007033Y013839D02*
X007125Y013839D01*
X007413Y013839D02*
X007442Y013839D01*
X007442Y013918D02*
X007413Y013918D01*
X007413Y013996D02*
X007442Y013996D01*
X007817Y014232D02*
X008251Y014232D01*
X008251Y014310D02*
X007753Y014310D01*
X008251Y014389D02*
X006860Y014389D01*
X006860Y014467D02*
X008251Y014467D01*
X008251Y014546D02*
X006860Y014546D01*
X006860Y014624D02*
X008251Y014624D01*
X008251Y014703D02*
X006860Y014703D01*
X006845Y014781D02*
X008251Y014781D01*
X008251Y014860D02*
X006767Y014860D01*
X006688Y014938D02*
X008251Y014938D01*
X008251Y015017D02*
X006610Y015017D01*
X006531Y015095D02*
X008251Y015095D01*
X008251Y015174D02*
X006453Y015174D01*
X006571Y015252D02*
X005755Y015252D01*
X005792Y015331D02*
X006501Y015331D01*
X006501Y015409D02*
X005805Y015409D01*
X005805Y015488D02*
X006468Y015488D01*
X006389Y015566D02*
X005805Y015566D01*
X005805Y015645D02*
X006311Y015645D01*
X006232Y015723D02*
X005784Y015723D01*
X005997Y015959D02*
X005445Y015959D01*
X005445Y016037D02*
X005918Y016037D01*
X005757Y016116D02*
X005677Y016116D01*
X005445Y015880D02*
X006075Y015880D01*
X006154Y015802D02*
X005445Y015802D01*
X005285Y015523D02*
X005285Y016306D01*
X005382Y016404D01*
X005046Y016430D02*
X004900Y016430D01*
X004900Y016508D02*
X005046Y016508D01*
X005046Y016587D02*
X004900Y016587D01*
X004900Y016665D02*
X005061Y016665D01*
X004900Y016744D02*
X007042Y016744D01*
X006963Y016822D02*
X004900Y016822D01*
X004900Y016901D02*
X006885Y016901D01*
X006806Y016979D02*
X004900Y016979D01*
X004900Y017058D02*
X006728Y017058D01*
X006649Y017136D02*
X004877Y017136D01*
X004798Y017215D02*
X006571Y017215D01*
X006492Y017293D02*
X004720Y017293D01*
X004641Y017372D02*
X006414Y017372D01*
X006335Y017450D02*
X004563Y017450D01*
X004484Y017529D02*
X006257Y017529D01*
X006178Y017607D02*
X004989Y017607D01*
X005053Y017686D02*
X006100Y017686D01*
X006021Y017764D02*
X005053Y017764D01*
X005053Y017843D02*
X005943Y017843D01*
X005864Y017921D02*
X005053Y017921D01*
X005042Y018000D02*
X005786Y018000D01*
X005707Y018078D02*
X004857Y018078D01*
X004857Y018157D02*
X005692Y018157D01*
X005692Y018235D02*
X004830Y018235D01*
X004751Y018314D02*
X005692Y018314D01*
X005692Y018392D02*
X004673Y018392D01*
X004594Y018471D02*
X005692Y018471D01*
X005692Y018549D02*
X004515Y018549D01*
X004663Y018628D02*
X004692Y018628D01*
X004692Y018581D02*
X004952Y018581D01*
X004988Y018591D01*
X005019Y018609D01*
X005046Y018636D01*
X005064Y018667D01*
X005073Y018703D01*
X005073Y018816D01*
X004692Y018816D01*
X004692Y018844D01*
X005073Y018844D01*
X005073Y018957D01*
X005064Y018993D01*
X005046Y019024D01*
X005019Y019051D01*
X004988Y019069D01*
X004952Y019078D01*
X004692Y019078D01*
X004692Y018844D01*
X004663Y018844D01*
X004663Y018816D01*
X004692Y018816D01*
X004692Y018581D01*
X004692Y018706D02*
X004663Y018706D01*
X004663Y018785D02*
X004692Y018785D01*
X004663Y018844D02*
X004281Y018844D01*
X004281Y018957D01*
X004291Y018993D01*
X004309Y019024D01*
X004336Y019051D01*
X004367Y019069D01*
X004403Y019078D01*
X004663Y019078D01*
X004663Y018844D01*
X004663Y018863D02*
X004692Y018863D01*
X004692Y018942D02*
X004663Y018942D01*
X004663Y019020D02*
X004692Y019020D01*
X005048Y019020D02*
X005692Y019020D01*
X005692Y018942D02*
X005073Y018942D01*
X005073Y018863D02*
X005692Y018863D01*
X005692Y018785D02*
X005073Y018785D01*
X005073Y018706D02*
X005692Y018706D01*
X005692Y018628D02*
X005038Y018628D01*
X005692Y019099D02*
X003525Y019099D01*
X003603Y019177D02*
X005692Y019177D01*
X005692Y019256D02*
X003682Y019256D01*
X003620Y019420D02*
X016300Y019420D01*
X017820Y017900D01*
X017820Y012414D01*
X018684Y011550D01*
X019174Y011563D02*
X019425Y011563D01*
X019425Y011641D02*
X019174Y011641D01*
X019174Y011648D02*
X019099Y011828D01*
X018961Y011965D01*
X018781Y012040D01*
X018586Y012040D01*
X018469Y011991D01*
X017980Y012480D01*
X017980Y017846D01*
X018015Y017812D01*
X018263Y017668D01*
X018540Y017594D01*
X018827Y017594D01*
X019105Y017668D01*
X019353Y017812D01*
X019425Y017884D01*
X019425Y016829D01*
X019382Y016872D01*
X019394Y016883D01*
X019394Y017122D01*
X019340Y017176D01*
X019329Y017187D01*
X019337Y017195D01*
X019394Y017251D01*
X019394Y017544D01*
X019300Y017638D01*
X019167Y017638D01*
X019153Y017624D01*
X019140Y017638D01*
X019007Y017638D01*
X018913Y017544D01*
X018860Y017491D01*
X018860Y017198D01*
X018898Y017160D01*
X018860Y017122D01*
X018860Y016883D01*
X018898Y016845D01*
X018860Y016808D01*
X018860Y016685D01*
X018807Y016738D01*
X018354Y016738D01*
X018260Y016645D01*
X018260Y016352D01*
X018313Y016299D01*
X018325Y016288D01*
X018313Y016276D01*
X018260Y016223D01*
X018260Y015984D01*
X018298Y015946D01*
X018260Y015908D01*
X018260Y015776D01*
X018300Y015735D01*
X018260Y015695D01*
X018260Y015562D01*
X018271Y015551D01*
X018260Y015540D01*
X018260Y015407D01*
X018300Y015367D01*
X018260Y015326D01*
X018260Y015194D01*
X018354Y015100D01*
X018807Y015100D01*
X018900Y015194D01*
X018954Y015140D01*
X019407Y015140D01*
X019425Y015158D01*
X019425Y009064D01*
X019134Y009355D01*
X019174Y009453D01*
X019174Y009648D01*
X019099Y009828D01*
X018961Y009965D01*
X018781Y010040D01*
X018586Y010040D01*
X018406Y009965D01*
X018269Y009828D01*
X018194Y009648D01*
X018194Y009453D01*
X018269Y009273D01*
X018406Y009135D01*
X018586Y009060D01*
X018781Y009060D01*
X018879Y009100D01*
X019200Y008779D01*
X019200Y005295D01*
X018415Y004510D01*
X017660Y004510D01*
X017590Y004580D01*
X016690Y004580D01*
X016620Y004510D01*
X016620Y004150D01*
X016690Y004080D01*
X016960Y004080D01*
X016960Y003855D01*
X016671Y003566D01*
X016671Y003627D01*
X016601Y003697D01*
X016068Y003697D01*
X016009Y003637D01*
X015994Y003663D01*
X015968Y003689D01*
X015936Y003707D01*
X015900Y003717D01*
X015705Y003717D01*
X015705Y003420D01*
X015625Y003420D01*
X015625Y003340D01*
X015309Y003340D01*
X015309Y003165D01*
X015318Y003129D01*
X015337Y003097D01*
X015363Y003071D01*
X015395Y003053D01*
X015430Y003043D01*
X015625Y003043D01*
X015625Y003340D01*
X015705Y003340D01*
X015705Y003043D01*
X015900Y003043D01*
X015936Y003053D01*
X015968Y003071D01*
X015994Y003097D01*
X016009Y003123D01*
X016068Y003063D01*
X016601Y003063D01*
X016671Y003133D01*
X016671Y003200D01*
X016815Y003200D01*
X017215Y003600D01*
X017320Y003705D01*
X017320Y004080D01*
X017590Y004080D01*
X017660Y004150D01*
X018565Y004150D01*
X019425Y005010D01*
X019425Y003082D01*
X019406Y003100D01*
X019114Y003100D01*
X019060Y003047D01*
X018996Y002982D01*
X018985Y002994D01*
X018745Y002994D01*
X018711Y002959D01*
X018616Y003006D01*
X019019Y003006D01*
X019098Y003085D02*
X017842Y003085D01*
X017826Y003100D02*
X017892Y003034D01*
X017920Y003007D01*
X017920Y003007D01*
X018027Y002900D01*
X018027Y002767D01*
X017986Y002727D01*
X018027Y002686D01*
X018027Y002554D01*
X017933Y002460D01*
X017587Y002460D01*
X017576Y002471D01*
X017565Y002460D01*
X017034Y002460D01*
X016941Y002554D01*
X016941Y002686D01*
X017034Y002780D01*
X017048Y002780D01*
X017048Y003007D01*
X017094Y003053D01*
X017141Y003100D01*
X017274Y003100D01*
X017340Y003034D01*
X017368Y003007D01*
X017368Y003007D01*
X017474Y002900D01*
X017474Y002833D01*
X017565Y002833D01*
X017600Y002798D01*
X017600Y003007D01*
X017646Y003053D01*
X017694Y003100D01*
X017826Y003100D01*
X017921Y003006D02*
X018377Y003006D01*
X018378Y003006D02*
X018259Y002947D01*
X018217Y002821D01*
X018348Y002559D01*
X018366Y002507D01*
X018377Y002501D01*
X018383Y002489D01*
X018435Y002472D01*
X018484Y002447D01*
X018497Y002451D01*
X018509Y002447D01*
X018558Y002472D01*
X018610Y002489D01*
X018616Y002501D01*
X018627Y002507D01*
X018645Y002559D01*
X018652Y002572D01*
X018652Y002554D01*
X018745Y002460D01*
X018985Y002460D01*
X019022Y002498D01*
X019060Y002460D01*
X019193Y002460D01*
X019233Y002500D01*
X019274Y002460D01*
X019406Y002460D01*
X019425Y002479D01*
X019425Y002161D01*
X019353Y002233D01*
X019105Y002377D01*
X018827Y002451D01*
X018540Y002451D01*
X018263Y002377D01*
X018015Y002233D01*
X017812Y002030D01*
X017668Y001782D01*
X017594Y001505D01*
X017594Y001218D01*
X017668Y000940D01*
X017812Y000692D01*
X017884Y000620D01*
X013220Y000620D01*
X013220Y001286D01*
X013126Y001380D01*
X012975Y001531D01*
X012975Y001755D01*
X012900Y001830D01*
X012900Y001914D01*
X013286Y002300D01*
X013806Y002300D01*
X013900Y002394D01*
X014380Y002874D01*
X014380Y002151D01*
X014233Y002151D01*
X014208Y002126D01*
X014208Y002138D01*
X014138Y002208D01*
X013527Y002208D01*
X013456Y002138D01*
X013456Y001822D01*
X013527Y001751D01*
X013653Y001751D01*
X013653Y001718D01*
X014163Y001208D01*
X014163Y001207D01*
X014143Y001219D01*
X014107Y001228D01*
X013847Y001228D01*
X013847Y000994D01*
X013818Y000994D01*
X013818Y000966D01*
X013436Y000966D01*
X013436Y000853D01*
X013446Y000817D01*
X013464Y000786D01*
X013491Y000759D01*
X013522Y000741D01*
X013558Y000731D01*
X013818Y000731D01*
X013818Y000966D01*
X013847Y000966D01*
X013847Y000731D01*
X014107Y000731D01*
X014143Y000741D01*
X014174Y000759D01*
X014201Y000786D01*
X014219Y000817D01*
X014220Y000822D01*
X014233Y000809D01*
X014727Y000809D01*
X014797Y000879D01*
X014797Y001412D01*
X014728Y001480D01*
X014797Y001548D01*
X014797Y002081D01*
X014727Y002151D01*
X014700Y002151D01*
X014700Y002874D01*
X015309Y003483D01*
X015309Y003420D01*
X015625Y003420D01*
X015625Y003717D01*
X015543Y003717D01*
X016496Y004670D01*
X016620Y004670D01*
X016620Y004650D01*
X016690Y004580D01*
X017590Y004580D01*
X017660Y004650D01*
X017660Y005010D01*
X017590Y005080D01*
X017660Y005150D01*
X017660Y005510D01*
X017590Y005580D01*
X017660Y005650D01*
X017660Y005670D01*
X018203Y005670D01*
X018194Y005648D01*
X018194Y005453D01*
X018269Y005273D01*
X018406Y005135D01*
X018586Y005060D01*
X018781Y005060D01*
X018961Y005135D01*
X019099Y005273D01*
X019174Y005453D01*
X019174Y005648D01*
X019099Y005828D01*
X018961Y005965D01*
X018781Y006040D01*
X018586Y006040D01*
X018466Y005990D01*
X017660Y005990D01*
X017660Y006010D01*
X017590Y006080D01*
X017660Y006150D01*
X017660Y006170D01*
X018371Y006170D01*
X018406Y006135D01*
X018586Y006060D01*
X018781Y006060D01*
X018961Y006135D01*
X019099Y006273D01*
X019174Y006453D01*
X019174Y006648D01*
X019099Y006828D01*
X018961Y006965D01*
X018781Y007040D01*
X018586Y007040D01*
X018406Y006965D01*
X018269Y006828D01*
X018194Y006648D01*
X018194Y006490D01*
X017660Y006490D01*
X017660Y006510D01*
X017590Y006580D01*
X016690Y006580D01*
X016620Y006510D01*
X016620Y006150D01*
X016690Y006080D01*
X017590Y006080D01*
X016690Y006080D01*
X016620Y006010D01*
X016620Y005650D01*
X016690Y005580D01*
X017590Y005580D01*
X016690Y005580D01*
X016620Y005510D01*
X016620Y005490D01*
X016584Y005490D01*
X015154Y004060D01*
X015114Y004060D01*
X013674Y002620D01*
X013154Y002620D01*
X013060Y002526D01*
X012674Y002140D01*
X012674Y002140D01*
X012632Y002098D01*
X011400Y003330D01*
X011400Y008841D01*
X012603Y010044D01*
X013034Y010044D01*
X013104Y010114D01*
X013104Y010219D01*
X013960Y010219D01*
X014156Y010416D01*
X014156Y012188D01*
X013566Y012778D01*
X013566Y014550D01*
X012778Y015337D01*
X012778Y019260D01*
X016234Y019260D01*
X017660Y017834D01*
X017660Y012348D01*
X018243Y011765D01*
X018194Y011648D01*
X018194Y011453D01*
X018269Y011273D01*
X018406Y011135D01*
X018586Y011060D01*
X018781Y011060D01*
X018961Y011135D01*
X019099Y011273D01*
X019174Y011453D01*
X019174Y011648D01*
X019144Y011720D02*
X019425Y011720D01*
X019425Y011798D02*
X019112Y011798D01*
X019050Y011877D02*
X019425Y011877D01*
X019425Y011955D02*
X018972Y011955D01*
X018907Y012112D02*
X019425Y012112D01*
X019425Y012034D02*
X018797Y012034D01*
X018781Y012060D02*
X018961Y012135D01*
X019099Y012273D01*
X019174Y012453D01*
X019174Y012648D01*
X019099Y012828D01*
X018961Y012965D01*
X018781Y013040D01*
X018586Y013040D01*
X018406Y012965D01*
X018269Y012828D01*
X018194Y012648D01*
X018194Y012453D01*
X018269Y012273D01*
X018406Y012135D01*
X018586Y012060D01*
X018781Y012060D01*
X018571Y012034D02*
X018427Y012034D01*
X018461Y012112D02*
X018348Y012112D01*
X018351Y012191D02*
X018270Y012191D01*
X018272Y012269D02*
X018191Y012269D01*
X018237Y012348D02*
X018113Y012348D01*
X018034Y012426D02*
X018205Y012426D01*
X018194Y012505D02*
X017980Y012505D01*
X017980Y012583D02*
X018194Y012583D01*
X018200Y012662D02*
X017980Y012662D01*
X017980Y012740D02*
X018232Y012740D01*
X018265Y012819D02*
X017980Y012819D01*
X017980Y012897D02*
X018338Y012897D01*
X018431Y012976D02*
X017980Y012976D01*
X017980Y013054D02*
X019425Y013054D01*
X019425Y012976D02*
X018937Y012976D01*
X019030Y012897D02*
X019425Y012897D01*
X019425Y012819D02*
X019103Y012819D01*
X019136Y012740D02*
X019425Y012740D01*
X019425Y012662D02*
X019168Y012662D01*
X019174Y012583D02*
X019425Y012583D01*
X019425Y012505D02*
X019174Y012505D01*
X019163Y012426D02*
X019425Y012426D01*
X019425Y012348D02*
X019130Y012348D01*
X019096Y012269D02*
X019425Y012269D01*
X019425Y012191D02*
X019017Y012191D01*
X019174Y011484D02*
X019425Y011484D01*
X019425Y011406D02*
X019154Y011406D01*
X019122Y011327D02*
X019425Y011327D01*
X019425Y011249D02*
X019075Y011249D01*
X018997Y011170D02*
X019425Y011170D01*
X019425Y011092D02*
X018857Y011092D01*
X018803Y011048D02*
X018880Y011023D01*
X018951Y010986D01*
X019016Y010939D01*
X019073Y010882D01*
X019120Y010817D01*
X019157Y010746D01*
X019181Y010670D01*
X019194Y010590D01*
X019194Y010590D01*
X018724Y010590D01*
X018724Y010510D01*
X019194Y010510D01*
X019194Y010510D01*
X019181Y010431D01*
X019157Y010354D01*
X019120Y010283D01*
X019073Y010218D01*
X019016Y010161D01*
X018951Y010114D01*
X018880Y010077D01*
X018803Y010053D01*
X018724Y010040D01*
X018724Y010040D01*
X018724Y010510D01*
X018644Y010510D01*
X018644Y010040D01*
X018644Y010040D01*
X018565Y010053D01*
X018488Y010077D01*
X018417Y010114D01*
X018352Y010161D01*
X018295Y010218D01*
X018248Y010283D01*
X018211Y010354D01*
X018186Y010431D01*
X018174Y010510D01*
X018174Y010510D01*
X018644Y010510D01*
X018644Y010590D01*
X018174Y010590D01*
X018174Y010590D01*
X018186Y010670D01*
X018211Y010746D01*
X018248Y010817D01*
X018295Y010882D01*
X018352Y010939D01*
X018417Y010986D01*
X018488Y011023D01*
X018565Y011048D01*
X018644Y011060D01*
X018644Y011060D01*
X018644Y010590D01*
X018724Y010590D01*
X018724Y011060D01*
X018724Y011060D01*
X018803Y011048D01*
X018724Y011013D02*
X018644Y011013D01*
X018644Y010935D02*
X018724Y010935D01*
X018724Y010856D02*
X018644Y010856D01*
X018644Y010778D02*
X018724Y010778D01*
X018724Y010699D02*
X018644Y010699D01*
X018644Y010621D02*
X018724Y010621D01*
X018724Y010542D02*
X019425Y010542D01*
X019425Y010464D02*
X019187Y010464D01*
X019167Y010385D02*
X019425Y010385D01*
X019425Y010307D02*
X019132Y010307D01*
X019080Y010228D02*
X019425Y010228D01*
X019425Y010150D02*
X019000Y010150D01*
X018860Y010071D02*
X019425Y010071D01*
X019425Y009993D02*
X018896Y009993D01*
X019013Y009914D02*
X019425Y009914D01*
X019425Y009836D02*
X019091Y009836D01*
X019129Y009757D02*
X019425Y009757D01*
X019425Y009679D02*
X019161Y009679D01*
X019174Y009600D02*
X019425Y009600D01*
X019425Y009522D02*
X019174Y009522D01*
X019170Y009443D02*
X019425Y009443D01*
X019425Y009365D02*
X019137Y009365D01*
X019203Y009286D02*
X019425Y009286D01*
X019425Y009208D02*
X019281Y009208D01*
X019360Y009129D02*
X019425Y009129D01*
X019086Y008894D02*
X019033Y008894D01*
X019007Y008972D02*
X018946Y008972D01*
X018961Y008965D02*
X018781Y009040D01*
X018586Y009040D01*
X018406Y008965D01*
X018269Y008828D01*
X018194Y008648D01*
X018194Y008453D01*
X018243Y008335D01*
X017780Y007872D01*
X017780Y007646D01*
X017652Y007518D01*
X017590Y007580D01*
X017660Y007650D01*
X017660Y008010D01*
X017627Y008042D01*
X017727Y008042D01*
X017851Y008094D01*
X017946Y008189D01*
X017998Y008313D01*
X017998Y008447D01*
X017946Y008571D01*
X017851Y008666D01*
X017727Y008718D01*
X017593Y008718D01*
X017469Y008666D01*
X017374Y008571D01*
X017361Y008540D01*
X017314Y008540D01*
X017074Y008300D01*
X016980Y008206D01*
X016980Y008080D01*
X016690Y008080D01*
X016620Y008010D01*
X016620Y007650D01*
X016690Y007580D01*
X017590Y007580D01*
X016690Y007580D01*
X016620Y007510D01*
X016620Y007460D01*
X016554Y007460D01*
X016460Y007366D01*
X016220Y007126D01*
X016220Y007119D01*
X016189Y007106D01*
X016094Y007011D01*
X016042Y006887D01*
X016042Y006753D01*
X016094Y006629D01*
X016189Y006534D01*
X016313Y006482D01*
X016447Y006482D01*
X016571Y006534D01*
X016654Y006616D01*
X016690Y006580D01*
X017590Y006580D01*
X017660Y006650D01*
X017660Y006670D01*
X018030Y006670D01*
X018469Y007109D01*
X018586Y007060D01*
X018781Y007060D01*
X018961Y007135D01*
X019099Y007273D01*
X019174Y007453D01*
X019174Y007648D01*
X019099Y007828D01*
X018961Y007965D01*
X018781Y008040D01*
X018586Y008040D01*
X018406Y007965D01*
X018269Y007828D01*
X018194Y007648D01*
X018194Y007453D01*
X018243Y007335D01*
X017898Y006990D01*
X017660Y006990D01*
X017660Y007010D01*
X017590Y007080D01*
X017660Y007150D01*
X017660Y007170D01*
X017756Y007170D01*
X018006Y007420D01*
X018100Y007514D01*
X018100Y007740D01*
X018469Y008109D01*
X018586Y008060D01*
X018781Y008060D01*
X018961Y008135D01*
X019099Y008273D01*
X019174Y008453D01*
X019174Y008648D01*
X019099Y008828D01*
X018961Y008965D01*
X018929Y009051D02*
X014957Y009051D01*
X015035Y009129D02*
X018420Y009129D01*
X018334Y009208D02*
X015114Y009208D01*
X015192Y009286D02*
X018263Y009286D01*
X018230Y009365D02*
X015271Y009365D01*
X015349Y009443D02*
X018198Y009443D01*
X018194Y009522D02*
X016628Y009522D01*
X016606Y009500D02*
X017286Y010180D01*
X017380Y010274D01*
X017380Y012646D01*
X016700Y013326D01*
X016700Y014726D01*
X016020Y015406D01*
X016020Y017282D01*
X015926Y017375D01*
X015497Y017805D01*
X015497Y018162D01*
X015428Y018230D01*
X015497Y018298D01*
X015497Y018831D01*
X015427Y018901D01*
X015098Y018901D01*
X015089Y018910D01*
X014787Y018910D01*
X014738Y018958D01*
X014127Y018958D01*
X014056Y018888D01*
X014056Y018572D01*
X014127Y018501D01*
X014738Y018501D01*
X014787Y018550D01*
X014863Y018550D01*
X014863Y018298D01*
X014932Y018230D01*
X014863Y018162D01*
X014863Y017629D01*
X014933Y017559D01*
X015290Y017559D01*
X015700Y017149D01*
X015700Y016451D01*
X015398Y016451D01*
X015339Y016510D01*
X014887Y016510D01*
X014838Y016558D01*
X014227Y016558D01*
X014156Y016488D01*
X014156Y016172D01*
X014227Y016101D01*
X014838Y016101D01*
X014887Y016150D01*
X015163Y016150D01*
X015163Y015848D01*
X015232Y015780D01*
X015163Y015712D01*
X015163Y015179D01*
X015233Y015109D01*
X015590Y015109D01*
X016220Y014479D01*
X016220Y013220D01*
X016197Y013220D01*
X016197Y013362D01*
X016128Y013430D01*
X016197Y013498D01*
X016197Y014031D01*
X016127Y014101D01*
X015798Y014101D01*
X015789Y014110D01*
X015537Y014110D01*
X015488Y014158D01*
X014877Y014158D01*
X014806Y014088D01*
X014806Y013772D01*
X014877Y013701D01*
X015488Y013701D01*
X015537Y013750D01*
X015563Y013750D01*
X015563Y013498D01*
X015632Y013430D01*
X015563Y013362D01*
X015563Y013103D01*
X015551Y013124D01*
X015524Y013151D01*
X015493Y013169D01*
X015457Y013178D01*
X015197Y013178D01*
X015197Y012944D01*
X015168Y012944D01*
X015168Y012916D01*
X014786Y012916D01*
X014786Y012803D01*
X014796Y012767D01*
X014814Y012736D01*
X014841Y012709D01*
X014872Y012691D01*
X014908Y012681D01*
X015168Y012681D01*
X015168Y012916D01*
X015197Y012916D01*
X015197Y012681D01*
X015457Y012681D01*
X015493Y012691D01*
X015524Y012709D01*
X015551Y012736D01*
X015569Y012767D01*
X015578Y012803D01*
X015578Y012814D01*
X015633Y012759D01*
X016127Y012759D01*
X016197Y012829D01*
X016197Y012897D01*
X016700Y012394D01*
X016700Y011751D01*
X016448Y011751D01*
X016439Y011760D01*
X016187Y011760D01*
X016138Y011808D01*
X015527Y011808D01*
X015456Y011738D01*
X015456Y011422D01*
X015527Y011351D01*
X016138Y011351D01*
X016187Y011400D01*
X016213Y011400D01*
X016213Y011148D01*
X016282Y011080D01*
X016213Y011012D01*
X016213Y010753D01*
X016201Y010774D01*
X016174Y010801D01*
X016143Y010819D01*
X016107Y010828D01*
X015847Y010828D01*
X015847Y010594D01*
X015818Y010594D01*
X015818Y010566D01*
X015436Y010566D01*
X015436Y010453D01*
X015446Y010417D01*
X015464Y010386D01*
X015491Y010359D01*
X015522Y010341D01*
X015558Y010331D01*
X015818Y010331D01*
X015818Y010566D01*
X015847Y010566D01*
X015847Y010331D01*
X016107Y010331D01*
X016143Y010341D01*
X016174Y010359D01*
X016201Y010386D01*
X016219Y010417D01*
X016228Y010453D01*
X016228Y010464D01*
X016283Y010409D01*
X016303Y010409D01*
X016194Y010300D01*
X015034Y010300D01*
X014940Y010206D01*
X013571Y008837D01*
X013528Y008880D01*
X013597Y008948D01*
X013597Y009481D01*
X013527Y009551D01*
X013198Y009551D01*
X013189Y009560D01*
X012987Y009560D01*
X012938Y009608D01*
X012327Y009608D01*
X012256Y009538D01*
X012256Y009222D01*
X012327Y009151D01*
X012938Y009151D01*
X012963Y009176D01*
X012963Y008948D01*
X013032Y008880D01*
X012963Y008812D01*
X012963Y008607D01*
X012943Y008619D01*
X012907Y008628D01*
X012647Y008628D01*
X012647Y008394D01*
X012618Y008394D01*
X012618Y008366D01*
X012236Y008366D01*
X012236Y008253D01*
X012246Y008217D01*
X012264Y008186D01*
X012291Y008159D01*
X012322Y008141D01*
X012358Y008131D01*
X012618Y008131D01*
X012618Y008366D01*
X012647Y008366D01*
X012647Y008131D01*
X012907Y008131D01*
X012943Y008141D01*
X012974Y008159D01*
X013001Y008186D01*
X013019Y008217D01*
X013020Y008222D01*
X013033Y008209D01*
X013100Y008209D01*
X013100Y007234D01*
X013194Y007140D01*
X013233Y007101D01*
X013048Y007101D01*
X012989Y007160D01*
X012837Y007160D01*
X012788Y007208D01*
X012177Y007208D01*
X012106Y007138D01*
X012106Y006822D01*
X012177Y006751D01*
X012788Y006751D01*
X012813Y006776D01*
X012813Y006498D01*
X012882Y006430D01*
X012813Y006362D01*
X012813Y006207D01*
X012793Y006219D01*
X012757Y006228D01*
X012497Y006228D01*
X012497Y005994D01*
X012468Y005994D01*
X012468Y005966D01*
X012086Y005966D01*
X012086Y005853D01*
X012096Y005817D01*
X012114Y005786D01*
X012141Y005759D01*
X012172Y005741D01*
X012208Y005731D01*
X012468Y005731D01*
X012468Y005966D01*
X012497Y005966D01*
X012497Y005731D01*
X012757Y005731D01*
X012793Y005741D01*
X012824Y005759D01*
X012851Y005786D01*
X012853Y005789D01*
X012883Y005759D01*
X012980Y005759D01*
X012980Y005434D01*
X013074Y005340D01*
X013744Y004670D01*
X014200Y004670D01*
X014200Y004650D01*
X014270Y004580D01*
X014200Y004510D01*
X014200Y004490D01*
X013438Y004490D01*
X013377Y004551D01*
X012883Y004551D01*
X012858Y004526D01*
X012858Y004538D01*
X012788Y004608D01*
X012177Y004608D01*
X012106Y004538D01*
X012106Y004222D01*
X012177Y004151D01*
X012303Y004151D01*
X012303Y004118D01*
X012813Y003608D01*
X012813Y003607D01*
X012793Y003619D01*
X012757Y003628D01*
X012497Y003628D01*
X012497Y003394D01*
X012468Y003394D01*
X012468Y003366D01*
X012086Y003366D01*
X012086Y003253D01*
X012096Y003217D01*
X012114Y003186D01*
X012141Y003159D01*
X012172Y003141D01*
X012208Y003131D01*
X012468Y003131D01*
X012468Y003366D01*
X012497Y003366D01*
X012497Y003131D01*
X012757Y003131D01*
X012793Y003141D01*
X012824Y003159D01*
X012851Y003186D01*
X012869Y003217D01*
X012870Y003222D01*
X012883Y003209D01*
X013377Y003209D01*
X013447Y003279D01*
X013447Y003812D01*
X013378Y003880D01*
X013447Y003948D01*
X013447Y004170D01*
X014200Y004170D01*
X014200Y004150D01*
X014270Y004080D01*
X015170Y004080D01*
X015240Y004150D01*
X015240Y004510D01*
X015170Y004580D01*
X014270Y004580D01*
X015170Y004580D01*
X015240Y004650D01*
X015240Y005010D01*
X015170Y005080D01*
X015240Y005150D01*
X015240Y005510D01*
X015170Y005580D01*
X015240Y005650D01*
X015240Y006010D01*
X015170Y006080D01*
X015240Y006150D01*
X015240Y006510D01*
X015170Y006580D01*
X015240Y006650D01*
X015240Y007010D01*
X015170Y007080D01*
X015240Y007150D01*
X015240Y007510D01*
X015178Y007572D01*
X015206Y007588D01*
X015232Y007614D01*
X015250Y007646D01*
X015260Y007682D01*
X015260Y007805D01*
X014745Y007805D01*
X014745Y007855D01*
X014695Y007855D01*
X014695Y008100D01*
X014340Y008100D01*
X014340Y008434D01*
X014446Y008540D01*
X015406Y009500D01*
X016606Y009500D01*
X016706Y009600D02*
X018194Y009600D01*
X018207Y009679D02*
X016785Y009679D01*
X016863Y009757D02*
X018239Y009757D01*
X018276Y009836D02*
X016942Y009836D01*
X017020Y009914D02*
X018355Y009914D01*
X018472Y009993D02*
X017099Y009993D01*
X017177Y010071D02*
X018508Y010071D01*
X018644Y010071D02*
X018724Y010071D01*
X018724Y010150D02*
X018644Y010150D01*
X018644Y010228D02*
X018724Y010228D01*
X018724Y010307D02*
X018644Y010307D01*
X018644Y010385D02*
X018724Y010385D01*
X018724Y010464D02*
X018644Y010464D01*
X018644Y010542D02*
X017380Y010542D01*
X017380Y010464D02*
X018181Y010464D01*
X018201Y010385D02*
X017380Y010385D01*
X017380Y010307D02*
X018236Y010307D01*
X018288Y010228D02*
X017334Y010228D01*
X017256Y010150D02*
X018368Y010150D01*
X018179Y010621D02*
X017380Y010621D01*
X017380Y010699D02*
X018196Y010699D01*
X018227Y010778D02*
X017380Y010778D01*
X017380Y010856D02*
X018276Y010856D01*
X018347Y010935D02*
X017380Y010935D01*
X017380Y011013D02*
X018469Y011013D01*
X018511Y011092D02*
X017380Y011092D01*
X017380Y011170D02*
X018371Y011170D01*
X018293Y011249D02*
X017380Y011249D01*
X017380Y011327D02*
X018246Y011327D01*
X018213Y011406D02*
X017380Y011406D01*
X017380Y011484D02*
X018194Y011484D01*
X018194Y011563D02*
X017380Y011563D01*
X017380Y011641D02*
X018194Y011641D01*
X018224Y011720D02*
X017380Y011720D01*
X017380Y011798D02*
X018210Y011798D01*
X018131Y011877D02*
X017380Y011877D01*
X017380Y011955D02*
X018053Y011955D01*
X017974Y012034D02*
X017380Y012034D01*
X017380Y012112D02*
X017896Y012112D01*
X017817Y012191D02*
X017380Y012191D01*
X017380Y012269D02*
X017739Y012269D01*
X017660Y012348D02*
X017380Y012348D01*
X017380Y012426D02*
X017660Y012426D01*
X017660Y012505D02*
X017380Y012505D01*
X017380Y012583D02*
X017660Y012583D01*
X017660Y012662D02*
X017365Y012662D01*
X017286Y012740D02*
X017660Y012740D01*
X017660Y012819D02*
X017208Y012819D01*
X017129Y012897D02*
X017660Y012897D01*
X017660Y012976D02*
X017051Y012976D01*
X016972Y013054D02*
X017660Y013054D01*
X017660Y013133D02*
X016894Y013133D01*
X016815Y013211D02*
X017660Y013211D01*
X017660Y013290D02*
X016737Y013290D01*
X016700Y013368D02*
X017660Y013368D01*
X017660Y013447D02*
X016700Y013447D01*
X016700Y013525D02*
X017660Y013525D01*
X017660Y013604D02*
X016700Y013604D01*
X016700Y013682D02*
X017660Y013682D01*
X017660Y013761D02*
X016700Y013761D01*
X016700Y013839D02*
X017660Y013839D01*
X017660Y013918D02*
X016700Y013918D01*
X016700Y013996D02*
X017660Y013996D01*
X017660Y014075D02*
X016700Y014075D01*
X016700Y014153D02*
X017660Y014153D01*
X017660Y014232D02*
X016700Y014232D01*
X016700Y014310D02*
X017660Y014310D01*
X017660Y014389D02*
X016700Y014389D01*
X016700Y014467D02*
X017660Y014467D01*
X017660Y014546D02*
X016700Y014546D01*
X016700Y014624D02*
X017660Y014624D01*
X017660Y014703D02*
X016700Y014703D01*
X016645Y014781D02*
X017660Y014781D01*
X017660Y014860D02*
X016567Y014860D01*
X016488Y014938D02*
X017660Y014938D01*
X017660Y015017D02*
X016410Y015017D01*
X016331Y015095D02*
X017660Y015095D01*
X017660Y015174D02*
X016253Y015174D01*
X016174Y015252D02*
X017660Y015252D01*
X017660Y015331D02*
X016096Y015331D01*
X016020Y015409D02*
X017660Y015409D01*
X017660Y015488D02*
X016020Y015488D01*
X016020Y015566D02*
X017660Y015566D01*
X017660Y015645D02*
X016020Y015645D01*
X016020Y015723D02*
X017660Y015723D01*
X017660Y015802D02*
X016020Y015802D01*
X016020Y015880D02*
X017660Y015880D01*
X017660Y015959D02*
X016020Y015959D01*
X016020Y016037D02*
X017660Y016037D01*
X017660Y016116D02*
X016020Y016116D01*
X016020Y016194D02*
X017660Y016194D01*
X017660Y016273D02*
X016020Y016273D01*
X016020Y016351D02*
X017660Y016351D01*
X017660Y016430D02*
X016020Y016430D01*
X016020Y016508D02*
X017660Y016508D01*
X017660Y016587D02*
X016020Y016587D01*
X016020Y016665D02*
X017660Y016665D01*
X017660Y016744D02*
X016020Y016744D01*
X016020Y016822D02*
X017660Y016822D01*
X017660Y016901D02*
X016020Y016901D01*
X016020Y016979D02*
X017660Y016979D01*
X017660Y017058D02*
X016020Y017058D01*
X016020Y017136D02*
X017660Y017136D01*
X017660Y017215D02*
X016020Y017215D01*
X016009Y017293D02*
X017660Y017293D01*
X017660Y017372D02*
X015930Y017372D01*
X015926Y017375D02*
X015926Y017375D01*
X015852Y017450D02*
X017660Y017450D01*
X017660Y017529D02*
X015773Y017529D01*
X015695Y017607D02*
X017660Y017607D01*
X017660Y017686D02*
X015616Y017686D01*
X015538Y017764D02*
X017660Y017764D01*
X017651Y017843D02*
X015497Y017843D01*
X015497Y017921D02*
X017573Y017921D01*
X017494Y018000D02*
X015497Y018000D01*
X015497Y018078D02*
X017416Y018078D01*
X017337Y018157D02*
X015497Y018157D01*
X015434Y018235D02*
X017259Y018235D01*
X017180Y018314D02*
X015497Y018314D01*
X015497Y018392D02*
X017102Y018392D01*
X017023Y018471D02*
X015497Y018471D01*
X015497Y018549D02*
X016945Y018549D01*
X016866Y018628D02*
X015497Y018628D01*
X015497Y018706D02*
X016788Y018706D01*
X016709Y018785D02*
X015497Y018785D01*
X015465Y018863D02*
X016631Y018863D01*
X016552Y018942D02*
X014755Y018942D01*
X014786Y018549D02*
X014863Y018549D01*
X014863Y018471D02*
X012778Y018471D01*
X012778Y018549D02*
X014079Y018549D01*
X014056Y018628D02*
X012778Y018628D01*
X012778Y018706D02*
X014056Y018706D01*
X014056Y018785D02*
X012778Y018785D01*
X012778Y018863D02*
X014056Y018863D01*
X014110Y018942D02*
X012778Y018942D01*
X012778Y019020D02*
X016474Y019020D01*
X016395Y019099D02*
X012778Y019099D01*
X012778Y019177D02*
X016317Y019177D01*
X016238Y019256D02*
X012778Y019256D01*
X012778Y018392D02*
X014863Y018392D01*
X014863Y018314D02*
X012778Y018314D01*
X012778Y018235D02*
X014926Y018235D01*
X014863Y018157D02*
X012778Y018157D01*
X012778Y018078D02*
X014863Y018078D01*
X014863Y018000D02*
X012778Y018000D01*
X012778Y017921D02*
X014063Y017921D01*
X014064Y017924D02*
X014046Y017893D01*
X014036Y017857D01*
X014036Y017744D01*
X014418Y017744D01*
X014418Y017716D01*
X014036Y017716D01*
X014036Y017603D01*
X014046Y017567D01*
X014064Y017536D01*
X014091Y017509D01*
X014122Y017491D01*
X014158Y017481D01*
X014418Y017481D01*
X014418Y017716D01*
X014447Y017716D01*
X014447Y017744D01*
X014828Y017744D01*
X014828Y017857D01*
X014819Y017893D01*
X014801Y017924D01*
X014774Y017951D01*
X014743Y017969D01*
X014707Y017978D01*
X014447Y017978D01*
X014447Y017744D01*
X014418Y017744D01*
X014418Y017978D01*
X014158Y017978D01*
X014122Y017969D01*
X014091Y017951D01*
X014064Y017924D01*
X014036Y017843D02*
X012778Y017843D01*
X012778Y017764D02*
X014036Y017764D01*
X014036Y017686D02*
X012778Y017686D01*
X012778Y017607D02*
X014036Y017607D01*
X014071Y017529D02*
X012778Y017529D01*
X012778Y017450D02*
X015399Y017450D01*
X015478Y017372D02*
X012778Y017372D01*
X012778Y017293D02*
X015556Y017293D01*
X015635Y017215D02*
X012778Y017215D01*
X012778Y017136D02*
X015700Y017136D01*
X015700Y017058D02*
X012778Y017058D01*
X012778Y016979D02*
X015700Y016979D01*
X015700Y016901D02*
X012778Y016901D01*
X012778Y016822D02*
X015700Y016822D01*
X015700Y016744D02*
X012778Y016744D01*
X012778Y016665D02*
X015700Y016665D01*
X015700Y016587D02*
X012778Y016587D01*
X012778Y016508D02*
X014176Y016508D01*
X014156Y016430D02*
X012778Y016430D01*
X012778Y016351D02*
X014156Y016351D01*
X014156Y016273D02*
X012778Y016273D01*
X012778Y016194D02*
X014156Y016194D01*
X014213Y016116D02*
X012778Y016116D01*
X012778Y016037D02*
X015163Y016037D01*
X015163Y015959D02*
X012778Y015959D01*
X012778Y015880D02*
X015163Y015880D01*
X015210Y015802D02*
X012778Y015802D01*
X012778Y015723D02*
X015175Y015723D01*
X015163Y015645D02*
X012778Y015645D01*
X012778Y015566D02*
X014217Y015566D01*
X014222Y015569D02*
X014191Y015551D01*
X014164Y015524D01*
X014146Y015493D01*
X014136Y015457D01*
X014136Y015344D01*
X014518Y015344D01*
X014518Y015316D01*
X014136Y015316D01*
X014136Y015203D01*
X014146Y015167D01*
X014164Y015136D01*
X014191Y015109D01*
X014222Y015091D01*
X014258Y015081D01*
X014518Y015081D01*
X014518Y015316D01*
X014547Y015316D01*
X014547Y015344D01*
X014928Y015344D01*
X014928Y015457D01*
X014919Y015493D01*
X014901Y015524D01*
X014874Y015551D01*
X014843Y015569D01*
X014807Y015578D01*
X014547Y015578D01*
X014547Y015344D01*
X014518Y015344D01*
X014518Y015578D01*
X014258Y015578D01*
X014222Y015569D01*
X014145Y015488D02*
X012778Y015488D01*
X012778Y015409D02*
X014136Y015409D01*
X014136Y015252D02*
X012864Y015252D01*
X012942Y015174D02*
X014144Y015174D01*
X014216Y015095D02*
X013021Y015095D01*
X013099Y015017D02*
X015683Y015017D01*
X015761Y014938D02*
X013178Y014938D01*
X013256Y014860D02*
X015840Y014860D01*
X015918Y014781D02*
X013335Y014781D01*
X013413Y014703D02*
X015997Y014703D01*
X016075Y014624D02*
X013492Y014624D01*
X013566Y014546D02*
X016154Y014546D01*
X016220Y014467D02*
X013566Y014467D01*
X013566Y014389D02*
X016220Y014389D01*
X016220Y014310D02*
X013566Y014310D01*
X013566Y014232D02*
X016220Y014232D01*
X016220Y014153D02*
X015494Y014153D01*
X015563Y013682D02*
X013566Y013682D01*
X013566Y013604D02*
X015563Y013604D01*
X015563Y013525D02*
X013566Y013525D01*
X013566Y013447D02*
X015615Y013447D01*
X015570Y013368D02*
X013566Y013368D01*
X013566Y013290D02*
X015563Y013290D01*
X015563Y013211D02*
X013566Y013211D01*
X013566Y013133D02*
X014823Y013133D01*
X014814Y013124D02*
X014796Y013093D01*
X014786Y013057D01*
X014786Y012944D01*
X015168Y012944D01*
X015168Y013178D01*
X014908Y013178D01*
X014872Y013169D01*
X014841Y013151D01*
X014814Y013124D01*
X014786Y013054D02*
X013566Y013054D01*
X013566Y012976D02*
X014786Y012976D01*
X014786Y012897D02*
X013566Y012897D01*
X013566Y012819D02*
X014786Y012819D01*
X014812Y012740D02*
X013604Y012740D01*
X013683Y012662D02*
X016432Y012662D01*
X016354Y012740D02*
X015553Y012740D01*
X015197Y012740D02*
X015168Y012740D01*
X015168Y012819D02*
X015197Y012819D01*
X015197Y012897D02*
X015168Y012897D01*
X015168Y012976D02*
X015197Y012976D01*
X015197Y013054D02*
X015168Y013054D01*
X015168Y013133D02*
X015197Y013133D01*
X015542Y013133D02*
X015563Y013133D01*
X015880Y013095D02*
X015915Y013060D01*
X016260Y013060D01*
X016860Y012460D01*
X016860Y010460D01*
X016380Y009980D01*
X015180Y009980D01*
X015140Y009940D01*
X013860Y008660D01*
X013860Y008180D01*
X013580Y007900D01*
X013580Y007460D01*
X013820Y007220D01*
X013820Y006420D01*
X013910Y006330D01*
X014720Y006330D01*
X014720Y005830D02*
X014050Y005830D01*
X013660Y006220D01*
X013660Y007140D01*
X013420Y007380D01*
X013420Y007980D01*
X013700Y008260D01*
X013700Y008740D01*
X015100Y010140D01*
X016260Y010140D01*
X016500Y010380D01*
X016500Y010715D01*
X016530Y010745D01*
X016213Y010778D02*
X016197Y010778D01*
X016213Y010856D02*
X014156Y010856D01*
X014156Y010778D02*
X015468Y010778D01*
X015464Y010774D02*
X015446Y010743D01*
X015436Y010707D01*
X015436Y010594D01*
X015818Y010594D01*
X015818Y010828D01*
X015558Y010828D01*
X015522Y010819D01*
X015491Y010801D01*
X015464Y010774D01*
X015436Y010699D02*
X014156Y010699D01*
X014156Y010621D02*
X015436Y010621D01*
X015436Y010542D02*
X014156Y010542D01*
X014156Y010464D02*
X015436Y010464D01*
X015465Y010385D02*
X014125Y010385D01*
X014047Y010307D02*
X016200Y010307D01*
X016200Y010385D02*
X016279Y010385D01*
X016229Y010464D02*
X016228Y010464D01*
X015847Y010464D02*
X015818Y010464D01*
X015818Y010542D02*
X015847Y010542D01*
X015847Y010621D02*
X015818Y010621D01*
X015818Y010699D02*
X015847Y010699D01*
X015847Y010778D02*
X015818Y010778D01*
X015818Y010385D02*
X015847Y010385D01*
X016213Y010935D02*
X014156Y010935D01*
X014156Y011013D02*
X016215Y011013D01*
X016270Y011092D02*
X014156Y011092D01*
X014156Y011170D02*
X016213Y011170D01*
X016213Y011249D02*
X014156Y011249D01*
X014156Y011327D02*
X016213Y011327D01*
X016149Y011798D02*
X016700Y011798D01*
X016700Y011877D02*
X014156Y011877D01*
X014156Y011955D02*
X016700Y011955D01*
X016700Y012034D02*
X014156Y012034D01*
X014156Y012112D02*
X016700Y012112D01*
X016700Y012191D02*
X014154Y012191D01*
X014075Y012269D02*
X016700Y012269D01*
X016700Y012348D02*
X013997Y012348D01*
X013918Y012426D02*
X016668Y012426D01*
X016589Y012505D02*
X013840Y012505D01*
X013761Y012583D02*
X016511Y012583D01*
X016275Y012819D02*
X016186Y012819D01*
X016380Y013180D02*
X016380Y014545D01*
X015480Y015445D01*
X015163Y015409D02*
X014928Y015409D01*
X014920Y015488D02*
X015163Y015488D01*
X015163Y015566D02*
X014848Y015566D01*
X014928Y015316D02*
X014547Y015316D01*
X014547Y015081D01*
X014807Y015081D01*
X014843Y015091D01*
X014874Y015109D01*
X014901Y015136D01*
X014919Y015167D01*
X014928Y015203D01*
X014928Y015316D01*
X014928Y015252D02*
X015163Y015252D01*
X015163Y015331D02*
X014547Y015331D01*
X014518Y015331D02*
X012785Y015331D01*
X013566Y014153D02*
X014871Y014153D01*
X014806Y014075D02*
X013566Y014075D01*
X013566Y013996D02*
X014806Y013996D01*
X014806Y013918D02*
X013566Y013918D01*
X013566Y013839D02*
X014806Y013839D01*
X014818Y013761D02*
X013566Y013761D01*
X014518Y015095D02*
X014547Y015095D01*
X014547Y015174D02*
X014518Y015174D01*
X014518Y015252D02*
X014547Y015252D01*
X014547Y015409D02*
X014518Y015409D01*
X014518Y015488D02*
X014547Y015488D01*
X014547Y015566D02*
X014518Y015566D01*
X014921Y015174D02*
X015169Y015174D01*
X014849Y015095D02*
X015604Y015095D01*
X015860Y015340D02*
X015860Y017215D01*
X015180Y017895D01*
X014863Y017921D02*
X014802Y017921D01*
X014828Y017843D02*
X014863Y017843D01*
X014863Y017764D02*
X014828Y017764D01*
X014828Y017716D02*
X014447Y017716D01*
X014447Y017481D01*
X014707Y017481D01*
X014743Y017491D01*
X014774Y017509D01*
X014801Y017536D01*
X014819Y017567D01*
X014828Y017603D01*
X014828Y017716D01*
X014828Y017686D02*
X014863Y017686D01*
X014885Y017607D02*
X014828Y017607D01*
X014794Y017529D02*
X015321Y017529D01*
X014447Y017529D02*
X014418Y017529D01*
X014418Y017607D02*
X014447Y017607D01*
X014447Y017686D02*
X014418Y017686D01*
X014418Y017764D02*
X014447Y017764D01*
X014447Y017843D02*
X014418Y017843D01*
X014418Y017921D02*
X014447Y017921D01*
X015341Y016508D02*
X015700Y016508D01*
X015163Y016116D02*
X014852Y016116D01*
X015860Y015340D02*
X016540Y014660D01*
X016540Y013260D01*
X017220Y012580D01*
X017220Y010340D01*
X016540Y009660D01*
X015340Y009660D01*
X014380Y008700D01*
X014180Y008500D01*
X014180Y008020D01*
X013980Y007820D01*
X013980Y007580D01*
X014230Y007330D01*
X014720Y007330D01*
X014745Y007580D02*
X014745Y007805D01*
X014695Y007805D01*
X014191Y007805D01*
X014241Y007855D01*
X014695Y007855D01*
X014695Y007805D01*
X014695Y007580D01*
X014745Y007580D01*
X014745Y007638D02*
X014695Y007638D01*
X014695Y007716D02*
X014745Y007716D01*
X014745Y007795D02*
X014695Y007795D01*
X014695Y007873D02*
X014745Y007873D01*
X014745Y007855D02*
X014745Y008100D01*
X015138Y008100D01*
X015174Y008090D01*
X015206Y008072D01*
X015232Y008046D01*
X015250Y008014D01*
X015260Y007978D01*
X015260Y007855D01*
X014745Y007855D01*
X014745Y007952D02*
X014695Y007952D01*
X014695Y008030D02*
X014745Y008030D01*
X014340Y008109D02*
X016980Y008109D01*
X016980Y008187D02*
X014340Y008187D01*
X014340Y008266D02*
X017039Y008266D01*
X017118Y008344D02*
X014340Y008344D01*
X014340Y008423D02*
X017196Y008423D01*
X017275Y008501D02*
X014407Y008501D01*
X014486Y008580D02*
X017382Y008580D01*
X017460Y008658D02*
X014564Y008658D01*
X014643Y008737D02*
X018231Y008737D01*
X018263Y008815D02*
X014721Y008815D01*
X014800Y008894D02*
X018334Y008894D01*
X018422Y008972D02*
X014878Y008972D01*
X014255Y009522D02*
X013556Y009522D01*
X013597Y009443D02*
X014177Y009443D01*
X014098Y009365D02*
X013597Y009365D01*
X013597Y009286D02*
X014020Y009286D01*
X013941Y009208D02*
X013597Y009208D01*
X013597Y009129D02*
X013863Y009129D01*
X013784Y009051D02*
X013597Y009051D01*
X013597Y008972D02*
X013706Y008972D01*
X013627Y008894D02*
X013542Y008894D01*
X013280Y008545D02*
X013260Y008525D01*
X013260Y007300D01*
X013500Y007060D01*
X013500Y005660D01*
X013830Y005330D01*
X014720Y005330D01*
X014720Y004830D02*
X013810Y004830D01*
X013140Y005500D01*
X013140Y006085D01*
X013130Y006095D01*
X012833Y006382D02*
X011400Y006382D01*
X011400Y006460D02*
X012852Y006460D01*
X012813Y006539D02*
X011400Y006539D01*
X011400Y006617D02*
X012813Y006617D01*
X012813Y006696D02*
X011400Y006696D01*
X011400Y006774D02*
X012154Y006774D01*
X012106Y006853D02*
X011400Y006853D01*
X011400Y006931D02*
X012106Y006931D01*
X012106Y007010D02*
X011400Y007010D01*
X011400Y007088D02*
X012106Y007088D01*
X012135Y007167D02*
X011400Y007167D01*
X011400Y007245D02*
X013100Y007245D01*
X013100Y007324D02*
X011400Y007324D01*
X011400Y007402D02*
X013100Y007402D01*
X013100Y007481D02*
X011400Y007481D01*
X011400Y007559D02*
X013100Y007559D01*
X013100Y007638D02*
X011400Y007638D01*
X011400Y007716D02*
X013100Y007716D01*
X013100Y007795D02*
X011400Y007795D01*
X011400Y007873D02*
X013100Y007873D01*
X013100Y007952D02*
X011400Y007952D01*
X011400Y008030D02*
X013100Y008030D01*
X013100Y008109D02*
X011400Y008109D01*
X011400Y008187D02*
X012264Y008187D01*
X012236Y008266D02*
X011400Y008266D01*
X011400Y008344D02*
X012236Y008344D01*
X012236Y008394D02*
X012618Y008394D01*
X012618Y008628D01*
X012358Y008628D01*
X012322Y008619D01*
X012291Y008601D01*
X012264Y008574D01*
X012246Y008543D01*
X012236Y008507D01*
X012236Y008394D01*
X012236Y008423D02*
X011400Y008423D01*
X011400Y008501D02*
X012236Y008501D01*
X012270Y008580D02*
X011400Y008580D01*
X011400Y008658D02*
X012963Y008658D01*
X012963Y008737D02*
X011400Y008737D01*
X011400Y008815D02*
X012967Y008815D01*
X013018Y008894D02*
X011453Y008894D01*
X011531Y008972D02*
X012963Y008972D01*
X012963Y009051D02*
X011610Y009051D01*
X011688Y009129D02*
X012963Y009129D01*
X012947Y009600D02*
X014334Y009600D01*
X014412Y009679D02*
X012238Y009679D01*
X012316Y009757D02*
X014491Y009757D01*
X014569Y009836D02*
X012395Y009836D01*
X012473Y009914D02*
X014648Y009914D01*
X014726Y009993D02*
X012552Y009993D01*
X012318Y009600D02*
X012159Y009600D01*
X012081Y009522D02*
X012256Y009522D01*
X012256Y009443D02*
X012002Y009443D01*
X011924Y009365D02*
X012256Y009365D01*
X012256Y009286D02*
X011845Y009286D01*
X011767Y009208D02*
X012271Y009208D01*
X012618Y008580D02*
X012647Y008580D01*
X012647Y008501D02*
X012618Y008501D01*
X012618Y008423D02*
X012647Y008423D01*
X012647Y008344D02*
X012618Y008344D01*
X012618Y008266D02*
X012647Y008266D01*
X012647Y008187D02*
X012618Y008187D01*
X013001Y008187D02*
X013100Y008187D01*
X013740Y007820D02*
X013740Y007540D01*
X013980Y007300D01*
X013980Y007060D01*
X014210Y006830D01*
X014720Y006830D01*
X014270Y006580D02*
X015170Y006580D01*
X014270Y006580D01*
X014200Y006650D01*
X014200Y006670D01*
X014144Y006670D01*
X013980Y006834D01*
X013980Y006490D01*
X014200Y006490D01*
X014200Y006510D01*
X014270Y006580D01*
X014233Y006617D02*
X013980Y006617D01*
X013980Y006539D02*
X014229Y006539D01*
X014118Y006696D02*
X013980Y006696D01*
X013980Y006774D02*
X014040Y006774D01*
X014228Y007038D02*
X014140Y007126D01*
X014140Y007194D01*
X014164Y007170D01*
X014200Y007170D01*
X014200Y007150D01*
X014270Y007080D01*
X015170Y007080D01*
X014270Y007080D01*
X014228Y007038D01*
X014262Y007088D02*
X014178Y007088D01*
X014200Y007167D02*
X014140Y007167D01*
X013740Y007820D02*
X014020Y008100D01*
X014020Y008580D01*
X015260Y009820D01*
X016460Y009820D01*
X017060Y010420D01*
X017060Y012500D01*
X016380Y013180D01*
X016220Y013290D02*
X016197Y013290D01*
X016190Y013368D02*
X016220Y013368D01*
X016220Y013447D02*
X016145Y013447D01*
X016197Y013525D02*
X016220Y013525D01*
X016220Y013604D02*
X016197Y013604D01*
X016197Y013682D02*
X016220Y013682D01*
X016220Y013761D02*
X016197Y013761D01*
X016197Y013839D02*
X016220Y013839D01*
X016220Y013918D02*
X016197Y013918D01*
X016197Y013996D02*
X016220Y013996D01*
X016220Y014075D02*
X016153Y014075D01*
X017980Y014075D02*
X018552Y014075D01*
X018586Y014060D02*
X018781Y014060D01*
X018961Y014135D01*
X019099Y014273D01*
X019174Y014453D01*
X019174Y014648D01*
X019099Y014828D01*
X018961Y014965D01*
X018781Y015040D01*
X018586Y015040D01*
X018406Y014965D01*
X018269Y014828D01*
X018194Y014648D01*
X018194Y014453D01*
X018269Y014273D01*
X018406Y014135D01*
X018586Y014060D01*
X018586Y014040D02*
X018406Y013965D01*
X018269Y013828D01*
X018194Y013648D01*
X018194Y013453D01*
X018269Y013273D01*
X018406Y013135D01*
X018586Y013060D01*
X018781Y013060D01*
X018961Y013135D01*
X019099Y013273D01*
X019174Y013453D01*
X019174Y013648D01*
X019099Y013828D01*
X018961Y013965D01*
X018781Y014040D01*
X018586Y014040D01*
X018480Y013996D02*
X017980Y013996D01*
X017980Y013918D02*
X018358Y013918D01*
X018280Y013839D02*
X017980Y013839D01*
X017980Y013761D02*
X018241Y013761D01*
X018208Y013682D02*
X017980Y013682D01*
X017980Y013604D02*
X018194Y013604D01*
X018194Y013525D02*
X017980Y013525D01*
X017980Y013447D02*
X018196Y013447D01*
X018229Y013368D02*
X017980Y013368D01*
X017980Y013290D02*
X018261Y013290D01*
X018330Y013211D02*
X017980Y013211D01*
X017980Y013133D02*
X018412Y013133D01*
X018956Y013133D02*
X019425Y013133D01*
X019425Y013211D02*
X019038Y013211D01*
X019106Y013290D02*
X019425Y013290D01*
X019425Y013368D02*
X019139Y013368D01*
X019171Y013447D02*
X019425Y013447D01*
X019425Y013525D02*
X019174Y013525D01*
X019174Y013604D02*
X019425Y013604D01*
X019425Y013682D02*
X019160Y013682D01*
X019127Y013761D02*
X019425Y013761D01*
X019425Y013839D02*
X019088Y013839D01*
X019009Y013918D02*
X019425Y013918D01*
X019425Y013996D02*
X018888Y013996D01*
X018816Y014075D02*
X019425Y014075D01*
X019425Y014153D02*
X018980Y014153D01*
X019058Y014232D02*
X019425Y014232D01*
X019425Y014310D02*
X019115Y014310D01*
X019147Y014389D02*
X019425Y014389D01*
X019425Y014467D02*
X019174Y014467D01*
X019174Y014546D02*
X019425Y014546D01*
X019425Y014624D02*
X019174Y014624D01*
X019151Y014703D02*
X019425Y014703D01*
X019425Y014781D02*
X019119Y014781D01*
X019067Y014860D02*
X019425Y014860D01*
X019425Y014938D02*
X018989Y014938D01*
X018838Y015017D02*
X019425Y015017D01*
X019425Y015095D02*
X017980Y015095D01*
X017980Y015017D02*
X018530Y015017D01*
X018379Y014938D02*
X017980Y014938D01*
X017980Y014860D02*
X018300Y014860D01*
X018249Y014781D02*
X017980Y014781D01*
X017980Y014703D02*
X018217Y014703D01*
X018194Y014624D02*
X017980Y014624D01*
X017980Y014546D02*
X018194Y014546D01*
X018194Y014467D02*
X017980Y014467D01*
X017980Y014389D02*
X018220Y014389D01*
X018253Y014310D02*
X017980Y014310D01*
X017980Y014232D02*
X018310Y014232D01*
X018388Y014153D02*
X017980Y014153D01*
X017980Y015174D02*
X018280Y015174D01*
X018260Y015252D02*
X017980Y015252D01*
X017980Y015331D02*
X018264Y015331D01*
X018260Y015409D02*
X017980Y015409D01*
X017980Y015488D02*
X018260Y015488D01*
X018260Y015566D02*
X017980Y015566D01*
X017980Y015645D02*
X018260Y015645D01*
X018288Y015723D02*
X017980Y015723D01*
X017980Y015802D02*
X018260Y015802D01*
X018260Y015880D02*
X017980Y015880D01*
X017980Y015959D02*
X018285Y015959D01*
X018260Y016037D02*
X017980Y016037D01*
X017980Y016116D02*
X018260Y016116D01*
X018260Y016194D02*
X017980Y016194D01*
X017980Y016273D02*
X018310Y016273D01*
X018261Y016351D02*
X017980Y016351D01*
X017980Y016430D02*
X018260Y016430D01*
X018260Y016508D02*
X017980Y016508D01*
X017980Y016587D02*
X018260Y016587D01*
X018280Y016665D02*
X017980Y016665D01*
X017980Y016744D02*
X018860Y016744D01*
X018875Y016822D02*
X017980Y016822D01*
X017980Y016901D02*
X018860Y016901D01*
X018860Y016979D02*
X017980Y016979D01*
X017980Y017058D02*
X018860Y017058D01*
X018874Y017136D02*
X017980Y017136D01*
X017980Y017215D02*
X018860Y017215D01*
X018860Y017293D02*
X017980Y017293D01*
X017980Y017372D02*
X018860Y017372D01*
X018860Y017450D02*
X017980Y017450D01*
X017980Y017529D02*
X018898Y017529D01*
X018876Y017607D02*
X018976Y017607D01*
X019073Y017478D02*
X019020Y017424D01*
X019020Y017264D01*
X019127Y017318D02*
X019180Y017264D01*
X019234Y017318D01*
X019234Y017478D01*
X019127Y017424D02*
X019073Y017478D01*
X019127Y017424D02*
X019127Y017318D01*
X019127Y017110D02*
X019127Y016896D01*
X019180Y016896D02*
X019234Y016949D01*
X019234Y017056D01*
X019180Y017110D01*
X019127Y017110D01*
X019020Y017056D02*
X019020Y016949D01*
X019073Y016896D01*
X019180Y016896D01*
X019180Y016741D02*
X019127Y016688D01*
X019127Y016528D01*
X019127Y016634D02*
X019020Y016741D01*
X019180Y016741D02*
X019287Y016741D01*
X019340Y016688D01*
X019340Y016528D01*
X019020Y016528D01*
X019020Y016389D02*
X019020Y016282D01*
X019020Y016336D02*
X019234Y016336D01*
X019234Y016282D01*
X019340Y016336D02*
X019394Y016336D01*
X019234Y016127D02*
X019234Y015967D01*
X019180Y015914D01*
X019073Y015914D01*
X019020Y015967D01*
X019020Y016127D01*
X018967Y016127D02*
X019234Y016127D01*
X018967Y016127D02*
X018913Y016074D01*
X018913Y016021D01*
X018740Y015842D02*
X018420Y015842D01*
X018473Y015997D02*
X018420Y016050D01*
X018420Y016157D01*
X018473Y016210D01*
X018580Y016210D01*
X018634Y016157D01*
X018634Y016050D01*
X018580Y015997D01*
X018473Y015997D01*
X018634Y015735D02*
X018740Y015842D01*
X018634Y015735D02*
X018740Y015628D01*
X018420Y015628D01*
X018420Y015474D02*
X018527Y015367D01*
X018527Y015420D02*
X018527Y015260D01*
X018420Y015260D02*
X018740Y015260D01*
X018740Y015420D01*
X018687Y015474D01*
X018580Y015474D01*
X018527Y015420D01*
X018880Y015174D02*
X018920Y015174D01*
X019020Y015300D02*
X019020Y015460D01*
X019073Y015514D01*
X019287Y015514D01*
X019340Y015460D01*
X019340Y015300D01*
X019020Y015300D01*
X019020Y015668D02*
X019020Y015775D01*
X019020Y015722D02*
X019234Y015722D01*
X019234Y015668D01*
X019340Y015722D02*
X019394Y015722D01*
X018634Y016418D02*
X018634Y016578D01*
X018740Y016578D02*
X018420Y016578D01*
X018420Y016418D01*
X018473Y016365D01*
X018580Y016365D01*
X018634Y016418D01*
X019394Y016901D02*
X019425Y016901D01*
X019425Y016979D02*
X019394Y016979D01*
X019394Y017058D02*
X019425Y017058D01*
X019425Y017136D02*
X019380Y017136D01*
X019340Y017176D02*
X019340Y017176D01*
X019357Y017215D02*
X019425Y017215D01*
X019425Y017293D02*
X019394Y017293D01*
X019394Y017372D02*
X019425Y017372D01*
X019425Y017450D02*
X019394Y017450D01*
X019394Y017529D02*
X019425Y017529D01*
X019425Y017607D02*
X019331Y017607D01*
X019425Y017686D02*
X019135Y017686D01*
X019271Y017764D02*
X019425Y017764D01*
X019425Y017843D02*
X019384Y017843D01*
X018491Y017607D02*
X017980Y017607D01*
X017980Y017686D02*
X018233Y017686D01*
X018097Y017764D02*
X017980Y017764D01*
X017980Y017843D02*
X017984Y017843D01*
X015516Y011798D02*
X014156Y011798D01*
X014156Y011720D02*
X015456Y011720D01*
X015456Y011641D02*
X014156Y011641D01*
X014156Y011563D02*
X015456Y011563D01*
X015456Y011484D02*
X014156Y011484D01*
X014156Y011406D02*
X015473Y011406D01*
X014962Y010228D02*
X013968Y010228D01*
X014805Y010071D02*
X013061Y010071D01*
X013104Y010150D02*
X014883Y010150D01*
X015241Y008030D02*
X016640Y008030D01*
X016620Y007952D02*
X015260Y007952D01*
X015260Y007873D02*
X016620Y007873D01*
X016620Y007795D02*
X015260Y007795D01*
X015260Y007716D02*
X016620Y007716D01*
X016633Y007638D02*
X015246Y007638D01*
X015191Y007559D02*
X016669Y007559D01*
X016620Y007481D02*
X015240Y007481D01*
X015240Y007402D02*
X016496Y007402D01*
X016417Y007324D02*
X015240Y007324D01*
X015240Y007245D02*
X016339Y007245D01*
X016260Y007167D02*
X015240Y007167D01*
X015178Y007088D02*
X016170Y007088D01*
X016093Y007010D02*
X015240Y007010D01*
X015240Y006931D02*
X016060Y006931D01*
X016042Y006853D02*
X015240Y006853D01*
X015240Y006774D02*
X016042Y006774D01*
X016066Y006696D02*
X015240Y006696D01*
X015207Y006617D02*
X016105Y006617D01*
X016184Y006539D02*
X015211Y006539D01*
X015240Y006460D02*
X016620Y006460D01*
X016620Y006382D02*
X015240Y006382D01*
X015240Y006303D02*
X016620Y006303D01*
X016620Y006225D02*
X015240Y006225D01*
X015236Y006146D02*
X016624Y006146D01*
X016678Y006068D02*
X015182Y006068D01*
X015170Y006080D02*
X014270Y006080D01*
X014200Y006150D01*
X014200Y006170D01*
X013936Y006170D01*
X014116Y005990D01*
X014200Y005990D01*
X014200Y006010D01*
X014270Y006080D01*
X015170Y006080D01*
X015240Y005989D02*
X016620Y005989D01*
X016620Y005911D02*
X015240Y005911D01*
X015240Y005832D02*
X016620Y005832D01*
X016620Y005754D02*
X015240Y005754D01*
X015240Y005675D02*
X016620Y005675D01*
X016674Y005597D02*
X015186Y005597D01*
X015170Y005580D02*
X014270Y005580D01*
X014200Y005650D01*
X014200Y005670D01*
X013984Y005670D01*
X013660Y005994D01*
X013660Y005726D01*
X013896Y005490D01*
X014200Y005490D01*
X014200Y005510D01*
X014270Y005580D01*
X015170Y005580D01*
X015232Y005518D02*
X016628Y005518D01*
X016533Y005440D02*
X015240Y005440D01*
X015240Y005361D02*
X016455Y005361D01*
X016376Y005283D02*
X015240Y005283D01*
X015240Y005204D02*
X016298Y005204D01*
X016219Y005126D02*
X015215Y005126D01*
X015170Y005080D02*
X014270Y005080D01*
X014200Y005150D01*
X014200Y005170D01*
X013764Y005170D01*
X013434Y005500D01*
X013340Y005594D01*
X013340Y005759D01*
X013300Y005759D01*
X013300Y005566D01*
X013876Y004990D01*
X014200Y004990D01*
X014200Y005010D01*
X014270Y005080D01*
X015170Y005080D01*
X015203Y005047D02*
X016141Y005047D01*
X016062Y004969D02*
X015240Y004969D01*
X015240Y004890D02*
X015984Y004890D01*
X015905Y004812D02*
X015240Y004812D01*
X015240Y004733D02*
X015827Y004733D01*
X015748Y004655D02*
X015240Y004655D01*
X015174Y004576D02*
X015670Y004576D01*
X015591Y004498D02*
X015240Y004498D01*
X015240Y004419D02*
X015513Y004419D01*
X015434Y004341D02*
X015240Y004341D01*
X015240Y004262D02*
X015356Y004262D01*
X015277Y004184D02*
X015240Y004184D01*
X015199Y004105D02*
X015195Y004105D01*
X015080Y004027D02*
X013447Y004027D01*
X013447Y004105D02*
X014245Y004105D01*
X014200Y004498D02*
X013430Y004498D01*
X013245Y004330D02*
X013130Y004215D01*
X013245Y004330D02*
X014720Y004330D01*
X015002Y003948D02*
X013446Y003948D01*
X013389Y003870D02*
X014923Y003870D01*
X014845Y003791D02*
X013447Y003791D01*
X013447Y003713D02*
X014766Y003713D01*
X014688Y003634D02*
X013447Y003634D01*
X013447Y003556D02*
X014609Y003556D01*
X014531Y003477D02*
X013447Y003477D01*
X013447Y003399D02*
X014452Y003399D01*
X014374Y003320D02*
X013447Y003320D01*
X013409Y003242D02*
X014295Y003242D01*
X014217Y003163D02*
X012828Y003163D01*
X012497Y003163D02*
X012468Y003163D01*
X012468Y003242D02*
X012497Y003242D01*
X012497Y003320D02*
X012468Y003320D01*
X012468Y003394D02*
X012086Y003394D01*
X012086Y003507D01*
X012096Y003543D01*
X012114Y003574D01*
X012141Y003601D01*
X012172Y003619D01*
X012208Y003628D01*
X012468Y003628D01*
X012468Y003394D01*
X012468Y003399D02*
X012497Y003399D01*
X012497Y003477D02*
X012468Y003477D01*
X012468Y003556D02*
X012497Y003556D01*
X012708Y003713D02*
X011400Y003713D01*
X011400Y003791D02*
X012630Y003791D01*
X012551Y003870D02*
X011400Y003870D01*
X011400Y003948D02*
X012473Y003948D01*
X012394Y004027D02*
X011400Y004027D01*
X011400Y004105D02*
X012316Y004105D01*
X012145Y004184D02*
X011400Y004184D01*
X011400Y004262D02*
X012106Y004262D01*
X012106Y004341D02*
X011400Y004341D01*
X011400Y004419D02*
X012106Y004419D01*
X012106Y004498D02*
X011400Y004498D01*
X011400Y004576D02*
X012144Y004576D01*
X012821Y004576D02*
X014266Y004576D01*
X014200Y004655D02*
X011400Y004655D01*
X011400Y004733D02*
X013681Y004733D01*
X013602Y004812D02*
X011400Y004812D01*
X011400Y004890D02*
X013524Y004890D01*
X013445Y004969D02*
X011400Y004969D01*
X011400Y005047D02*
X013367Y005047D01*
X013288Y005126D02*
X011400Y005126D01*
X011400Y005204D02*
X013210Y005204D01*
X013131Y005283D02*
X011400Y005283D01*
X011400Y005361D02*
X013053Y005361D01*
X012980Y005440D02*
X011400Y005440D01*
X011400Y005518D02*
X012980Y005518D01*
X012980Y005597D02*
X011400Y005597D01*
X011400Y005675D02*
X012980Y005675D01*
X012980Y005754D02*
X012814Y005754D01*
X012497Y005754D02*
X012468Y005754D01*
X012468Y005832D02*
X012497Y005832D01*
X012497Y005911D02*
X012468Y005911D01*
X012468Y005989D02*
X011400Y005989D01*
X011400Y005911D02*
X012086Y005911D01*
X012092Y005832D02*
X011400Y005832D01*
X011400Y005754D02*
X012151Y005754D01*
X012086Y005994D02*
X012468Y005994D01*
X012468Y006228D01*
X012208Y006228D01*
X012172Y006219D01*
X012141Y006201D01*
X012114Y006174D01*
X012096Y006143D01*
X012086Y006107D01*
X012086Y005994D01*
X012086Y006068D02*
X011400Y006068D01*
X011400Y006146D02*
X012098Y006146D01*
X012193Y006225D02*
X011400Y006225D01*
X011400Y006303D02*
X012813Y006303D01*
X012813Y006225D02*
X012772Y006225D01*
X012497Y006225D02*
X012468Y006225D01*
X012468Y006146D02*
X012497Y006146D01*
X012497Y006068D02*
X012468Y006068D01*
X012811Y006774D02*
X012813Y006774D01*
X012830Y007167D02*
X013167Y007167D01*
X013960Y006146D02*
X014204Y006146D01*
X014258Y006068D02*
X014039Y006068D01*
X013822Y005832D02*
X013660Y005832D01*
X013660Y005754D02*
X013900Y005754D01*
X013979Y005675D02*
X013711Y005675D01*
X013790Y005597D02*
X014254Y005597D01*
X014208Y005518D02*
X013868Y005518D01*
X013651Y005283D02*
X013584Y005283D01*
X013573Y005361D02*
X013505Y005361D01*
X013494Y005440D02*
X013427Y005440D01*
X013416Y005518D02*
X013348Y005518D01*
X013340Y005597D02*
X013300Y005597D01*
X013300Y005675D02*
X013340Y005675D01*
X013340Y005754D02*
X013300Y005754D01*
X013660Y005911D02*
X013743Y005911D01*
X013665Y005989D02*
X013660Y005989D01*
X013662Y005204D02*
X013730Y005204D01*
X013741Y005126D02*
X014225Y005126D01*
X014237Y005047D02*
X013819Y005047D01*
X012787Y003634D02*
X011400Y003634D01*
X011400Y003556D02*
X012104Y003556D01*
X012086Y003477D02*
X011400Y003477D01*
X011400Y003399D02*
X012086Y003399D01*
X012086Y003320D02*
X011410Y003320D01*
X011489Y003242D02*
X012090Y003242D01*
X012137Y003163D02*
X011567Y003163D01*
X011646Y003085D02*
X014138Y003085D01*
X014060Y003006D02*
X011724Y003006D01*
X011803Y002928D02*
X013981Y002928D01*
X013903Y002849D02*
X011881Y002849D01*
X011960Y002771D02*
X013824Y002771D01*
X013746Y002692D02*
X012038Y002692D01*
X012117Y002614D02*
X013147Y002614D01*
X013069Y002535D02*
X012195Y002535D01*
X012274Y002457D02*
X012990Y002457D01*
X013060Y002526D02*
X013060Y002526D01*
X013220Y002460D02*
X012740Y001980D01*
X012740Y001540D01*
X013060Y001220D01*
X013060Y000660D01*
X013020Y000620D01*
X007180Y000620D01*
X004163Y000808D02*
X004097Y000808D01*
X004163Y000887D02*
X004018Y000887D01*
X003938Y000965D02*
X004163Y000965D01*
X004163Y001044D02*
X003859Y001044D01*
X003780Y001122D02*
X004163Y001122D01*
X004163Y001201D02*
X003700Y001201D01*
X003621Y001279D02*
X004163Y001279D01*
X004209Y001358D02*
X003541Y001358D01*
X003462Y001436D02*
X004176Y001436D01*
X004163Y001515D02*
X003382Y001515D01*
X003303Y001593D02*
X004163Y001593D01*
X004163Y001672D02*
X003223Y001672D01*
X003144Y001750D02*
X004163Y001750D01*
X004140Y001829D02*
X003065Y001829D01*
X002985Y001907D02*
X004061Y001907D01*
X004020Y001986D02*
X002906Y001986D01*
X002826Y002064D02*
X004020Y002064D01*
X004020Y002143D02*
X002747Y002143D01*
X002667Y002221D02*
X004020Y002221D01*
X004020Y002300D02*
X002588Y002300D01*
X002508Y002378D02*
X004020Y002378D01*
X004843Y005675D02*
X004967Y005675D01*
X004952Y006068D02*
X004874Y006068D01*
X005283Y006696D02*
X005312Y006696D01*
X005312Y006774D02*
X005283Y006774D01*
X005283Y006853D02*
X005312Y006853D01*
X005312Y006931D02*
X005283Y006931D01*
X005283Y007010D02*
X005312Y007010D01*
X005312Y007088D02*
X005283Y007088D01*
X004945Y007088D02*
X004337Y007088D01*
X001871Y009455D02*
X001871Y009455D01*
X001232Y008972D02*
X000860Y008972D01*
X000860Y008894D02*
X001067Y008894D01*
X000988Y008815D02*
X000860Y008815D01*
X000860Y008737D02*
X000931Y008737D01*
X000898Y008658D02*
X000860Y008658D01*
X000860Y008580D02*
X000871Y008580D01*
X000860Y008501D02*
X000871Y008501D01*
X000860Y008423D02*
X000871Y008423D01*
X000860Y008344D02*
X000893Y008344D01*
X000860Y008266D02*
X000926Y008266D01*
X000976Y008187D02*
X000860Y008187D01*
X000860Y008109D02*
X001055Y008109D01*
X001203Y008030D02*
X000860Y008030D01*
X000860Y007952D02*
X001183Y007952D01*
X001046Y007873D02*
X000860Y007873D01*
X000860Y007795D02*
X000968Y007795D01*
X000922Y007716D02*
X000860Y007716D01*
X000860Y007638D02*
X000890Y007638D01*
X000871Y007559D02*
X000860Y007559D01*
X000860Y007481D02*
X000871Y007481D01*
X000860Y007402D02*
X000871Y007402D01*
X000860Y007324D02*
X000902Y007324D01*
X000934Y007245D02*
X000860Y007245D01*
X000860Y007167D02*
X000997Y007167D01*
X001075Y007088D02*
X000860Y007088D01*
X000860Y007010D02*
X001253Y007010D01*
X001133Y006931D02*
X000860Y006931D01*
X000860Y006853D02*
X001026Y006853D01*
X000947Y006774D02*
X000860Y006774D01*
X000860Y006696D02*
X000914Y006696D01*
X000881Y006617D02*
X000860Y006617D01*
X000860Y006539D02*
X000871Y006539D01*
X000860Y006460D02*
X000871Y006460D01*
X000860Y006382D02*
X000878Y006382D01*
X000860Y006303D02*
X000910Y006303D01*
X000943Y006225D02*
X000860Y006225D01*
X000860Y006146D02*
X001017Y006146D01*
X001113Y006068D02*
X000860Y006068D01*
X000860Y009051D02*
X001110Y009051D01*
X001006Y009129D02*
X000860Y009129D01*
X000860Y009208D02*
X000940Y009208D01*
X000895Y009286D02*
X000860Y009286D01*
X000860Y009365D02*
X000867Y009365D01*
X001361Y012495D02*
X001889Y013023D01*
X002865Y013023D01*
X002865Y013523D02*
X001389Y013523D01*
X001361Y013495D01*
X001833Y014023D02*
X001361Y014495D01*
X001940Y014820D02*
X002220Y014540D01*
X002848Y014540D01*
X002865Y014523D01*
X002865Y015023D02*
X003143Y015023D01*
X003380Y015260D01*
X004060Y015260D01*
X004740Y015940D01*
X004740Y017047D01*
X003866Y017921D01*
X003549Y017921D02*
X002860Y017921D01*
X002860Y017843D02*
X003549Y017843D01*
X003549Y017764D02*
X002860Y017764D01*
X002860Y017686D02*
X003549Y017686D01*
X003597Y017607D02*
X002911Y017607D01*
X002988Y017529D02*
X004032Y017529D01*
X004110Y017450D02*
X003020Y017450D01*
X003038Y017372D02*
X004189Y017372D01*
X004267Y017293D02*
X003038Y017293D01*
X003014Y017215D02*
X004346Y017215D01*
X004424Y017136D02*
X002974Y017136D01*
X002895Y017058D02*
X004503Y017058D01*
X004580Y016979D02*
X000620Y016979D01*
X000620Y016901D02*
X004580Y016901D01*
X004580Y016822D02*
X000620Y016822D01*
X000620Y016744D02*
X004580Y016744D01*
X004580Y016665D02*
X004506Y016665D01*
X004305Y016665D02*
X004225Y016665D01*
X004225Y016587D02*
X004305Y016587D01*
X004305Y016508D02*
X004225Y016508D01*
X004225Y016430D02*
X004305Y016430D01*
X004305Y016290D02*
X004305Y015993D01*
X004500Y015993D01*
X004535Y016003D01*
X004567Y016021D01*
X004580Y016034D01*
X004580Y016006D01*
X003994Y015420D01*
X003385Y015420D01*
X003385Y015703D01*
X003315Y015773D01*
X003080Y015773D01*
X003080Y015905D01*
X003259Y016084D01*
X003259Y016083D01*
X003329Y016013D01*
X003862Y016013D01*
X003921Y016073D01*
X003936Y016047D01*
X003962Y016021D01*
X003994Y016003D01*
X004030Y015993D01*
X004225Y015993D01*
X004225Y016290D01*
X004305Y016290D01*
X004305Y016273D02*
X004225Y016273D01*
X004225Y016194D02*
X004305Y016194D01*
X004305Y016116D02*
X004225Y016116D01*
X004225Y016037D02*
X004305Y016037D01*
X004454Y015880D02*
X003080Y015880D01*
X003080Y015802D02*
X004375Y015802D01*
X004297Y015723D02*
X003364Y015723D01*
X003385Y015645D02*
X004218Y015645D01*
X004140Y015566D02*
X003385Y015566D01*
X003385Y015488D02*
X004061Y015488D01*
X004278Y015252D02*
X004814Y015252D01*
X004778Y015331D02*
X004357Y015331D01*
X004435Y015409D02*
X004765Y015409D01*
X004765Y015488D02*
X004514Y015488D01*
X004592Y015566D02*
X004765Y015566D01*
X004765Y015645D02*
X004671Y015645D01*
X004749Y015723D02*
X004785Y015723D01*
X004828Y015802D02*
X005125Y015802D01*
X005125Y015880D02*
X004900Y015880D01*
X004900Y015959D02*
X005125Y015959D01*
X005125Y016037D02*
X004900Y016037D01*
X004900Y016116D02*
X005087Y016116D01*
X005046Y016194D02*
X004900Y016194D01*
X004900Y016273D02*
X005046Y016273D01*
X005046Y016351D02*
X004900Y016351D01*
X004532Y015959D02*
X003133Y015959D01*
X003212Y016037D02*
X003305Y016037D01*
X003016Y016351D02*
X000620Y016351D01*
X000620Y016273D02*
X002938Y016273D01*
X002859Y016194D02*
X000620Y016194D01*
X000620Y016116D02*
X001221Y016116D01*
X001142Y016037D02*
X000620Y016037D01*
X000620Y015959D02*
X001064Y015959D01*
X000985Y015880D02*
X000620Y015880D01*
X000620Y015802D02*
X000907Y015802D01*
X000828Y015723D02*
X000620Y015723D01*
X000620Y015645D02*
X000750Y015645D01*
X000671Y015566D02*
X000620Y015566D01*
X000620Y016430D02*
X003095Y016430D01*
X003173Y016508D02*
X000620Y016508D01*
X000620Y016587D02*
X003269Y016587D01*
X002825Y016160D02*
X002825Y016160D01*
X002781Y016116D02*
X002259Y016116D01*
X002338Y016037D02*
X002720Y016037D01*
X002720Y015959D02*
X002416Y015959D01*
X002495Y015880D02*
X002720Y015880D01*
X002720Y015802D02*
X002573Y015802D01*
X001940Y015500D02*
X001940Y014820D01*
X001833Y014023D02*
X002865Y014023D01*
X003823Y014546D02*
X004765Y014546D01*
X004765Y014624D02*
X003881Y014624D01*
X003914Y014703D02*
X004765Y014703D01*
X004835Y014773D02*
X005735Y014773D01*
X005805Y014703D01*
X005805Y014683D01*
X006143Y014683D01*
X006406Y014420D01*
X006500Y014326D01*
X006500Y014200D01*
X006540Y014200D01*
X006540Y014634D01*
X006311Y014863D01*
X005805Y014863D01*
X005805Y014843D01*
X005735Y014773D01*
X004835Y014773D01*
X004827Y014781D02*
X003918Y014781D01*
X003913Y014860D02*
X004765Y014860D01*
X004765Y014938D02*
X003880Y014938D01*
X003821Y015017D02*
X004765Y015017D01*
X004765Y015095D02*
X003702Y015095D01*
X004200Y015174D02*
X004765Y015174D01*
X005285Y015023D02*
X006377Y015023D01*
X006700Y014700D01*
X006700Y013880D01*
X006716Y013864D01*
X006540Y014232D02*
X006500Y014232D01*
X006500Y014310D02*
X006540Y014310D01*
X006540Y014389D02*
X006438Y014389D01*
X006359Y014467D02*
X006540Y014467D01*
X006540Y014546D02*
X006281Y014546D01*
X006202Y014624D02*
X006540Y014624D01*
X006471Y014703D02*
X005805Y014703D01*
X005743Y014781D02*
X006393Y014781D01*
X006314Y014860D02*
X005805Y014860D01*
X006077Y014523D02*
X005285Y014523D01*
X005735Y014273D02*
X005805Y014343D01*
X005805Y014363D01*
X006011Y014363D01*
X006180Y014194D01*
X006180Y014086D01*
X006177Y014089D01*
X006083Y014183D01*
X005805Y014183D01*
X005805Y014203D01*
X005735Y014273D01*
X005772Y014310D02*
X006064Y014310D01*
X006142Y014232D02*
X005776Y014232D01*
X006113Y014153D02*
X006180Y014153D01*
X006177Y014089D02*
X006177Y014089D01*
X006340Y014260D02*
X006340Y012340D01*
X007001Y012897D02*
X007076Y012897D01*
X007363Y011877D02*
X007392Y011877D01*
X007392Y011798D02*
X007363Y011798D01*
X007363Y011720D02*
X007392Y011720D01*
X007392Y011641D02*
X008251Y011641D01*
X007392Y011563D02*
X007363Y011563D01*
X007363Y011484D02*
X007392Y011484D01*
X007392Y011406D02*
X007363Y011406D01*
X007042Y011406D02*
X007035Y011406D01*
X007035Y010856D02*
X007069Y010856D01*
X005860Y013166D02*
X005843Y013183D01*
X005805Y013183D01*
X005805Y013203D01*
X005735Y013273D01*
X004835Y013273D01*
X005735Y013273D01*
X005805Y013343D01*
X005805Y013363D01*
X005811Y013363D01*
X005860Y013314D01*
X005860Y013166D01*
X005860Y013211D02*
X005796Y013211D01*
X005751Y013290D02*
X005860Y013290D01*
X005944Y013682D02*
X006020Y013682D01*
X006020Y013761D02*
X005747Y013761D01*
X005801Y013839D02*
X005975Y013839D01*
X006340Y014260D02*
X006077Y014523D01*
X007184Y015252D02*
X008251Y015252D01*
X008251Y015331D02*
X007253Y015331D01*
X007253Y015409D02*
X008251Y015409D01*
X008251Y015488D02*
X007253Y015488D01*
X007253Y015566D02*
X008219Y015566D01*
X008141Y015645D02*
X007247Y015645D01*
X007152Y016231D02*
X006892Y016231D01*
X006892Y016466D01*
X006892Y016494D01*
X006863Y016494D01*
X006863Y016466D01*
X006481Y016466D01*
X006481Y016353D01*
X006491Y016317D01*
X006509Y016286D01*
X006536Y016259D01*
X006567Y016241D01*
X006603Y016231D01*
X006863Y016231D01*
X006863Y016466D01*
X006892Y016466D01*
X007273Y016466D01*
X007273Y016353D01*
X007264Y016317D01*
X007246Y016286D01*
X007219Y016259D01*
X007188Y016241D01*
X007152Y016231D01*
X007233Y016273D02*
X007513Y016273D01*
X007434Y016351D02*
X007273Y016351D01*
X007273Y016430D02*
X007356Y016430D01*
X007277Y016508D02*
X007273Y016508D01*
X006892Y016508D02*
X006863Y016508D01*
X006863Y016494D02*
X006863Y016728D01*
X006603Y016728D01*
X006567Y016719D01*
X006536Y016701D01*
X006509Y016674D01*
X006491Y016643D01*
X006481Y016607D01*
X006481Y016494D01*
X006863Y016494D01*
X006863Y016430D02*
X006892Y016430D01*
X006892Y016351D02*
X006863Y016351D01*
X006863Y016273D02*
X006892Y016273D01*
X006892Y016587D02*
X006863Y016587D01*
X006863Y016665D02*
X006892Y016665D01*
X006504Y016665D02*
X006373Y016665D01*
X006388Y016587D02*
X006481Y016587D01*
X006481Y016508D02*
X006388Y016508D01*
X006388Y016430D02*
X006481Y016430D01*
X006482Y016351D02*
X006388Y016351D01*
X006388Y016273D02*
X006522Y016273D01*
X006388Y016194D02*
X007591Y016194D01*
X007670Y016116D02*
X006349Y016116D01*
X006428Y016037D02*
X007748Y016037D01*
X007827Y015959D02*
X006506Y015959D01*
X006585Y015880D02*
X007905Y015880D01*
X007984Y015802D02*
X006663Y015802D01*
X006742Y015723D02*
X008062Y015723D01*
X005730Y016665D02*
X005704Y016665D01*
X004023Y016665D02*
X000620Y016665D01*
X000620Y017058D02*
X002505Y017058D01*
X002426Y017136D02*
X000620Y017136D01*
X000620Y017215D02*
X002386Y017215D01*
X002362Y017293D02*
X000620Y017293D01*
X000620Y017372D02*
X002362Y017372D01*
X002380Y017450D02*
X000620Y017450D01*
X000620Y017529D02*
X002412Y017529D01*
X002489Y017607D02*
X001554Y017607D01*
X001812Y017686D02*
X002540Y017686D01*
X002540Y017764D02*
X001948Y017764D01*
X002061Y017843D02*
X002540Y017843D01*
X002540Y017921D02*
X002140Y017921D01*
X002218Y018000D02*
X002540Y018000D01*
X002540Y018078D02*
X002270Y018078D01*
X002315Y018157D02*
X002540Y018157D01*
X002540Y018235D02*
X002361Y018235D01*
X002390Y018314D02*
X002540Y018314D01*
X002540Y018392D02*
X002411Y018392D01*
X002432Y018471D02*
X002540Y018471D01*
X002540Y018549D02*
X002451Y018549D01*
X002451Y018628D02*
X002601Y018628D01*
X002680Y018706D02*
X002451Y018706D01*
X002451Y018785D02*
X002758Y018785D01*
X002837Y018863D02*
X002442Y018863D01*
X002421Y018942D02*
X002915Y018942D01*
X002994Y019020D02*
X002399Y019020D01*
X002378Y019099D02*
X003072Y019099D01*
X003151Y019177D02*
X002335Y019177D01*
X002290Y019256D02*
X003229Y019256D01*
X003308Y019334D02*
X002244Y019334D01*
X002174Y019413D02*
X003386Y019413D01*
X003620Y019420D02*
X002700Y018500D01*
X002700Y017340D01*
X002860Y018000D02*
X003549Y018000D01*
X003549Y018078D02*
X002860Y018078D01*
X002860Y018157D02*
X003549Y018157D01*
X003598Y018235D02*
X002860Y018235D01*
X002860Y018314D02*
X003559Y018314D01*
X003549Y018392D02*
X002860Y018392D01*
X002897Y018471D02*
X003549Y018471D01*
X003549Y018549D02*
X002975Y018549D01*
X003054Y018628D02*
X003549Y018628D01*
X003549Y018706D02*
X003132Y018706D01*
X003211Y018785D02*
X003549Y018785D01*
X003556Y018863D02*
X003289Y018863D01*
X003368Y018942D02*
X004281Y018942D01*
X004281Y018863D02*
X004176Y018863D01*
X004183Y018785D02*
X004281Y018785D01*
X004307Y019020D02*
X003446Y019020D01*
X001169Y017607D02*
X000620Y017607D01*
X000620Y017686D02*
X000910Y017686D01*
X000774Y017764D02*
X000620Y017764D01*
X000620Y017843D02*
X000661Y017843D01*
X003885Y016037D02*
X003946Y016037D01*
X015931Y004105D02*
X016665Y004105D01*
X016620Y004184D02*
X016010Y004184D01*
X016088Y004262D02*
X016620Y004262D01*
X016620Y004341D02*
X016167Y004341D01*
X016245Y004419D02*
X016620Y004419D01*
X016620Y004498D02*
X016324Y004498D01*
X016402Y004576D02*
X016686Y004576D01*
X016620Y004655D02*
X016481Y004655D01*
X016430Y004830D02*
X014540Y002940D01*
X014540Y002660D01*
X014540Y001875D01*
X014480Y001815D01*
X014797Y001829D02*
X017695Y001829D01*
X017660Y001750D02*
X014797Y001750D01*
X014797Y001672D02*
X017639Y001672D01*
X017618Y001593D02*
X014797Y001593D01*
X014763Y001515D02*
X017597Y001515D01*
X017594Y001436D02*
X014772Y001436D01*
X014797Y001358D02*
X017594Y001358D01*
X017594Y001279D02*
X014797Y001279D01*
X014797Y001201D02*
X017599Y001201D01*
X017620Y001122D02*
X014797Y001122D01*
X014797Y001044D02*
X017641Y001044D01*
X017662Y000965D02*
X014797Y000965D01*
X014797Y000887D02*
X017699Y000887D01*
X017745Y000808D02*
X014213Y000808D01*
X013847Y000808D02*
X013818Y000808D01*
X013818Y000887D02*
X013847Y000887D01*
X013847Y000965D02*
X013818Y000965D01*
X013818Y000994D02*
X013436Y000994D01*
X013436Y001107D01*
X013446Y001143D01*
X013464Y001174D01*
X013491Y001201D01*
X013522Y001219D01*
X013558Y001228D01*
X013818Y001228D01*
X013818Y000994D01*
X013818Y001044D02*
X013847Y001044D01*
X013847Y001122D02*
X013818Y001122D01*
X013818Y001201D02*
X013847Y001201D01*
X014013Y001358D02*
X013149Y001358D01*
X013220Y001279D02*
X014092Y001279D01*
X013935Y001436D02*
X013070Y001436D01*
X012992Y001515D02*
X013856Y001515D01*
X013778Y001593D02*
X012975Y001593D01*
X012975Y001672D02*
X013699Y001672D01*
X013653Y001750D02*
X012975Y001750D01*
X012902Y001829D02*
X013456Y001829D01*
X013456Y001907D02*
X012900Y001907D01*
X012972Y001986D02*
X013456Y001986D01*
X013456Y002064D02*
X013050Y002064D01*
X013129Y002143D02*
X013461Y002143D01*
X013286Y002300D02*
X014380Y002300D01*
X014380Y002378D02*
X013884Y002378D01*
X013963Y002457D02*
X014380Y002457D01*
X014380Y002535D02*
X014041Y002535D01*
X014120Y002614D02*
X014380Y002614D01*
X014380Y002692D02*
X014198Y002692D01*
X014277Y002771D02*
X014380Y002771D01*
X014380Y002849D02*
X014355Y002849D01*
X014700Y002849D02*
X017048Y002849D01*
X017048Y002928D02*
X014754Y002928D01*
X014832Y003006D02*
X017048Y003006D01*
X017125Y003085D02*
X016622Y003085D01*
X016671Y003163D02*
X019425Y003163D01*
X019422Y003085D02*
X019425Y003085D01*
X019425Y003242D02*
X016856Y003242D01*
X016935Y003320D02*
X019425Y003320D01*
X019425Y003399D02*
X017013Y003399D01*
X017092Y003477D02*
X019425Y003477D01*
X019425Y003556D02*
X017170Y003556D01*
X017249Y003634D02*
X019425Y003634D01*
X019425Y003713D02*
X017320Y003713D01*
X017320Y003791D02*
X019425Y003791D01*
X019425Y003870D02*
X017320Y003870D01*
X017320Y003948D02*
X019425Y003948D01*
X019425Y004027D02*
X017320Y004027D01*
X017615Y004105D02*
X019425Y004105D01*
X019425Y004184D02*
X018598Y004184D01*
X018677Y004262D02*
X019425Y004262D01*
X019425Y004341D02*
X018755Y004341D01*
X018834Y004419D02*
X019425Y004419D01*
X019425Y004498D02*
X018912Y004498D01*
X018991Y004576D02*
X019425Y004576D01*
X019425Y004655D02*
X019069Y004655D01*
X019148Y004733D02*
X019425Y004733D01*
X019425Y004812D02*
X019226Y004812D01*
X019305Y004890D02*
X019425Y004890D01*
X019425Y004969D02*
X019383Y004969D01*
X019109Y005204D02*
X019031Y005204D01*
X019031Y005126D02*
X018939Y005126D01*
X018952Y005047D02*
X017623Y005047D01*
X017590Y005080D02*
X016690Y005080D01*
X017590Y005080D01*
X017635Y005126D02*
X018428Y005126D01*
X018337Y005204D02*
X017660Y005204D01*
X017660Y005283D02*
X018264Y005283D01*
X018232Y005361D02*
X017660Y005361D01*
X017660Y005440D02*
X018199Y005440D01*
X018194Y005518D02*
X017652Y005518D01*
X017606Y005597D02*
X018194Y005597D01*
X018404Y005830D02*
X018684Y005550D01*
X018404Y005830D02*
X017140Y005830D01*
X017140Y006330D02*
X018464Y006330D01*
X018684Y006550D01*
X019174Y006539D02*
X019200Y006539D01*
X019200Y006617D02*
X019174Y006617D01*
X019154Y006696D02*
X019200Y006696D01*
X019200Y006774D02*
X019122Y006774D01*
X019074Y006853D02*
X019200Y006853D01*
X019200Y006931D02*
X018996Y006931D01*
X018855Y007010D02*
X019200Y007010D01*
X019200Y007088D02*
X018849Y007088D01*
X018993Y007167D02*
X019200Y007167D01*
X019200Y007245D02*
X019072Y007245D01*
X019120Y007324D02*
X019200Y007324D01*
X019200Y007402D02*
X019153Y007402D01*
X019174Y007481D02*
X019200Y007481D01*
X019200Y007559D02*
X019174Y007559D01*
X019174Y007638D02*
X019200Y007638D01*
X019200Y007716D02*
X019146Y007716D01*
X019113Y007795D02*
X019200Y007795D01*
X019200Y007873D02*
X019054Y007873D01*
X018975Y007952D02*
X019200Y007952D01*
X019200Y008030D02*
X018806Y008030D01*
X018898Y008109D02*
X019200Y008109D01*
X019200Y008187D02*
X019014Y008187D01*
X019092Y008266D02*
X019200Y008266D01*
X019200Y008344D02*
X019129Y008344D01*
X019161Y008423D02*
X019200Y008423D01*
X019200Y008501D02*
X019174Y008501D01*
X019174Y008580D02*
X019200Y008580D01*
X019200Y008658D02*
X019170Y008658D01*
X019200Y008737D02*
X019137Y008737D01*
X019164Y008815D02*
X019105Y008815D01*
X018684Y008550D02*
X017940Y007806D01*
X017940Y007580D01*
X017690Y007330D01*
X017140Y007330D01*
X017110Y007300D01*
X016620Y007300D01*
X016380Y007060D01*
X016380Y006820D01*
X016612Y007066D02*
X016658Y007112D01*
X016690Y007080D01*
X017590Y007080D01*
X016690Y007080D01*
X016644Y007034D01*
X016612Y007066D01*
X016634Y007088D02*
X016682Y007088D01*
X017140Y006830D02*
X017964Y006830D01*
X018684Y007550D01*
X018519Y007088D02*
X018448Y007088D01*
X018513Y007010D02*
X018370Y007010D01*
X018372Y006931D02*
X018291Y006931D01*
X018293Y006853D02*
X018213Y006853D01*
X018246Y006774D02*
X018134Y006774D01*
X018056Y006696D02*
X018214Y006696D01*
X018194Y006617D02*
X017627Y006617D01*
X017631Y006539D02*
X018194Y006539D01*
X018395Y006146D02*
X017656Y006146D01*
X017602Y006068D02*
X018569Y006068D01*
X018799Y006068D02*
X019200Y006068D01*
X019200Y006146D02*
X018973Y006146D01*
X019051Y006225D02*
X019200Y006225D01*
X019200Y006303D02*
X019112Y006303D01*
X019144Y006382D02*
X019200Y006382D01*
X019200Y006460D02*
X019174Y006460D01*
X019200Y005989D02*
X018905Y005989D01*
X019016Y005911D02*
X019200Y005911D01*
X019200Y005832D02*
X019095Y005832D01*
X019130Y005754D02*
X019200Y005754D01*
X019200Y005675D02*
X019163Y005675D01*
X019174Y005597D02*
X019200Y005597D01*
X019200Y005518D02*
X019174Y005518D01*
X019169Y005440D02*
X019200Y005440D01*
X019200Y005361D02*
X019136Y005361D01*
X019103Y005283D02*
X019188Y005283D01*
X018874Y004969D02*
X017660Y004969D01*
X017660Y004890D02*
X018795Y004890D01*
X018717Y004812D02*
X017660Y004812D01*
X017660Y004733D02*
X018638Y004733D01*
X018560Y004655D02*
X017660Y004655D01*
X017594Y004576D02*
X018481Y004576D01*
X017140Y004830D02*
X016430Y004830D01*
X016536Y004990D02*
X016658Y005112D01*
X016690Y005080D01*
X016620Y005010D01*
X016620Y004990D01*
X016536Y004990D01*
X016593Y005047D02*
X016657Y005047D01*
X016650Y005330D02*
X015220Y003900D01*
X015180Y003900D01*
X013740Y002460D01*
X013220Y002460D01*
X013207Y002221D02*
X014380Y002221D01*
X014225Y002143D02*
X014204Y002143D01*
X014700Y002221D02*
X018002Y002221D01*
X017924Y002143D02*
X014735Y002143D01*
X014797Y002064D02*
X017845Y002064D01*
X017786Y001986D02*
X014797Y001986D01*
X014797Y001907D02*
X017740Y001907D01*
X018129Y002300D02*
X014700Y002300D01*
X014700Y002378D02*
X018268Y002378D01*
X018356Y002535D02*
X018008Y002535D01*
X018027Y002614D02*
X018321Y002614D01*
X018282Y002692D02*
X018021Y002692D01*
X018027Y002771D02*
X018242Y002771D01*
X018226Y002849D02*
X018027Y002849D01*
X017999Y002928D02*
X018253Y002928D01*
X018378Y003006D02*
X018497Y002967D01*
X018616Y003006D01*
X018615Y003006D02*
X018378Y003006D01*
X018390Y002834D02*
X018497Y002620D01*
X018603Y002834D01*
X018758Y002780D02*
X018758Y002727D01*
X018972Y002727D01*
X018972Y002780D02*
X018918Y002834D01*
X018812Y002834D01*
X018758Y002780D01*
X018812Y002620D02*
X018918Y002620D01*
X018972Y002673D01*
X018972Y002780D01*
X019126Y002780D02*
X019126Y002887D01*
X019180Y002940D01*
X019340Y002940D01*
X019340Y002620D01*
X019340Y002727D02*
X019180Y002727D01*
X019126Y002780D01*
X019233Y002727D02*
X019126Y002620D01*
X019425Y002457D02*
X018527Y002457D01*
X018466Y002457D02*
X014700Y002457D01*
X014700Y002535D02*
X016959Y002535D01*
X016941Y002614D02*
X014700Y002614D01*
X014700Y002692D02*
X016946Y002692D01*
X017025Y002771D02*
X014700Y002771D01*
X014911Y003085D02*
X015349Y003085D01*
X015309Y003163D02*
X014989Y003163D01*
X015068Y003242D02*
X015309Y003242D01*
X015309Y003320D02*
X015146Y003320D01*
X015225Y003399D02*
X015625Y003399D01*
X015625Y003477D02*
X015705Y003477D01*
X015705Y003556D02*
X015625Y003556D01*
X015625Y003634D02*
X015705Y003634D01*
X015705Y003713D02*
X015625Y003713D01*
X015617Y003791D02*
X016896Y003791D01*
X016960Y003870D02*
X015696Y003870D01*
X015774Y003948D02*
X016960Y003948D01*
X016960Y004027D02*
X015853Y004027D01*
X015917Y003713D02*
X016818Y003713D01*
X016739Y003634D02*
X016664Y003634D01*
X016047Y003085D02*
X015981Y003085D01*
X015705Y003085D02*
X015625Y003085D01*
X015625Y003163D02*
X015705Y003163D01*
X015705Y003242D02*
X015625Y003242D01*
X015625Y003320D02*
X015705Y003320D01*
X015309Y003477D02*
X015303Y003477D01*
X017208Y002940D02*
X017208Y002620D01*
X017314Y002620D02*
X017101Y002620D01*
X017314Y002834D02*
X017208Y002940D01*
X017290Y003085D02*
X017678Y003085D01*
X017600Y003006D02*
X017368Y003006D01*
X017447Y002928D02*
X017600Y002928D01*
X017600Y002849D02*
X017474Y002849D01*
X017498Y002673D02*
X017445Y002673D01*
X017445Y002620D01*
X017498Y002620D01*
X017498Y002673D01*
X017653Y002620D02*
X017867Y002620D01*
X017760Y002620D02*
X017760Y002940D01*
X017867Y002834D01*
X018637Y002535D02*
X018670Y002535D01*
X019100Y002378D02*
X019425Y002378D01*
X019425Y002300D02*
X019239Y002300D01*
X019366Y002221D02*
X019425Y002221D01*
X017790Y000730D02*
X013220Y000730D01*
X013220Y000808D02*
X013452Y000808D01*
X013436Y000887D02*
X013220Y000887D01*
X013220Y000965D02*
X013436Y000965D01*
X013436Y001044D02*
X013220Y001044D01*
X013220Y001122D02*
X013441Y001122D01*
X013491Y001201D02*
X013220Y001201D01*
X013220Y000651D02*
X017853Y000651D01*
X017140Y005330D02*
X016650Y005330D01*
X016649Y006539D02*
X016576Y006539D01*
X017598Y007088D02*
X017996Y007088D01*
X018074Y007167D02*
X017660Y007167D01*
X017660Y007010D02*
X017917Y007010D01*
X017831Y007245D02*
X018153Y007245D01*
X018231Y007324D02*
X017910Y007324D01*
X017988Y007402D02*
X018215Y007402D01*
X018194Y007481D02*
X018067Y007481D01*
X018100Y007559D02*
X018194Y007559D01*
X018194Y007638D02*
X018100Y007638D01*
X018100Y007716D02*
X018222Y007716D01*
X018255Y007795D02*
X018155Y007795D01*
X018233Y007873D02*
X018314Y007873D01*
X018312Y007952D02*
X018392Y007952D01*
X018390Y008030D02*
X018562Y008030D01*
X018470Y008109D02*
X018469Y008109D01*
X018239Y008344D02*
X017998Y008344D01*
X017998Y008423D02*
X018206Y008423D01*
X018194Y008501D02*
X017975Y008501D01*
X017938Y008580D02*
X018194Y008580D01*
X018198Y008658D02*
X017860Y008658D01*
X017660Y008380D02*
X017380Y008380D01*
X017140Y008140D01*
X017140Y007830D01*
X017611Y007559D02*
X017693Y007559D01*
X017647Y007638D02*
X017771Y007638D01*
X017780Y007716D02*
X017660Y007716D01*
X017660Y007795D02*
X017780Y007795D01*
X017781Y007873D02*
X017660Y007873D01*
X017660Y007952D02*
X017859Y007952D01*
X017938Y008030D02*
X017640Y008030D01*
X017866Y008109D02*
X018016Y008109D01*
X017945Y008187D02*
X018095Y008187D01*
X018173Y008266D02*
X017978Y008266D01*
X019189Y010621D02*
X019425Y010621D01*
X019425Y010699D02*
X019172Y010699D01*
X019140Y010778D02*
X019425Y010778D01*
X019425Y010856D02*
X019092Y010856D01*
X019021Y010935D02*
X019425Y010935D01*
X019425Y011013D02*
X018899Y011013D01*
X012912Y002378D02*
X012352Y002378D01*
X012431Y002300D02*
X012833Y002300D01*
X012755Y002221D02*
X012509Y002221D01*
X012588Y002143D02*
X012676Y002143D01*
D11*
X014720Y004330D03*
X014720Y004830D03*
X014720Y005330D03*
X014720Y005830D03*
X014720Y006330D03*
X014720Y006830D03*
X014720Y007330D03*
X014720Y007830D03*
X017140Y007830D03*
X017140Y007330D03*
X017140Y006830D03*
X017140Y006330D03*
X017140Y005830D03*
X017140Y005330D03*
X017140Y004830D03*
X017140Y004330D03*
X005285Y012023D03*
X005285Y012523D03*
X005285Y013023D03*
X005285Y013523D03*
X005285Y014023D03*
X005285Y014523D03*
X005285Y015023D03*
X005285Y015523D03*
X002865Y015523D03*
X002865Y015023D03*
X002865Y014523D03*
X002865Y014023D03*
X002865Y013523D03*
X002865Y013023D03*
X002865Y012523D03*
X002865Y012023D03*
D12*
X007635Y009392D03*
X008619Y009392D03*
X009530Y009381D03*
X009530Y008279D03*
X008619Y008289D03*
X007635Y008289D03*
X008435Y007030D03*
X009380Y007031D03*
X009380Y005929D03*
X008435Y005927D03*
X008435Y004467D03*
X009330Y004481D03*
X009330Y003379D03*
X008435Y003365D03*
X008382Y002290D03*
X009480Y002251D03*
X010480Y002251D03*
X010480Y001149D03*
X009480Y001149D03*
X008382Y001188D03*
X010530Y010479D03*
X011580Y010479D03*
X011580Y011581D03*
X010530Y011581D03*
X010530Y012979D03*
X010530Y014081D03*
X010130Y015429D03*
X010130Y016531D03*
X011330Y016481D03*
X011330Y015379D03*
X011930Y013981D03*
X011930Y012879D03*
X012630Y011581D03*
X012630Y010479D03*
X011280Y017729D03*
X011280Y018831D03*
X009030Y018831D03*
X009030Y017729D03*
X007930Y017729D03*
X007930Y018831D03*
D13*
X006883Y018830D03*
X006883Y017830D03*
X006878Y016480D03*
X006878Y015480D03*
X007428Y014080D03*
X007428Y013080D03*
X007378Y011630D03*
X007378Y010630D03*
X006687Y009291D03*
X006687Y008291D03*
X007503Y006878D03*
X007503Y005878D03*
X007553Y004416D03*
X007553Y003416D03*
X007450Y001879D03*
X007450Y000879D03*
X005245Y000879D03*
X005245Y001879D03*
X005348Y003416D03*
X005348Y004416D03*
X005298Y005878D03*
X005298Y006878D03*
X004482Y008291D03*
X004482Y009291D03*
X009583Y010630D03*
X009583Y011630D03*
X009633Y013080D03*
X009633Y014080D03*
X009083Y015480D03*
X009083Y016480D03*
X012328Y016330D03*
X012328Y015330D03*
X012978Y013930D03*
X012978Y012930D03*
X013628Y011580D03*
X013628Y010580D03*
X012633Y009380D03*
X012633Y008380D03*
X012483Y006980D03*
X012483Y005980D03*
X012483Y004380D03*
X012483Y003380D03*
X011628Y001980D03*
X011628Y000980D03*
X013833Y000980D03*
X013833Y001980D03*
X010278Y003380D03*
X010278Y004380D03*
X010278Y005980D03*
X010278Y006980D03*
X010428Y008380D03*
X010428Y009380D03*
X015183Y012930D03*
X015183Y013930D03*
X014533Y015330D03*
X014533Y016330D03*
X014433Y017730D03*
X014433Y018730D03*
X012228Y018730D03*
X012228Y017730D03*
X015833Y011580D03*
X015833Y010580D03*
X004678Y017830D03*
X004678Y018830D03*
D14*
X003866Y018590D03*
X003866Y017921D03*
X006716Y013864D03*
X006716Y013195D03*
X006719Y011451D03*
X006719Y010782D03*
X003769Y009113D03*
X003769Y008444D03*
X004557Y006641D03*
X004557Y005972D03*
X004629Y004245D03*
X004629Y003576D03*
X004480Y001715D03*
X004480Y001045D03*
X013130Y003545D03*
X013130Y004215D03*
X013130Y006095D03*
X013130Y006765D03*
X013280Y008545D03*
X013280Y009215D03*
X016530Y010745D03*
X016530Y011415D03*
X015880Y013095D03*
X015880Y013765D03*
X015480Y015445D03*
X015480Y016115D03*
X015180Y017895D03*
X015180Y018565D03*
X014480Y001815D03*
X014480Y001145D03*
D15*
X015665Y003380D03*
X016335Y003380D03*
X006052Y016404D03*
X005382Y016404D03*
X004265Y016330D03*
X003595Y016330D03*
D16*
X001361Y014495D03*
X001361Y013495D03*
X001361Y012495D03*
X001361Y011495D03*
X001361Y010495D03*
X001361Y009495D03*
X001361Y008495D03*
X001361Y007495D03*
X001361Y006495D03*
X001361Y005495D03*
X018684Y005550D03*
X018684Y006550D03*
X018684Y007550D03*
X018684Y008550D03*
X018684Y009550D03*
X018684Y010550D03*
X018684Y011550D03*
X018684Y012550D03*
X018684Y013550D03*
X018684Y014550D03*
D17*
X015220Y011060D03*
X015620Y009300D03*
X015540Y007300D03*
X016380Y006820D03*
X017660Y008380D03*
X014580Y013460D03*
X014020Y015860D03*
X013860Y018260D03*
X008024Y013524D03*
X008024Y011124D03*
X005224Y008804D03*
X003064Y010804D03*
X004904Y011204D03*
X004104Y013764D03*
X003580Y014780D03*
X001940Y015500D03*
X002700Y017340D03*
X004264Y016884D03*
X005384Y018324D03*
X006904Y015924D03*
X012020Y008900D03*
X011860Y006500D03*
X011860Y003860D03*
X013540Y001460D03*
X012580Y000980D03*
X015620Y002820D03*
X007480Y001390D03*
X005889Y001361D03*
X005944Y003924D03*
X005944Y006324D03*
X003224Y003364D03*
X002344Y006004D03*
D18*
X004557Y005972D02*
X004651Y005878D01*
X005298Y005878D01*
X004629Y003576D02*
X004788Y003416D01*
X005348Y003416D01*
X004480Y001045D02*
X004646Y000879D01*
X005245Y000879D01*
X012483Y004193D02*
X013130Y003545D01*
X012483Y004193D02*
X012483Y004380D01*
X013130Y006765D02*
X012915Y006980D01*
X012483Y006980D01*
X013280Y009215D02*
X013115Y009380D01*
X012633Y009380D01*
X015833Y011580D02*
X016365Y011580D01*
X016530Y011415D01*
X018684Y009550D02*
X019380Y008854D01*
X019380Y005220D01*
X018490Y004330D01*
X017140Y004330D01*
X017140Y003780D01*
X016740Y003380D01*
X016335Y003380D01*
X014480Y001145D02*
X013833Y001793D01*
X013833Y001980D01*
X007378Y010630D02*
X006870Y010630D01*
X006719Y010782D01*
X006830Y013080D02*
X006716Y013195D01*
X006830Y013080D02*
X007428Y013080D01*
X006878Y015480D02*
X006730Y015480D01*
X006080Y016130D01*
X006080Y016375D01*
X006052Y016404D01*
X004678Y017830D02*
X004678Y018133D01*
X004230Y018580D01*
X003876Y018580D01*
X003866Y018590D01*
X003595Y016330D02*
X003250Y016330D01*
X002900Y015980D01*
X002900Y015558D01*
X002865Y015523D01*
X002597Y015523D01*
X002140Y015980D01*
X001340Y015980D01*
X000660Y015300D01*
X000660Y011196D01*
X001361Y010495D01*
X003769Y008444D02*
X003922Y008291D01*
X004482Y008291D01*
X014533Y016330D02*
X015265Y016330D01*
X015480Y016115D01*
X015715Y013930D02*
X015183Y013930D01*
X015715Y013930D02*
X015880Y013765D01*
X015180Y018565D02*
X015015Y018730D01*
X014433Y018730D01*
D19*
X012228Y018730D02*
X011381Y018730D01*
X011280Y018831D01*
X009030Y018831D01*
X007930Y018831D01*
X007929Y018830D01*
X006883Y018830D01*
X006883Y017830D02*
X007829Y017830D01*
X007930Y017729D01*
X009030Y017729D01*
X009030Y016533D01*
X009083Y016480D01*
X010079Y016480D01*
X010130Y016531D01*
X010079Y015480D02*
X009083Y015480D01*
X010079Y015480D02*
X010130Y015429D01*
X010130Y014980D01*
X010530Y014580D01*
X010530Y014081D01*
X010529Y014080D01*
X009633Y014080D01*
X009633Y013080D02*
X010429Y013080D01*
X010530Y012979D01*
X010530Y011581D01*
X010481Y011630D01*
X009583Y011630D01*
X009583Y010630D02*
X009030Y010630D01*
X008619Y010219D01*
X008619Y009392D01*
X007635Y009392D01*
X007534Y009291D01*
X006687Y009291D01*
X006687Y008291D02*
X007634Y008291D01*
X007635Y008289D01*
X008619Y008289D01*
X008435Y008105D01*
X008435Y007030D01*
X008284Y006878D01*
X007503Y006878D01*
X007503Y005878D02*
X008386Y005878D01*
X008435Y005927D01*
X008435Y004467D01*
X008384Y004416D01*
X007553Y004416D01*
X007553Y003416D02*
X008384Y003416D01*
X008435Y003365D01*
X008382Y003312D01*
X008382Y002290D01*
X007931Y001879D01*
X007450Y001879D01*
X007480Y001390D02*
X007483Y000903D01*
X007475Y000893D01*
X007680Y000893D01*
X007975Y001188D01*
X008382Y001188D01*
X007480Y001390D02*
X007471Y000879D01*
X007450Y000879D01*
X009330Y002281D02*
X009480Y002251D01*
X010480Y002251D01*
X010631Y001980D01*
X011628Y001980D01*
X011628Y000980D02*
X012580Y000980D01*
X011628Y000980D02*
X010529Y000980D01*
X010480Y001149D01*
X009480Y001149D01*
X009330Y002281D02*
X009330Y003379D01*
X009331Y003380D01*
X010278Y003380D01*
X010278Y004380D02*
X009431Y004380D01*
X009330Y004481D01*
X009380Y004531D01*
X009380Y005929D01*
X009431Y005980D01*
X010278Y005980D01*
X010278Y006980D02*
X009431Y006980D01*
X009380Y007031D01*
X009530Y007181D01*
X009530Y008279D01*
X009631Y008380D01*
X010428Y008380D01*
X010428Y009380D02*
X009531Y009380D01*
X009530Y009381D01*
X010428Y009380D02*
X011030Y009380D01*
X011580Y009930D01*
X011580Y010479D01*
X012630Y010479D01*
X012731Y010580D01*
X013628Y010580D01*
X013628Y011580D02*
X012631Y011580D01*
X012630Y011581D01*
X011580Y011581D01*
X011930Y011931D01*
X011930Y012879D01*
X011981Y012930D01*
X012978Y012930D01*
X012978Y013930D02*
X011981Y013930D01*
X011930Y013981D01*
X012328Y014379D01*
X012328Y015330D01*
X011379Y015330D01*
X011330Y015379D01*
X011481Y016330D02*
X011330Y016481D01*
X011330Y017679D01*
X011280Y017729D01*
X011281Y017730D01*
X012228Y017730D01*
X012328Y016330D02*
X011481Y016330D01*
X010379Y010630D02*
X009583Y010630D01*
X010379Y010630D02*
X010530Y010479D01*
M02*
