%
M48
M72
T01C0.0276
T02C0.0400
T03C0.1300
%
T01
X3224Y3364
X5944Y3924
X5944Y6324
X5224Y8804
X3064Y10804
X4904Y11204
X4104Y13764
X3580Y14780
X1940Y15500
X2700Y17340
X4264Y16884
X5384Y18324
X6904Y15924
X8024Y13524
X8024Y11124
X12020Y8900
X11860Y6500
X11860Y3860
X13540Y1460
X12580Y980
X15620Y2820
X16380Y6820
X15540Y7300
X15620Y9300
X15220Y11060
X14580Y13460
X14020Y15860
X13860Y18260
X17660Y8380
X7480Y1390
X5889Y1361
X2344Y6004
T02
X1361Y6495
X1361Y7495
X1361Y8495
X1361Y9495
X1361Y10495
X1361Y11495
X1361Y12495
X1361Y13495
X1361Y14495
X1361Y5495
X18684Y5550
X18684Y6550
X18684Y7550
X18684Y8550
X18684Y9550
X18684Y10550
X18684Y11550
X18684Y12550
X18684Y13550
X18684Y14550
T03
X1361Y1361
X1361Y18684
X18684Y18684
X18684Y1361
M30
